<svg id="Layer_1" enable-background="new 0 0 512 512" height="512" viewBox="0 0 512 512" width="512" xmlns="http://www.w3.org/2000/svg"><g><g><g><g><path d="m86.5 401.5c8.3-17.4 15.6-20.1 19.3-37.9 3.8-17.8 12.5-37.6 18.6-52.3 6.1-14.8 2.7-36.8 17.1-70.6 1.7-4.1 4.1-7.7 6.8-10.9-4.3-6.5-8.3-13.5-6.7-14.7 1.7-1.3 13.2 0 23.8 1.5 21.5-11.2 49.7-12.5 61.4-12.3 10.4.2 22-3.3 30.6-7.6 5.8-2.9 10.2-6.1 11.9-8.7 3.6-5.5 12.8-14.5 12.8-14.5-.8-2.1 15.5-10.2 15.7-20.8.3-12.2.8-27.6 1.6-41.9h-.6s.4-.6.7-2.2c.1-1.3.2-2.6.2-3.9-.1-3.5-.7-8.8-2.8-16.8-5.4-20.4 20.6-66.6 26.4-65.6l7.5 52.8 25.7 1.4 16.2-50.2c12.9 10.2 14.5 48.8 14.3 70.1 2.3 26.3 2.1 73.9-3.3 83l.7.3s3.8 8.7 3.6 18.6c0 0 15.5 66.3 8.3 87.2s-12 24.3-14.7 33.8c-2.7 9.6-2.3 23.2-8 38.6s-13.5 64.6-10.4 81.4 7.9 24.6 4.1 29.4-30.2 3.4-32.9 0-.6-12-1.6-17.8-3.1-14.4 4.1-20.2 6.8-89.2 6.5-93.7h-.1c-8.5 7.1-19.9 12.8-35.1 15l-2.3-.4c.8 11.5 1.7 25.1 2.2 36.3 1 22.6 5.8 60.9 8.5 70.1s9.9 16.1 7.5 22.6-28.7 10.6-31.8 3.8 0-26.8-3.1-41.1c-2.5-11.5-14-67.9-17.9-97s-13.9.1-29.8-4.3-5 14-19.2 20.8-21.4 19.8-18.7 25.7 10.8 17.6 15.8 18.5 14.4 5.9 11.7 11.3-23.7 5-28.1 2.7-24.8-39.7-27.5-46-4-8.1 10.4-18c11.2-7.8 12.1-25.1 10.2-34.2-3.9-1.1-7.6-1.9-10.7-2.4l-12.1-1.3c-13.3 20.5-45.3 49.6-53.8 58.8-9.1 9.9-19.8 38.1-21 47.2-1.1 9.1 3.4 14.4.8 17.8-2.7 3.4-31.8 5.2-33.3-2.8-1.5-7.9 12.2-21.2 20.5-38.6z" fill="#5b4d60"/></g></g></g><g><g><g><path d="m178.8 363c1.3-1 15.4-8.7 17.4-23.4 1-7.2.1-13.1-1-17.2-10.6-2.2-21.9-3.3-21.9-3.3l10.3-28.8s20.3 0 41.5 7.1 29.6 0 29.6 0l13.8 12.3 2.9 36.7s0 0-8.6-.5c-5.3-.3-20.2-5.1-33.1-10.1l-12.9 28.4-29 26.8s-8.7-9.6-12.9-17.7c-4.3-8.1 2.7-9.4 3.9-10.3z" fill="#43344c"/></g></g></g><g><g><g><path d="m222.3 334.4s-10.8 19.5-22.8 27.3-13.7 2.6-15.8 13.7c-2.2 11.1 6.1 26 6.1 26l13.3 19.6s27.5 2.4 28.1-2.7c.5-5.1-14.7-11.7-14.7-11.7s-13.1-16.4-12-24 12.2-16.7 15.1-18.2 18.8-6.8 22.1-22.3c-.1 0-11.9-3.4-19.4-7.7z" fill="#ad6845"/></g></g></g><g><g><g><path d="m346.8 360.5s10.2 7.8 9.3 22-5.6 53.6 6.5 47.3c0 0 13.1 38.7 2.3 40.3s-30.6-1.5-30.6-1.5l-1.6-17.8s-4.1-9.2 0-14.7 5.7-13.6 5.7-13.6z" fill="#e0a368"/></g></g></g><g><g><g><path d="m116.2 378s-35.1 33.4-40.6 41.8c-5.4 8.3-19.9 24.2 0 26.1s24.2-7.6 23.6-10.8c-.6-3.1.4-15.8.4-15.8z" fill="#e0a368"/></g></g></g><g><g><g><path d="m309 404.6s-2.4 35.8-7.5 35.2-16-15.2-16-15.2l5.5 21.4s-8.9 46 10.5 41.9c19.4-4 29.5-7 23.2-16.2s-8-13.6-8-13.6z" fill="#e0a368"/></g></g></g><g><g><g><path d="m369.3 286.1s-12.5 87.7-13.2 96.4-13.2 0-13.2 0l.5-41.9s22.3-22.2 25.9-54.5z" fill="#43344c"/></g></g></g><g><g><g><path d="m369.3 286.1s-12.5 87.7-13.2 96.4-13.2 0-13.2 0l.5-41.9s22.3-22.2 25.9-54.5z" fill="#43344c"/></g></g></g><g><g><g><path d="m365 233s12.8 47.9-4.1 80.8c-17 32.9-52.7 38.2-52.7 38.2l-3.3-23.9c0 .2 54.7-20 60.1-95.1z" fill="#43344c"/></g></g></g><g><g><g><path d="m356.1 382.5s-5.7 43.6-4.6 60.9c1 17.3 6.8 28.4 6.8 28.4s-23.3 3.5-23.9-3.1 0-15.9 0-15.9l-5.5-11.6 8-10.4 6.1-50.5c-.1 0 5.8 11 13.1 2.2z" fill="#ad6845"/></g></g></g><g><g><g><path d="m265.7 229.5s-16 19-17.9 34 15.1 41.2 15.1 41.2-9.5-55.4 2.8-75.2z" fill="#43344c"/></g></g></g><g><g><g><path d="m305.9 323s13.6-21.4 14.9-39.2c1.4-17.8-22.2-12.8-29.4-9.6s-6.6 25.1 14.5 48.8z" fill="#e0a368"/></g></g></g><g><g><g><path d="m369.6 291.1s3.1 17.1.7 30-23 15.2-23 15.2 18.8-28.8 22.3-45.2z" fill="#ad6845"/></g></g></g><g><g><g><path d="m340.3 125.5s-6.6 2.5-15.6 9.2-25.8-12.1-25.8-12.1-4.9 23.2 0 33.5c4.9 10.2 27 16.9 50.1 16.5s21.8-10 26.1-12.9c4.4-2.9 14.6-14.3 13.6-15.5s-1.6-18.3-1.6-18.3-5.3 12.6-14.5 2c0 0-12.1 10.4-18.8 9.3s-13.5-11.7-13.5-11.7z" fill="#e0a368"/></g></g></g><g><g><g><path d="m336.9 92.7c1.6.1 3 .9 3.8 2.2 1.5 2.5 3.2 6.3-1.5 6.7-6.5.5-16.5-9.6-2.3-8.9z" fill="#e0a368"/></g></g></g><g><g><g><path d="m368.5 91.9c-1.4.2-2.6 1.1-3.2 2.3-1.2 2.3-2.3 6 1.9 5.9 5.9-.1 14-10 1.3-8.2z" fill="#e0a368"/></g></g></g><g><g><g><path d="m310.7 87.8s-1.2-12.1 7.6-15.5c8.6-3.3-2.1-39.5-2.1-39.5s-15.3 24.2-17.3 42 1 29.8 1 29.8z" fill="#e0a368"/></g></g></g><g><g><g><path d="m376.2 30.1s-7.3 32.9-5.9 35.5c1.4 2.5 6.7 7.6 4.8 21l12.2 13.8c0-.1 1.7-55.5-11.1-70.3z" fill="#e0a368"/></g></g></g><g><g><g><path d="m362.1 172.5 30.6 55.8s-12.2-66.7-8.6-76.1l-13 10.5z" fill="#43344c"/></g></g></g><g><g><g><path d="m269.4 187.9s19.5 5.1 25.6-9.5c6.2-14.6 1.7-21 1.7-21z" fill="#43344c"/></g></g></g><g><g><g><path d="m365.7 162.4s-1.7 4.4-6.5 5c-4.7.7-25 2.5-25.9-1.8s20.6-11.9 20.6-11.9z" fill="#ad6845"/></g></g></g><g><g><g><path d="m305.5 51.2s7 20.2 3.3 37.6l-11.8 14s-1.8-44.2 8.5-51.6z" fill="#ad6845"/></g></g></g><g><g><g><path d="m385.4 51.2s-4.3 9.7-5.6 18.9-1.6 19.9-1.6 19.9l10.7 12.9z" fill="#ad6845"/></g></g></g><g><g><g><path d="m353.9 121.4s11 3.2 11.1 4.9c.1 1.8-9.7 10.2-9.7 10.2s14.5-9.1 14.4-9.8c-.1-.8-8.9-9-15.8-5.3z" fill="#fff"/></g></g></g><g><g><g><path d="m245.2 205.1s-6.7 6.2-20.2 5.1-70.2.3-87.4 45c0 0 6.2-30.5 34.5-42.2s73.1-7.9 73.1-7.9z" fill="#fff"/></g></g></g><g><g><g><g><path d="m352.3 474.7h-.1c-2.8 0-16.9-.2-20.1-4.2-2.3-2.9-2.1-7.3-2-12 .1-2.5.1-5.1-.2-7.1l-.2-1c-1.1-6.1-2.8-15.4 5.3-22 5.4-6 6-82.4 5.4-91.2-.1-1.6 1.1-3 2.7-3.1s3 1.1 3.1 2.7c.1.9 1.6 88.8-7.6 96.2-5 4.1-4.5 9.6-3.2 16.3l.2 1c.5 2.6.4 5.5.3 8.3-.1 3-.2 6.7.7 8.1 3.5 2.3 25.6 3.1 28.3.1 1.5-1.9.6-5.3-1.3-12.4-1-3.9-2.4-8.8-3.4-14.7-3.1-17 4.6-66.6 10.6-82.9 3.4-9.2 4.5-17.7 5.6-25.3.6-4.8 1.3-9.3 2.3-13.1 1.3-4.5 3-7.8 5.1-11.6 2.6-4.9 5.8-10.9 9.7-22.4 6.8-19.8-8.2-84.9-8.4-85.6-.1-.2-.1-.5-.1-.7.2-9.2-3.3-17.3-3.3-17.4-.7-1.5 0-3.2 1.5-3.9s3.2 0 3.9 1.5c.2.4 4 9.2 3.8 19.5 1.4 5.9 15.3 67.6 8.1 88.4-4.1 11.9-7.4 18.2-10.1 23.2-2 3.8-3.5 6.6-4.6 10.5-1 3.5-1.5 7.6-2.2 12.3-1.1 7.9-2.3 16.8-5.9 26.5-5.6 15.4-13.2 63.9-10.3 79.8 1 5.7 2.3 10.4 3.3 14.2 2.1 8 3.6 13.2.2 17.5-2 3.1-7.8 4.5-17.1 4.5zm-15.7-8" fill="#3f0f33"/></g></g></g><g><g><g><path d="m302.7 491c-5.2 0-11.1-1-13-5.3-1.8-4-1.8-10.9-1.8-19 0-7.4 0-15.9-1.5-22.7-.2-1-20.4-97.3-19.2-113.3.5-7.2-1.5-12.8-4.2-20.6-2.3-6.5-4.8-13.8-6.7-24.1-4.2-23 4.7-52.6 5.1-53.9.5-1.6 2.1-2.4 3.7-2 1.6.5 2.4 2.1 2 3.7-.1.3-8.8 29.5-4.9 51.1 1.8 9.8 4.3 16.9 6.5 23.2 2.7 7.8 5.1 14.6 4.5 23-.9 12.8 14.8 91.6 19.1 111.6 1.6 7.5 1.6 16.2 1.6 24 0 7 0 13.7 1.3 16.5.3.7 2.9 2 8.9 1.8 9.2-.3 16.8-3.7 17.5-5.3 1-2.7-.5-5.8-3.1-10.6-1.6-3-3.4-6.3-4.5-10.1-2.9-9.7-7.7-48.8-8.7-70.8-.5-10.2-1.3-22.4-2-33.1-.9-13.5-1.6-24.2-1.4-27.4.4-6 6.5-16.8 7.2-18 .8-1.4 2.6-1.9 4-1.1s1.9 2.6 1.1 4c-2.4 4.1-6.2 12-6.4 15.5-.2 2.8.6 14.4 1.4 26.6.7 10.8 1.5 23 2 33.2 1.1 23.3 5.9 60.7 8.4 69.4 1 3.2 2.5 6.2 4 9 2.8 5.2 5.4 10.1 3.4 15.4-2.3 6.2-15.2 8.9-22.8 9.2-.5.1-1 .1-1.5.1z" fill="#3f0f33"/></g></g></g><g><g><g><path d="m271.3 349.4c-2.5 0-30.7-.3-53.1-13.9-21.5-13.1-44.6-13.4-44.8-13.4-1.6 0-2.9-1.3-2.9-3 0-1.6 1.3-2.9 2.9-2.9 1 0 24.9.3 47.9 14.2 21.3 12.9 49.1 13.1 50.1 13.1 1.6 0 2.9 1.3 2.9 2.9s-1.3 3-2.9 3c0 0 0 0-.1 0z" fill="#3f0f33"/></g></g></g><g><g><g><path d="m214.9 425.6c-5.5 0-10.8-.7-13.1-1.9-5.9-3-27-43.1-28.8-47.5l-.2-.6c-3.4-8-2.4-11.3 11.7-21 6.6-4.5 8.6-11.5 9.1-16.5.8-7.4-1.3-13-2.3-14-1.1-1.2-1.1-3 .1-4.2 1.2-1.1 3-1.1 4.2.1 3 3.1 4.6 11.2 3.8 18.7-.6 6.3-3.2 14.9-11.6 20.7-12 8.3-11.6 9.1-9.6 13.8l.3.6c3.2 7.7 22.4 41.9 26.2 44.6 4 2.1 22.4 1.6 24-1.5.2-.4.3-.8-.1-1.4-1.2-2.4-6.2-5-9.6-5.7-6.7-1.2-15.4-14.7-17.9-20.2-3.5-7.6 4.5-22.2 20.1-29.6 13-6.2 17.6-19 17.7-19.1.5-1.5 2.2-2.3 3.8-1.8 1.5.5 2.3 2.2 1.8 3.8-.2.6-5.5 15.3-20.7 22.5-13.2 6.3-19.1 17.9-17.3 21.8 3 6.5 10.5 16.3 13.6 16.8 4.3.8 11.4 4 13.8 8.8 1.1 2.2 1.1 4.5.1 6.7-.9 1.9-2.9 3.3-5.9 4.3-3.6 1.3-8.5 1.8-13.2 1.8z" fill="#3f0f33"/></g></g></g><g><g><g><path d="m262.8 309.3c-.7 0-1.4-.2-1.9-.7-1.2-1-28.5-24.7-24.6-43.3.3-1.6 1.9-2.6 3.5-2.3s2.6 1.9 2.3 3.5c-2.6 12.7 15.5 31.5 22.7 37.7 1.2 1.1 1.4 2.9.3 4.1-.6.7-1.4 1-2.3 1z" fill="#3f0f33"/></g></g></g><g><g><g><path d="m289.3 187.9c-.9 0-1.7-.4-2.3-1.1-1-1.3-.8-3.1.5-4.1 5.4-4.3 8.4-11 8.2-17.9-.4-12.2-1.7-21.2-1.7-21.6-.7-5 .6-14.5 1.5-21.5.3-2.5.6-4.6.7-5.8 0-.7 0-1-.4-2.1-1-3.3-2.8-9.6-1.3-35.6 2-35.8 27.5-58.8 28.6-59.8 1-.8 2.3-1 3.4-.3 1.1.6 1.7 1.9 1.4 3.2-1.1 4.9 2.6 32.4 5.5 50.4 6.5-.5 17.7.9 22.3 1.6 1.8-3.8 4.8-17.3 6.8-26.5 5.1-23.3 6.1-26 9.4-26.3h.3c7.8 0 16.5 28.8 18.8 54.1 3 32.9-.1 34.5-1.5 35.3s-3.2.2-4-1.2c-.6-1-.4-2.3.3-3.2.3-1 1.6-6.5-.6-30.4-2.3-24.8-8.7-41.3-12.1-47-1.4 4.4-3.3 13.1-4.7 19.9-5.8 26.6-7.5 32.3-12.2 31.2-5-1.1-21-2.5-24.1-1.5-.8.3-1.7.2-2.5-.3-.7-.4-1.2-1.2-1.4-2-.6-3.9-5.2-32.4-6-47.4-7.3 8.5-20.3 26.7-21.6 50.5-1.4 25.1.3 30.9 1.1 33.7.4 1.2.7 2.4.6 4.2-.1 1.4-.4 3.5-.7 6.2-.8 6.2-2.1 15.6-1.5 19.9.1.4 1.3 9.7 1.8 22.1.3 8.7-3.6 17.2-10.4 22.7-.9.4-1.6.6-2.2.6zm97.2-83.1c-.1 0-.1.1-.1.1s.1-.1.1-.1zm.1 0c-.1 0-.1 0 0 0z" fill="#3f0f33"/></g></g></g><g><g><g><path d="" style="fill:none;stroke:#3f0f33;stroke-width:2.344;stroke-linecap:round;stroke-linejoin:round;stroke-miterlimit:10"/></g></g></g><g><g><g><path d="m383.7 182.3c-1.5 0-2.8-1.1-2.9-2.6-1.3-12.4 1.6-30.2 4.1-37.7 1.2-3.5.9-5 .4-8-.7-3.6-1.6-8.6-.7-19.2 1.6-17.5-10.8-24.3-10.9-24.4-1.4-.8-2-2.6-1.2-4s2.6-2 4-1.2c.7.4 16 8.8 14 30.1-.9 9.8 0 14.3.6 17.5.6 3.4 1.1 6-.6 11-2.4 7.2-5.1 24-3.9 35.2.2 1.6-1 3.1-2.6 3.2 0 .1-.2.1-.3.1z" fill="#3f0f33"/></g></g></g><g><g><g><path d="m298.9 117.1h-.1c-1.6-.1-2.9-1.4-2.8-3.1 0-.8 1-18.6 14.3-29.7 1.2-1 3.1-.9 4.1.4 1 1.2.9 3.1-.4 4.1-11.3 9.4-12.2 25.3-12.2 25.4-.1 1.6-1.4 2.9-2.9 2.9z" fill="#3f0f33"/></g></g></g><g><g><g><path d="m355 140.1c-2.7 0-5.3-.8-7.6-2.5l-9-6.8c-.7-.6-1.2-1.4-1.2-2.3 0-7.1 7.8-12.7 17.7-12.7 10.4 0 18.2 5.2 18.2 12.2 0 .9-.4 1.8-1.1 2.3l-9.5 7.3c-2.1 1.7-4.8 2.5-7.5 2.5zm-11.5-13 7.6 5.7c2.4 1.8 5.7 1.8 8 0l8-6.2c-1.2-2.8-6.3-5.1-12.1-5.1-6 .1-10.5 2.8-11.5 5.6z" fill="#3f0f33"/></g></g></g><g><g><g><path d="m366 107c1.5 3.1 5.7 4.6 9.3 3.3s5.4-4.9 3.9-8-3.7-1.9-7.3-.6-7.4 2.2-5.9 5.3z" fill="#3f0f33"/></g></g></g><g><g><g><path d="m334.5 107c-1.5 3.1-5.7 4.6-9.3 3.3s-5.4-4.9-3.9-8 3.7-1.9 7.3-.6c3.7 1.3 7.5 2.2 5.9 5.3z" fill="#3f0f33"/></g></g></g><g><g><g><path d="m369.6 165.4c-6.2 0-14.1-8.7-16.6-11.5-.5-.5-.7-1.2-.7-1.9v-14.8c0-1.6 1.3-2.9 2.9-2.9s2.9 1.3 2.9 2.9v13.7c4.4 4.9 9.7 9 11.4 8.7 3.1-.7 9.3-6.1 12.4-9.3 1.1-1.2 3-1.2 4.2 0 1.2 1.1 1.2 3 0 4.2-1.6 1.6-9.7 9.6-15.3 10.9-.3 0-.7 0-1.2 0z" fill="#3f0f33"/></g></g></g><g><g><g><path d="m332.5 165.7c-1 0-1.9-.1-2.8-.4-8.5-2.5-17.7-9.5-17.7-16.1 0-1.6 1.3-2.9 2.9-2.9s2.9 1.3 2.9 2.9c0 2.6 6 8.3 13.4 10.4 4.4 1.3 15.7-5.1 22.3-10 1.3-1 3.1-.7 4.1.6s.7 3.1-.6 4.1c-2.7 2.1-15.6 11.4-24.5 11.4z" fill="#3f0f33"/></g></g></g><g><g><g><path d="m361 175.4h-23.5c-1.6 0-2.9-1.3-2.9-2.9s1.3-2.9 2.9-2.9h23.5c4.3 0 6.4-7.8 6.4-7.8.4-1.6 2-2.5 3.5-2.2 1.6.4 2.5 2 2.2 3.5-1 4.6-4.8 12.3-12.1 12.3z" fill="#3f0f33"/></g></g></g><g><g><g><path d="m83.6 448.8c-4.3 0-8.5-.4-11.5-1.1-5.3-1.3-8.3-3.6-8.9-6.9-1.1-5.9 3.5-12.8 9.4-21.6 3.8-5.6 8-12 11.3-18.9 3.4-7.1 6.6-11.8 9.4-15.9 4.2-6.2 7.5-11.1 9.7-21.3 3.4-15.8 10.5-33.1 16.3-47 .8-2 1.7-4 2.4-5.9 2.2-5.4 3.1-12 4.2-20.2 1.8-13.1 3.9-29.5 12.9-50.4 16.2-37.8 76.2-38.5 88.1-38.2 16.9.3 36.6-9.8 40-15 4-6.2 11.7-13.4 13.1-14.7l15.5-20.7c1-1.3 2.8-1.6 4.1-.6s1.6 2.8.6 4.1l-15.7 20.9c-.1.1-.2.3-.4.4-.1.1-8.4 7.7-12.3 13.8-4.7 7.2-26 18.1-45 17.7-6.9-.1-67.6-.4-82.6 34.6-8.6 20.2-10.7 36.1-12.5 48.8-1.1 8.3-2.1 15.5-4.6 21.7-.8 1.9-1.6 3.9-2.4 5.9-5.7 13.7-12.7 30.6-16 45.9-2.4 11.4-6.2 17-10.6 23.4-2.7 4-5.8 8.5-9 15.2-3.5 7.4-7.9 13.9-11.8 19.7-4.7 7-9.2 13.7-8.5 17.2.1.3.6.9 2.3 1.6 7.4 2.9 23.2 1.4 25.9-.2.4-.7 0-2.4-.5-4.3-.7-2.9-1.6-6.9-1-11.9 1.2-9.6 12-38.3 21.7-48.8 2.2-2.4 5.8-5.9 10.3-10.4 13.8-13.6 36.9-36.4 45.4-51.6 10.9-19.5 9.9-50.1 9.9-50.4-.1-1.6 1.2-3 2.8-3 1.5-.1 3 1.2 3 2.8 0 1.3 1 32.5-10.6 53.4-8.9 16-31.5 38.2-46.4 52.9-4.5 4.4-8 7.9-10.1 10.2-8.7 9.4-19.1 37-20.2 45.5-.5 4 .2 7.1.9 9.9.7 3.2 1.5 6.5-.7 9.4-2 2.7-10.1 4-17.9 4z" fill="#3f0f33"/></g></g></g><g><g><g><path d="m305.9 354.7c-1.5 0-2.7-1.1-2.9-2.6-.2-1.6 1-3.1 2.6-3.3 54.1-6.3 61-56.7 61.2-58.9.2-1.6 1.7-2.8 3.3-2.6s2.8 1.7 2.6 3.3c-.1.6-7.6 57.1-66.4 64-.2.1-.3.1-.4.1z" fill="#3f0f33"/></g></g></g><g><g><g><path d="m148.5 232.4c-.5 0-.9-.1-1.4-.3-6.1-3.2-10.8-13.9-9.4-18.7.6-2.2 2.5-3.6 4.8-3.4 4.6.3 30.5 0 30.8 0 1.6 0 2.9 1.3 2.9 2.9s-1.3 3-2.9 3c-1 0-23.2.3-30 .1.3 2.7 3.1 9.2 6.5 11 1.4.8 2 2.6 1.2 4-.4.9-1.4 1.4-2.5 1.4z" fill="#3f0f33"/></g></g></g></g></g></svg>