<svg id="Layer_1" enable-background="new 0 0 512 512" height="512" viewBox="0 0 512 512" width="512" xmlns="http://www.w3.org/2000/svg"><g><g><g><g><path d="m374 252.9c-6.8-3.4-15.1-.6-18.5 6.2s-.6 15.1 6.2 18.5c.5.2 46.8 23.9 44.2 62.7-1 14.3-6.4 23.1-12.5 28.7l-.6 3c5.6-47.9-17.7-57.3-35.1-80.8-19.9-26.9-91.2-77.9-105.5-93.7-4.2-6.1-7-14.7-8.4-19.9.9-.2 1.7-.5 2.6-.8 11.7-4.8 18.6-34.2 20.7-38.7s4.8-8.1 0-19.8-12.6-42.7-29.4-49.9l-9.3-3.9s-10.8-16.9-43.1-17.1c-.1 0-.2 0-.3 0-.5 0-1.2 0-1.8 0-31.9.4-42.6 17.1-42.6 17.1l-9.3 3.9c-3 1.3-5.8 3.4-8.2 6h-.1c-11.3 11.8-17.2 34.2-21.1 43.8-4.8 11.7-2.1 15.3 0 19.8s9 33.9 20.7 38.7c11.2 4.6 24.2-1.8 26.7-13.6s.9 1.4 2.4 3.1v11.5c-1 10-2.8 24.7-4.8 29.6-3.2 7.8-17.9 32.5-12.7 59.7 5.2 27.3 3.4 86.7-4.1 114.3s-13.5 39.9-13.5 39.9-20.1 1.3-25 17.2c-.8 2.6 1.3 5.2 4 5.2h35.6c2.7 0 5.1-1.4 6.4-3.7 5.2-9.2 6.4-29.6 15.6-50.7 11.7-26.6 18-78.6 18-78.6l-.3-2.4c4.3 7.7 9.8 14.4 17.1 18.9 32.1 20 49.7 20.7 49.7 20.7l.6 3c-.1 13.7-.4 27.6 1.4 33.2 2.8 8.9-2 38.2-11.7 42.7-4.7 2.2-8.3 5.7-10.7 9-2.5 3.3-.2 8 4 8h25.3c5.7 0 10.9-3 13.8-7.8 1.3-2.2 2.3-4.5 2.3-6.3 0-1.3.4-4 1.1-7.6l38.4-4.5c-6 5.7-6.4 16.2-6.4 16.2 5.3 8.3 31.1 2.9 42.2 0 11.2-2.9 45.6-1.5 48.5-8.3s-1.7-15.7-1.7-15.7c.7-2.3 1.3-4.4 1.9-6.6l-.1.3c19.6-5.6 44.5-22.4 47.1-61.2 3.6-57-57.1-88-59.7-89.3z" fill="#fff"/></g></g></g><g><g><g><path d="m250.1 76.8c-5.4-6.6-20.8-12.5-20.8-12.5-9.9-16.1-44.5-17.1-44.5-17.1s-34.5 1-44.5 17.1c0 0-15.4 5.8-20.8 12.5-5.4 6.6-23.7 47-19.8 57s9.7 39.7 22.6 42.9 29.2-3.4 23.8-30.5c0 0 14.5-30.1 27.7-38.8 13.3-8.8-1.8-36.5 0-43.7s11-6 11-6 9.2-1.2 11 6-13.3 35 0 43.7c13.3 8.8 25.7 39.4 25.7 39.4-5.4 27.1 12.9 33.2 25.8 30s18.7-32.9 22.6-42.9c3.9-10.1-14.4-50.5-19.8-57.1z" fill="#e08c5c"/></g></g></g><g><g><g><path d="m152.1 170.9s5.9-4.2 9.8 2.3c4.1 6.8-7.8 42-10 47.9-6.1 15.7-17.9 46-17.9 46s-2.5-27.9 6.8-46.9 11.3-49.3 11.3-49.3z" fill="#e08c5c"/></g></g></g><g><g><g><path d="m218.4 167.8s-3.3 52.6 13.1 61.9 26.1-21.2 20.5-32.3-14.6-26.5-14.6-26.5z" fill="#e08c5c"/></g></g></g><g><g><g><path d="m259.9 204.9s9.4 43.8 10.5 62.2c1.1 18.3 2.1 38.6 2.1 38.6s18.8 2.4 23.4 13.5c4.6 11.2 5.3 21.2 5.3 21.2s46.1-10.7 63.9 15.7 19.3 53.5 19.3 53.5l1.8-6.3s20.9-5.4 30-18.2-12.7-32.1-12.7-32.1l-10.8 18.9s-.2-36-11.1-52.6c-10.8-16.7-34-39.5-34-39.5z" fill="#e08c5c"/></g></g></g><g><g><g><path d="m277.6 218.1s20.6 43.3 7.8 65.5c-12.8 22.1 46.5 3.4 42.2 37 0 0 49.4-5.5 60 12.8l-27.3-38.6z" fill="#7a5c64"/></g></g></g><g><g><g><path d="m381.3 291.1s22.2-11.2 12.3-25.6c-9.9-14.3-32.4-16.3-34.2-14.1-1.9 2.1-15 21 0 27.2 14.9 6.3 21.9 12.5 21.9 12.5z" fill="#7a5c64"/></g></g></g><g><g><g><path d="m183.7 131.8s-10.7.3-10.7 5.8 11.8 13.1 11.8 13.1 14.8-10 10.9-14.9c-3.9-4.7-12-4-12-4z" fill="#624b68"/></g></g></g><g><g><g><path d="m156.2 244.1s18.6 59.8 79.6 74.7l1.6 29s-89.2-13.9-81.2-103.7z" fill="#d1c5c1"/></g></g></g><g><g><g><path d="m161.7 267.1s-11.9 94.3-19.9 118.1c-7.9 23.7-11.2 44.8-17.8 47.5-6.6 2.6-28.7 11-28.7 11h35.6s6.4-.2 9-10.1 9.2-34.3 9.2-34.3 7.6-19.3 9.1-24.7 18-71 18-71z" fill="#d1c5c1"/></g></g></g><g><g><g><path d="m271.5 327.4s16.2 19.7 31.3 18.1c0 0-7.8 35 43.3 64.1 0 0-34.3-.6-44.2 7.8l-38.4 4.5z" fill="#d1c5c1"/></g></g></g><g><g><g><path d="m182.9 157.3-15.4 13.7s10 4.4 14.3 4.4c4.2 0 9.5-.4 9.5-.4l7.6-5.3z" fill="#d1c5c1"/></g></g></g><g><g><g><path d="m160.1 171.3s9.8 10.7 16 12.3c3.6.9 11.8.8 18.2.5 5.3-.2 10.1-3.1 12.9-7.6l3.9-6.4h-8.8z" fill="#d1c5c1"/></g></g></g><g><g><g><path d="m230.8 83.8-17.2 46.3 7.9 16.6 14.4-51z" fill="#bf6749"/></g></g></g><g><g><g><path d="m148.2 141.3 5.7-9.5-18.2-41.3 1.1 11.9z" fill="#bf6749"/></g></g></g><g><g><g><path d="m101.5 127.8s3.8 2.2 9 17.3c5.1 15.1 19.9 36.4 34.3 24.5 0 0-10.4 14.1-20.2 7.9s-23.1-36.2-23.1-36.2l-4.2-9.5z" fill="#bf6749"/></g></g></g><g><g><g><path d="m265.9 127.8s-3.8 2.2-9 17.3c-5.1 15.1-19.9 36.4-34.3 24.5 0 0 10.4 14.1 20.2 7.9s23.1-36.2 23.1-36.2l4.2-9.5z" fill="#bf6749"/></g></g></g><g><g><g><path d="m177.9 135.8s12.2.8 12.6 3.1-1.2 9.6-1.2 9.6 6.3-9.1 5.4-11.6c-.9-2.7-12.3-4.9-16.8-1.1z" fill="#fff"/></g></g></g><g><g><g><path d="m400.6 360.2s8.4 25.1 1.9 36.6l-16.2 6.6 7-34.5z" fill="#bf6749"/></g></g></g><g><g><g><g><path d="m129.9 181.3c-3 0-6-.6-8.8-1.7-10.7-4.4-17.2-24.5-20.7-35.3-.7-2.3-1.4-4.3-1.7-5l-.5-1.1c-2.1-4.3-4.5-9.2.5-21.3.8-2 1.8-4.7 2.8-7.7 5.2-14.9 13.2-37.4 28.3-43.8l8.5-3.6c2.8-3.7 15.5-17.7 45.6-17.7h.9c1.7 0 3.1 1.4 3.1 3.2 0 1.7-1.4 3.1-3.1 3.1-.3 0-.6 0-.9 0-30.6 0-40.9 15.5-41 15.7-.3.5-.8 1-1.4 1.2l-9.3 3.9c-12.5 5.4-20.2 27.1-24.8 40.1-1.1 3.1-2.1 5.9-3 8-3.9 9.4-2.4 12.4-.6 16.1l.6 1.2c.5 1.1 1.1 2.9 2 5.7 2.7 8.4 9.1 28.1 17.1 31.4 4.9 2 10.5 1.6 15.1-1.1 4.3-2.5 7.1-6.8 7.7-11.7.8-6.9-3.4-21.6-7.1-34.6-2.9-10.2-5.6-19.7-6.4-26.5-.7-5.8-.3-11.7 1.2-17.6.4-1.7 2.1-2.7 3.8-2.3s2.7 2.1 2.3 3.8c-1.3 5.1-1.6 10.3-1.1 15.3.7 6.3 3.4 15.6 6.2 25.5 4.1 14.2 8.3 28.9 7.3 37.1-.8 6.9-4.7 12.8-10.7 16.4-3.6 2.2-7.8 3.3-11.9 3.3z" fill="#3f0f33"/></g></g></g><g><g><g><path d="m238.6 181.3c-4.1 0-8.2-1.1-11.9-3.2-6-3.5-9.9-9.5-10.7-16.4-.9-8.2 3.2-22.9 7.3-37.1 2.8-9.9 5.5-19.3 6.2-25.5.6-5 .2-10.2-1.1-15.3-.4-1.7.6-3.4 2.3-3.8s3.4.6 3.8 2.3c1.5 5.9 1.9 11.8 1.2 17.6-.8 6.8-3.5 16.4-6.4 26.5-3.7 13-7.9 27.7-7.1 34.6.6 4.9 3.4 9.1 7.7 11.7 4.6 2.7 10.2 3.1 15.1 1.1 8-3.3 14.4-23 17.1-31.4.9-2.8 1.5-4.7 2-5.7l.6-1.2c1.8-3.7 3.3-6.7-.6-16.1-.9-2.2-1.8-4.9-3-8-4.6-13-12.3-34.8-24.8-40.2l-9.3-3.9c-.6-.2-1.1-.7-1.4-1.2-.4-.6-10.6-15.7-40.9-15.7-.3 0-.6 0-.9 0-1.7 0-3.1-1.4-3.1-3.1s1.4-3.2 3.1-3.2h.9c30.2 0 42.8 14 45.6 17.7l8.5 3.6c15.1 6.5 23 29 28.3 43.8 1.1 3.1 2 5.7 2.8 7.7 4.9 12 2.6 16.9.5 21.3l-.5 1.1c-.3.7-1 2.7-1.7 5-3.5 10.8-10 30.9-20.7 35.3-2.9 1.1-5.9 1.7-8.9 1.7z" fill="#3f0f33"/></g></g></g><g><g><g><path d="m183.7 154c-7.7 0-12.8-7.5-14.8-13.9-.6-2-.2-4.1 1.1-5.9 2.4-3.3 7.9-5.5 13.7-5.5s11.5 2.3 13.8 5.6c1.3 1.8 1.6 3.9 1 5.8-3 9-8.3 13.9-14.8 13.9zm0-19c-5 0-8.6 2.3-8.8 3.2 1.1 3.5 4.2 9.5 8.8 9.5 5 0 7.9-6.7 8.8-9.6l3 1-3-1c-.2-.9-3.8-3.1-8.8-3.1z" fill="#3f0f33"/></g></g></g><g><g><g><path d="m160.3 174.4c-.2 0-.4 0-.6 0-8-.7-13.1-9.3-13.3-9.6-.9-1.5-.4-3.4 1.1-4.3s3.4-.4 4.3 1.1c1 1.7 4.6 6.2 8.5 6.6 3.1.3 12.6-5.5 20.3-11.3v-6c0-1.7 1.4-3.1 3.1-3.1s3.1 1.4 3.1 3.1v7.5c0 1-.4 1.9-1.2 2.5-4.1 3.2-17.9 13.5-25.3 13.5z" fill="#3f0f33"/></g></g></g><g><g><g><path d="m207.1 174.4c-7.3 0-21.1-10.3-25.3-13.6-1.4-1.1-1.6-3-.5-4.4s3-1.6 4.4-.5c7.8 6.1 18.3 12.5 21.5 12.2 4-.4 7.6-5 8.5-6.6.9-1.5 2.8-2 4.3-1.1s2 2.8 1.1 4.3c-.2.4-5.4 8.9-13.3 9.6-.3.1-.5.1-.7.1z" fill="#3f0f33"/></g></g></g><g><g><g><path d="m181.1 178.7c-1.6 0-3.7-.1-5.4-.4-3.7-.7-8.2-4.3-9.1-5-1.3-1.1-1.5-3.1-.5-4.4 1.1-1.3 3.1-1.5 4.4-.5 1.6 1.3 4.7 3.4 6.3 3.7 2.2.4 5.6.3 6.7.2 1.7-.1 3.2 1.2 3.3 2.9s-1.2 3.2-2.9 3.3c-.1.2-1.2.2-2.8.2z" fill="#3f0f33"/></g></g></g><g><g><g><path d="m186.3 178.7c-1.5 0-2.7-.1-2.8-.1-1.7-.1-3-1.6-2.9-3.3s1.6-3 3.3-2.9c1.1.1 4.5.2 6.7-.2 1.5-.3 4.6-2.4 6.3-3.7 1.3-1.1 3.3-.9 4.4.5 1.1 1.3.9 3.3-.5 4.4-.9.7-5.4 4.3-9.1 5-1.7.2-3.8.3-5.4.3z" fill="#3f0f33"/></g></g></g><g><g><g><circle cx="156.2" cy="100.1" fill="#3f0f33" r="7.2"/></g></g></g><g><g><g><circle cx="211.2" cy="100.1" fill="#3f0f33" r="7.2"/></g></g></g><g><g><g><path d="m309.5 441.1c-7.5 0-13.9-1.5-16.7-5.8-.3-.5-.5-1.2-.5-1.8 0-.7.7-16 11.5-21.2 9.7-4.6 38.3-6.5 39.5-6.6 1.8-.1 3.2 1.2 3.3 2.9s-1.2 3.2-2.9 3.3c-7.9.5-30.1 2.6-37.2 6-6 2.8-7.5 11.5-7.8 14.6 4.1 3.7 19.3 2.9 38.2-2 4.3-1.1 11.7-1.6 19.4-2.1 8.8-.6 25.2-1.7 27.1-4.4 2.2-5.2-1.6-12.9-1.6-12.9-.4-.7-.5-1.6-.2-2.3 19.4-65.2 4-81.8-13.8-101-4.2-4.5-8.6-9.3-12.6-14.7-12-16.3-43.9-42-69.4-62.8-22.4-18.2-35.3-28.7-38.3-33.9-7.1-11.9-7.8-17.7-7.8-18.3-.2-1.7 1.1-3.3 2.8-3.4 1.8-.2 3.2 1.1 3.4 2.8 0 .2.7 5.2 7 15.7 2.6 4.4 19.3 17.9 36.9 32.2 25.8 20.9 58 47 70.5 63.9 3.9 5.2 8.1 9.8 12.2 14.2 18.2 19.6 35.4 38.2 15.5 105.9 1.3 2.9 4.1 10.6 1.3 17.2-2.5 5.8-13.9 6.8-32.4 8.1-7.4.5-14.4 1-18.2 2-8.3 2-19.6 4.4-29.2 4.4z" fill="#3f0f33"/></g></g></g><g><g><g><path d="m365.2 420.6c-.3 0-.6 0-.9-.1-2.5-.7-61.4-18.4-65.9-63.4-1.1-11.2 1.6-20.4 8.2-27.3 14.2-14.9 40.9-13.7 42-13.6 1.7.1 3.1 1.6 3 3.3s-1.6 3-3.3 3c-.3 0-25-1.1-37.2 11.7-5.3 5.5-7.5 13.1-6.5 22.4 4.1 40.7 60.9 57.8 61.4 58 1.7.5 2.6 2.2 2.1 3.9-.3 1.2-1.6 2.1-2.9 2.1z" fill="#3f0f33"/></g></g></g><g><g><g><path d="m130.9 446.8h-35.6c-2.3 0-4.5-1.1-5.9-3-1.4-1.8-1.8-4.1-1.1-6.3 4.6-14.8 20.4-18.4 25.9-19.2 1.8-4 6.8-16.2 12.6-37.8 7.1-26.4 9.2-85.5 4-112.9-4.7-24.5 5.9-46.8 11-57.6.8-1.6 1.4-2.9 1.8-4 2.5-6 4.8-29.9 5.5-38.6.1-1.7 1.6-3 3.4-2.9 1.7.1 3 1.6 2.9 3.4-.3 3.3-2.6 32.5-6 40.5-.5 1.1-1.1 2.5-2 4.3-4.8 10.1-14.8 31.2-10.5 53.7 5.5 28.6 3.3 88.1-4.1 115.7-7.5 27.6-13.5 39.9-13.8 40.4-.5 1-1.5 1.7-2.6 1.7-.2 0-18 1.4-22.2 15-.1.3 0 .6.1.7s.4.4.8.4h35.6c1.5 0 2.9-.8 3.7-2.1 2.1-3.8 3.7-10.3 5.4-17.7 2.2-9.3 4.9-20.9 10.1-32.7 11.4-25.9 17.7-77.2 17.8-77.7.2-1.7 1.8-2.9 3.5-2.7s2.9 1.8 2.7 3.5c-.3 2.1-6.5 52.7-18.3 79.4-4.9 11.3-7.6 22.6-9.7 31.6-1.9 8.3-3.5 14.8-6.1 19.4-1.6 3.4-5.1 5.5-8.9 5.5z" fill="#3f0f33"/></g></g></g><g><g><g><path d="m237.4 351h-.1c-.8 0-18.8-1.1-51.2-21.2-33.2-20.7-33-83.6-33-86.3 0-1.7 1.4-3.1 3.1-3.1 1.7 0 3.1 1.4 3.1 3.2 0 .6-.2 62.1 30 80.9 30.8 19.2 48 20.3 48.2 20.3 1.7.1 3.1 1.6 3 3.3 0 1.6-1.4 2.9-3.1 2.9z" fill="#3f0f33"/></g></g></g><g><g><g><path d="m246.3 446.8h-25.3c-3.1 0-5.9-1.7-7.2-4.5-1.4-2.8-1.1-6.1.8-8.6 2.3-3.1 6.2-7.3 11.9-10 7.5-3.5 12.7-30.4 10-38.9-1.7-5.5-1.7-16.8-1.6-30 .1-9.4.1-19-.5-26.2-1.5-16-9.2-30.4-9.3-30.6-.8-1.5-.3-3.4 1.3-4.3 1.5-.8 3.4-.3 4.3 1.3.3.6 8.4 15.7 10.1 33 .7 7.5.6 17.3.6 26.8-.1 11.6-.2 23.5 1.3 28 2.9 9.1-1.3 40.9-13.4 46.5-4.5 2.1-7.7 5.5-9.5 8-.6.9-.3 1.7-.2 2s.6 1 1.6 1h25.3c4.6 0 8.8-2.4 11.1-6.3 1.7-2.9 1.9-4.3 1.9-4.7 0-2.1.7-6 1.8-11.9 1.8-10 4.6-25.2 4.3-36.3-.1-5.3.6-16.2 1.6-30.1 2-29 5.2-77.5 0-87.4-.8-1.5-.2-3.4 1.3-4.2s3.4-.2 4.2 1.3c5.6 10.6 3.6 47.3.7 90.7-.9 13.2-1.7 24.6-1.5 29.6.3 11.7-2.5 27.3-4.4 37.6-.9 4.8-1.7 9.3-1.7 10.8 0 2.2-.9 4.8-2.7 7.9-3.7 5.9-10.1 9.5-16.8 9.5z" fill="#3f0f33"/></g></g></g><g><g><g><path d="m274.4 306.7c-.7 0-1.5-.3-2.1-.8-1.3-1.1-1.4-3.1-.3-4.4 8.1-9.3 11.4-23.4 11.5-23.6.4-1.7 2.1-2.7 3.8-2.4 1.7.4 2.7 2.1 2.4 3.8-.1.6-3.7 15.9-12.9 26.3-.7.8-1.5 1.1-2.4 1.1z" fill="#3f0f33"/></g></g></g><g><g><g><path d="m263.2 426.3c-1.5 0-2.8-1.1-3.1-2.6-.3-1.7.9-3.3 2.6-3.6l39.6-6.6c1.7-.3 3.3.9 3.6 2.6s-.9 3.3-2.6 3.6l-39.6 6.6c-.2 0-.3 0-.5 0z" fill="#3f0f33"/></g></g></g><g><g><g><path d="m309.8 405.1c-.2 0-.5 0-.7-.1-30.8-7.4-42.4-34.3-42.9-35.5-.7-1.6.1-3.4 1.7-4.1s3.4.1 4.1 1.7c.2.4 11 25.1 38.6 31.8 1.7.4 2.7 2.1 2.3 3.8-.4 1.5-1.7 2.4-3.1 2.4z" fill="#3f0f33"/></g></g></g><g><g><g><g><path d="m386.3 406.5c-1.4 0-2.6-.9-3-2.3-.5-1.7.5-3.4 2.2-3.9 12.5-3.5 42-16.3 44.9-58.4 3.8-54.9-55.1-85-57.6-86.3-2.6-1.3-5.4-1.5-8.1-.6s-4.9 2.8-6.2 5.4c-2.6 5.3-.5 11.7 4.8 14.3.5.2 48.7 24.7 45.9 65.7-.9 13.2-5.5 23.6-13.6 30.8-1.3 1.2-3.3 1-4.4-.3-1.2-1.3-1-3.3.3-4.4 6.8-6.1 10.7-15 11.5-26.5 2.5-36.6-42-59.4-42.4-59.7-8.4-4.2-11.8-14.4-7.6-22.7 2-4 5.5-7.1 9.8-8.5s8.9-1.1 12.9.9c2.7 1.3 65.2 33.3 61.1 92.3-3.2 46.1-35.6 60.1-49.4 64-.6.2-.9.2-1.1.2z" fill="#3f0f33"/></g></g></g></g></g></g></svg>