<svg id="Layer_1" enable-background="new 0 0 512 512" height="512" viewBox="0 0 512 512" width="512" xmlns="http://www.w3.org/2000/svg"><g><g><g><g><path d="m71.9 465.1s36.1 3.9 42.9-2.8c6.9-6.6 3.4-19 10.9-30.8 7.4-11.7 34.8-101.3 34.8-101.3l1.4 1.1c7.9 8.4 17.7 16.5 29.2 22.1l5.7 4.3c-.9 5.2-2 9.8-3.1 13.4-5.5 18.8-11.3 75.1-16.8 83.5s-20.7 29.1-14.2 35.6 35.8-2.6 44-3.3.6-16.1 0-43.3c0-1.3 0-2.6.1-4 1.3 1.6 2.3 2.6 2.3 2.6s82.8-1.5 89.8-5.1l1-.8c1.6 1.2 3.2 2.4 4.7 3.4.7.4 1.3.8 1.9 1.2 2.9 13.3-25.9 10.5-37.5 13.3s-10.3 16.7-10.3 16.7c-1.9 19.3 96.2 1.4 98.2-9.6s-15.7-21.1-15.7-21.1c2.8-5.6 5.1-11 6.9-16.2v.1c7.4 6 21.4 14.8 40.2 15.1h1.8c16.2 0 40.8-4 58.9-7 8.6-1.4 18.3-3 20.7-3 4.3.4 8.3-2.6 8.8-6.8.6-4.3-2.6-8.2-7-8.7-3.3-.4-8.9.4-25.3 3.1-18.2 3-43.1 7-57.7 6.8-14.9-.3-28.9-10.4-35.9-16.3 8.9-46.5-19.1-71.6-19.1-71.6-17.2-49.8-82.4-139.9-82.4-139.9-1.4-11.9-16.7-28.1-16.7-28.1 1-7.5-7.8-39.4-7.8-39.4l-1.1.8c13-20 7.2-44.2 7.2-51.5 0-8.9 6.3-16.3 6.3-16.3.3-.8.5-1.6.7-2.4.8 1.2 1.5 2.4 2.3 3.6 8.6 14.2 21.8 27.1 22.8 24.1s-2.6-14.5 1-27.1-5.6-16.5-14.5-23.5c-8.9-6.9-23.8-8.9-32.6-8.4-8.8.6-9 1.8-9 1.8s-20.2-.3-23.8-1.3-7.6 0-7.6 0-16.3.4-25.3 2.4c-9.1 2-13.4.4-25.2 4.3s-28.4 9.9-30.8 16.6 2 26.8 4.7 31.1c2.8 4.3 12.2 11.3 12.2 17.1 0 4.4 5.9 2 8.4-7.1s6.4 18.9 14.2 32.3c.3.4.6.9.9 1.3-.5 2.7-.8 5.6-.9 8.7-.1 9.6 2.1 13.6 5.4 14.9l-.2.9s-56.7 72.7-14.9 148c0 0-6.3 33.5-6.3 55.5s-15.5 86.1-27.5 91-21.6 9.5-21.1 20zm137.2-44.9c1.4-7.5 3.4-15.7 5.9-24.6.1.5 2.9 13.5 17.2 24.6-5.4 3.1-23.1 0-23.1 0z" fill="#e08c5c"/></g></g></g><g><g><g><path d="m176.4 83.8s13.3-3.8 20.7 11.1c0 0 27 20.6 13.6 55.6l-25.4-3.4s-16.1.5-19.4.1-24 8.5-26.6.4-2.1-38.4 17.9-55.2c0 .1 7.6-10 19.2-8.6z" fill="#5b4d60"/></g></g></g><g><g><g><path d="m211.2 72.8c-4.9-4.9-13.2-4.7-17.5.8-2.9 3.8-3.5 9.5 3.3 17.9 14.3 17.8 36 3.4 14.2-18.7z" fill="#5b4d60"/></g></g></g><g><g><g><path d="m141.7 72.8c4.9-4.9 13.2-4.7 17.5.8 2.9 3.8 3.5 9.5-3.3 17.9-14.4 17.8-36.1 3.4-14.2-18.7z" fill="#5b4d60"/></g></g></g><g><g><g><path d="m209.7 29.6s13.2-7.4 29.4.7 27 15.2 26 25.9 4.7 31.4-.2 30.5-15.7-12.8-25.1-27.7-22.2-18.3-22.2-18.3-11.4-.7-7.9-11.1z" fill="#5b4d60"/></g></g></g><g><g><g><path d="m138.2 32.3s5.9 5-1.6 10.6-13.7 20.3-12.8 26.4-1.8 36.4-7.5 31.9c-5.8-4.5-8.1-12.5-14.5-18.6s-7.1-32.1 0-36.4 36.4-13.9 36.4-13.9z" fill="#5b4d60"/></g></g></g><g><g><g><path d="m206 175.9s29.4-18.1 26.1-28.6-4.4-22-4.4-22 7.9-16.3 4.6-32.9c0 0-12.8 28.5-23.3 24.8 0 0 6.2 8 1.6 33.3.1.1 3 17.9-4.6 25.4z" fill="#bf6749"/></g></g></g><g><g><g><path d="m144.1 108.7s-20.9-15.7-20.6-27.5c0 0 1.9 35.7 12.6 40.4z" fill="#bf6749"/></g></g></g><g><g><g><path d="m248.6 276.7s9.9 38.2 47.6 56.8c0 0-34.9 1.7-37.5 23s17.9 65 41.2 80l-93.2 7.3 2.4-23.6s23.7 2.9 23.1 0-17.6-14-17.2-24.6 32-93.7 33.6-118.9z" fill="#bf6749"/></g></g></g><g><g><g><path d="m140.4 299s-3.9 51.4-8.1 68.2-10 64.3-10 64.3 42.3-96.1 38.2-101.3c-4.1-5.1-20.1-31.2-20.1-31.2z" fill="#bf6749"/></g></g></g><g><g><g><path d="m376.8 421.6-2.9 15.7-25.8-13.1 4.6-16.8z" fill="#bf6749"/></g></g></g><g><g><g><path d="m344.5 442.4s3.5 12.6-9.4 16.5c-12.9 4-68.3 9-74.2 7.2 0 0-8.9 12.3 14.4 13.4 23.2 1.1 82.7-5.8 81.7-18.2-1.1-12.2-12.5-18.9-12.5-18.9z" fill="#bf6749"/></g></g></g><g><g><g><path d="m211 163.3s-9.6 6.6-17.3 5.8-3.4-21.3-3.4-21.3l20.4 2.7z" fill="#bf6749"/></g></g></g><g><g><g><path d="m201.5 149.7s.6 18.1-9.6 26.7-17.3 41.5-10.4 41.6c4.2.1 12.7-2.1 17.1-1.7 5.2.5 9.3 4.6 9.3 9.8 0 10.4-2.4 24.8-14.1 34.2-20.2 16-1 38.7-1 38.7s11.8 50.5 4.4 57.2c0 0-54.4-31.5-61.1-62.8s1.4-20.4-9.8-29c-11.2-8.5-16.1-47.3-11.2-55 5-7.7 26.5 13.2 34.4 4s1.7-58.5-3.9-63.7l20.4-2.3c-.1 0 32.4 7.4 35.5 2.3z" fill="#fff"/></g></g></g><g><g><g><path d="m188.4 293.3s-50.6-16.3-37.2-53c0 0-23.6 29-13 57.5s51.7 62.4 58.9 58.4c7.2-4.1 0-59.3-8.7-62.9z" fill="#d1c5c1"/></g></g></g><g><g><g><path d="m146.8 149.5 14.4-1.2s4.9 1.3 10.2 1.4c23.9-3.5 27.9 3.9 30.2 0 0 0 .3 9.8-3.6 18.4-7.7 2.3-18.5 4.3-29.6 1.9-20.7-4.5-21.6-20.5-21.6-20.5z" fill="#d1c5c1"/></g></g></g><g><g><g><path d="m189.1 137.4s-9.2-7-12.7-6.5c-3.5.4-13.1 7.8-13.1 7.8s2.6 9.3 11.5 10.5c9 1.2 13.8-5.5 14.3-11.8z" fill="#43344c"/></g></g></g><g><g><g><path d="m207.8 110.3s1.2 21.3-7.8 22-9 .7-9 .7l-1.9 12.2s18.9 10.9 23.4 4.4c4.6-6.4-4.7-39.3-4.7-39.3z" fill="#43344c"/></g></g></g><g><g><g><path d="m142.4 110.3s-1.2 21.3 7.8 22c9.1.7 9.1.7 9.1.7l1.9 12.2s-18.9 10.9-23.4 4.4c-4.6-6.4 4.6-39.3 4.6-39.3z" fill="#43344c"/></g></g></g><g><g><g><path d="m114.3 92.5s-3.5-6.7-7.6-11.4-5.7-26.8-4.3-29.9 13.8-9.2 13.8-9.2-18 3.6-19.2 9.3-.4 25 4.7 31.1c5.1 6.3 12.6 10.1 12.6 10.1z" fill="#fff"/></g></g></g><g><g><g><path d="m243.1 34.6s16 10.9 17.6 17.6c1.6 6.6 2.1 16.2 2.1 16.2s5.3-16.8 0-23-19.7-10.8-19.7-10.8z" fill="#fff"/></g></g></g><g><g><g><path d="m301.8 334.4s-40.2 4.6-37.9 30.8c2.3 26.3 14.2 48.3 14.2 48.3s-24.8-38.3-18.8-59.2c5.9-20.9 42.5-19.9 42.5-19.9z" fill="#fff"/></g></g></g><g><g><g><g><path d="m115.5 104.9c-.8 0-1.5-.2-2.2-.6-1.6-.9-2.5-2.6-2.5-4.7 0-2.6-4-6.8-6.9-9.8-1.9-2-3.7-3.9-4.8-5.6-3.2-5-7.8-26.1-5-33.9 2.5-7.1 14.9-12.6 32.7-18.5 7.6-2.5 12.2-2.9 16.8-3.3 2.8-.2 5.5-.4 8.8-1.2 8.7-1.9 23.1-2.2 25.6-2.3 1.3-.3 5.1-.9 8.8.1 2.1.6 13.8 1 21.9 1.2 1.8-.9 4.9-1.4 9.8-1.7 10.3-.6 25.6 1.9 34.8 9 1.3 1 2.7 2 4 2.9 7.6 5.5 15.4 11.1 11.7 23.9-2.2 7.7-1.5 15.2-1 20.2.3 3.2.5 5.4 0 7-.5 1.4-1.7 2.4-3.2 2.6-6 .6-19.6-16.6-25.3-26-8.7-14.5-17.4-21-20.7-21-1.7 0-3.1-1.4-3.1-3.1s1.4-3.1 3.1-3.1c7 0 17.3 9.4 26.1 24 5.7 9.4 12.8 17.3 16.9 20.9 0-.2 0-.4-.1-.6-.5-5.5-1.3-13.7 1.2-22.6 2.4-8.2-1.4-11.3-9.3-17-1.4-1-2.7-2-4.1-3.1-8.4-6.5-22.9-8.2-30.5-7.7-4.7.3-6.5.8-7.1 1-.6.5-1.4.8-2.2.8-3.4-.1-20.7-.4-24.6-1.4-2.8-.8-6 0-6 0-.2.1-.5.1-.7.1s-16 .2-24.7 2.1c-3.8.8-6.7 1.1-9.6 1.3-4.3.3-8.4.7-15.3 3-6.7 2.2-26.8 8.9-28.8 14.6s2.1 24.7 4.4 28.4c.8 1.2 2.3 2.8 4 4.6 3.4 3.6 7.3 7.6 8.4 11.8 1.7-2.2 3.9-7.1 3.5-15.4-1-22 5.6-38.2 17.7-43.2 1.6-.7 3.4.1 4.1 1.7s-.1 3.4-1.7 4.1c-9.5 4-14.7 17.9-13.8 37.2.5 11.7-3.6 19.7-7.8 22.3-1.1.6-2.3 1-3.3 1zm97.3-74.9c0 .2-.1.3-.1.5 0-.2.1-.3.1-.5z" fill="#3f0f33"/></g></g></g><g><g><g><path d="m186.9 104.3c-1.4 0-2.4-.4-3.2-.8-3.9-2.2-4.7-7.8-4.9-8.9-.2-1.7 1.1-3.3 2.8-3.5s3.3 1 3.5 2.8c.2 1.6 1 3.7 1.7 4.1.2.1.7 0 1.2-.3 1.7-.8 3.4-2.7 3.1-4.4-.4-2.2-4.5-5.2-15-6.4-1.7-.2-3-1.8-2.7-3.5.2-1.7 1.8-3 3.5-2.7 15.6 1.8 19.7 7.3 20.4 11.6.8 5-2.8 9.3-6.6 11-1.4.7-2.7 1-3.8 1z" fill="#3f0f33"/></g></g></g><g><g><g><path d="m165.9 104.3c-1.1 0-2.3-.2-3.7-.9-3.8-1.8-7.4-6-6.6-11 .7-4 4.3-9.1 17.7-11.2v-16.4c0-1.7 1.4-3.1 3.1-3.1s3.1 1.4 3.1 3.1v19.1c0 1.6-1.2 2.9-2.8 3.1-10.5 1.2-14.6 4.2-15 6.4-.3 1.7 1.4 3.5 3.1 4.4.4.2.9.4 1.2.3.8-.4 1.5-2.7 1.7-4.1.2-1.7 1.8-3 3.5-2.8s3 1.7 2.8 3.5c-.1 1.1-.9 6.7-4.9 8.9-.8.3-1.9.7-3.2.7z" fill="#3f0f33"/></g></g></g><g><g><g><path d="m176.2 152.8c-1.6 0-3-1.2-3.1-2.9s1.1-3.2 2.9-3.4c9.1-.8 10.7-3.9 12.8-9.2.7-1.8-5.5-8.8-14.3-14.8-1.4-1-1.8-2.9-.8-4.4 1-1.4 2.9-1.8 4.4-.8 6 4.1 19.7 14.4 16.6 22.2-3 7.8-6.8 12.3-18.1 13.2-.2.1-.3.1-.4.1z" fill="#3f0f33"/></g></g></g><g><g><g><path d="m176.2 152.8c-.1 0-.2 0-.3 0-11.3-1-15.1-5.4-18.1-13.2-2.8-7.3 8.8-16.7 15.2-21.3v-11.1c0-1.7 1.4-3.1 3.1-3.1s3.1 1.4 3.1 3.1v12.8c0 1-.5 2-1.4 2.6-8.8 5.9-15 12.9-14.3 14.8 2.1 5.4 3.7 8.5 12.8 9.2 1.7.1 3 1.7 2.9 3.4 0 1.6-1.4 2.8-3 2.8z" fill="#3f0f33"/></g></g></g><g><g><g><path d="m205.6 153.5c-3 0-6.2-.8-9.3-1.6-4-1-8.1-2-10.9-1.1-1.7.5-3.4-.3-4-2-.5-1.6.3-3.4 2-4 4.5-1.5 9.6-.2 14.4 1 4.5 1.1 8.8 2.2 10.9.5 1.3-1 2.8-3.9 2.7-11.6-.3-25.6-19-39.7-19.1-39.8-1.4-1-1.7-3-.7-4.4s3-1.7 4.4-.7c.9.6 21.4 15.9 21.7 44.8.1 8.5-1.5 13.7-5.1 16.6-2.1 1.8-4.5 2.3-7 2.3z" fill="#3f0f33"/></g></g></g><g><g><g><path d="m145 153.1c-2.3 0-4.5-.5-6.5-2-3.6-2.7-5.2-7.9-5.1-16.4.3-28.9 22.5-44.2 23.4-44.9 1.4-1 3.4-.6 4.4.8s.6 3.4-.8 4.4c-.2.1-20.4 14.2-20.7 39.7-.1 7.6 1.4 10.3 2.6 11.3 2 1.5 6.4.3 10.6-.9 4.9-1.4 10-2.8 14.7-1.3 1.6.5 2.5 2.3 2 4-.5 1.6-2.3 2.5-4 2-2.8-.9-7 .2-11 1.4-3.2 1-6.5 1.9-9.6 1.9z" fill="#3f0f33"/></g></g></g><g><g><g><path d="m214.2 144.5c-.9 0-1.9-.4-2.5-1.2-1.1-1.4-.8-3.3.6-4.4 21.7-16.7 19.1-42.8 17.8-55.4-.2-2.4-.4-4.4-.4-5.8 0-9.9 6.7-18 7-18.3 1.1-1.3 3.1-1.5 4.4-.4s1.5 3.1.4 4.4c-.1.1-5.5 6.7-5.5 14.3 0 1.2.2 3 .4 5.2 1.4 13.7 4.3 42.2-20.2 61-.6.4-1.3.6-2 .6z" fill="#3f0f33"/></g></g></g><g><g><g><path d="m136.6 127.9c-.6 0-1.3-.2-1.8-.6-13.6-9.9-15.4-33.6-15.5-34.6-.1-1.7 1.2-3.2 2.9-3.4 1.7-.1 3.2 1.2 3.4 2.9 0 .2 1.7 21.8 12.9 30 1.4 1 1.7 3 .7 4.4-.7.9-1.7 1.3-2.6 1.3z" fill="#3f0f33"/></g></g></g><g><g><g><circle cx="206.5" cy="74.5" fill="#3f0f33" r="7.7"/></g></g></g><g><g><g><circle cx="149.5" cy="74.5" fill="#3f0f33" r="7.7"/></g></g></g><g><g><g><path d="m280.4 482.7c-3.8 0-7.1-.2-10-.6-12.7-1.7-15.1-6.9-14.8-11-.4-5.8 1.6-17.1 12.7-19.8 3.4-.8 7.9-1.2 12.7-1.5 8.1-.6 19.2-1.5 22-5.1.4-.5.8-1.3.4-2.9-.4-1.7.7-3.4 2.4-3.7 1.7-.4 3.4.7 3.7 2.4.6 3 .1 5.8-1.5 8-4.4 5.9-15.6 6.8-26.5 7.6-4.6.4-8.9.7-11.7 1.4-8.8 2.1-7.9 12.9-7.9 13.4v.6c-.1 1.4 1.4 2.6 4.5 3.5 20.9 6.3 83.9-7.3 87.5-14.2 1.2-7-10.2-15.3-14.3-17.7-1.4-.8-2-2.6-1.2-4.1 32.4-64.6-6.5-100.4-6.9-100.7-.4-.4-.7-.8-.9-1.3-16.8-48.8-81.4-138.2-82-139.1-.3-.4-.5-.9-.6-1.5-1.1-8.9-11.8-22.1-15.8-26.4-.6-.7-.9-1.6-.8-2.5.6-5-4.4-26-7.7-38.1-.5-1.7.5-3.4 2.2-3.9s3.4.5 3.9 2.2c.9 3.1 8 29.5 8 39 3.4 3.7 14.7 17.1 16.5 28.1 6.3 8.7 65.3 91.3 82.2 139.4 5.1 5.1 38.9 42.4 9 105 5.3 3.6 16.6 12.4 14.8 22.8-2.1 10.7-51.9 20.7-79.9 20.7z" fill="#3f0f33"/></g></g></g><g><g><g><path d="m171.7 495.8c-5 0-8.8-.9-11.2-3.2-7.1-7.1 2-22 11.8-36.7.7-1.1 1.4-2.1 1.9-2.9 2.7-4.2 6.2-26 9-43.4 2.5-15.9 4.9-30.9 7.4-39.2 5.5-18.9 11.3-62.5-6.3-76.4-1.4-1.1-1.6-3.1-.5-4.4 1.1-1.4 3.1-1.6 4.4-.5 21.8 17.3 13.5 65.9 8.4 83.1-2.3 8-4.8 23.5-7.2 38.5-4 25.3-6.7 40.9-10 45.9-.6.9-1.2 1.9-2 3-4.1 6.1-16.6 24.7-12.6 28.7 3.6 3.6 22.1-.4 31-2.3 4.5-1 8.1-1.7 10.4-1.9.4 0 .5-.1.5-.1 1-1 0-7.8-.8-13.2-1-7.1-2.3-15.9-2.6-26.8-.5-24 10.9-59.4 26.6-108.3 2.5-7.6 5-15.6 7.6-23.8 18.7-58.8 5.1-84.3 5-84.6-.8-1.5-.3-3.4 1.2-4.3 1.5-.8 3.4-.3 4.3 1.2.6 1.1 15.2 27.8-4.4 89.6-2.6 8.3-5.2 16.2-7.6 23.9-15.6 48.3-26.8 83.3-26.3 106.3.2 10.5 1.5 19.1 2.5 26 1.3 9.1 2.2 14.7-.5 18-.8 1-2.3 2.2-4.9 2.5-2 .2-5.5.9-9.7 1.8-9.6 1.8-18.6 3.5-25.4 3.5z" fill="#3f0f33"/></g></g></g><g><g><g><path d="m92.7 469.4c-9.2 0-18-.9-21-1.2-1.5-.2-2.7-1.4-2.8-2.9-.7-13.1 12-18.3 23.1-22.9 9.2-3.8 25.5-64.1 25.5-88.1 0-20.1 5-48.9 6.1-55-41.3-75.9 15.1-149.8 15.7-150.5 1.1-1.4 3-1.6 4.4-.5s1.6 3 .5 4.4c-.6.7-54.9 72-14.6 144.6.4.6.5 1.4.3 2.1-.1.3-6.2 33.5-6.2 54.9 0 21.1-15 88-29.4 93.9-10.8 4.5-17.9 7.9-19.1 14.1 14.3 1.3 33.7 1.4 37.5-2.2 2.7-2.6 3.4-6.8 4.3-12 1-5.6 2.1-11.9 6.1-18.2 5.9-9.3 26.8-75.7 34.4-100.5.5-1.7 2.2-2.6 3.9-2.1s2.6 2.3 2.1 3.9c-1.1 3.7-27.5 90.1-35.1 102-3.3 5.3-4.3 10.7-5.2 15.9-1 5.8-2 11.3-6.2 15.4-3.9 3.8-14.3 4.9-24.3 4.9z" fill="#3f0f33"/></g></g></g><g><g><g><path d="m197.1 359.3c-.4 0-.8-.1-1.2-.2-41.2-16.3-61.9-62.5-62.8-64.5-.7-1.6 0-3.4 1.6-4.1s3.4 0 4.1 1.6c.2.5 20.6 45.9 59.3 61.2 1.6.6 2.4 2.5 1.8 4.1-.4 1.1-1.6 1.9-2.8 1.9z" fill="#3f0f33"/></g></g></g><g><g><g><path d="m193.7 194.3c-.9 0-1.8-.4-2.4-1.1-1.1-1.3-.9-3.3.4-4.4 16.3-13.5 15.9-39.7 15.9-39.9 0-1.7 1.3-3.2 3.1-3.2h.1c1.7 0 3.1 1.4 3.1 3.1 0 1.2.5 29.5-18.2 44.9-.6.3-1.3.6-2 .6z" fill="#3f0f33"/></g></g></g><g><g><g><path d="m273.1 429.1c-.5 0-1.1-.1-1.6-.4-28.5-16.3-49.5-60.4-50.3-62.3-.7-1.6-.1-3.4 1.5-4.2 1.6-.7 3.4-.1 4.2 1.5.2.4 21 44.2 47.8 59.5 1.5.9 2 2.8 1.2 4.3-.7 1.1-1.7 1.6-2.8 1.6z" fill="#3f0f33"/></g></g></g><g><g><g><path d="m254.7 434.7c-.3 0-.6 0-.9-.1-36.1-10.9-41.7-37.3-41.9-38.4-.3-1.7.8-3.4 2.5-3.7s3.3.8 3.7 2.5c.2 1 5.3 23.8 37.6 33.6 1.7.5 2.6 2.3 2.1 3.9-.5 1.3-1.7 2.2-3.1 2.2z" fill="#3f0f33"/></g></g></g><g><g><g><path d="m223.5 424.7c-6.3 0-13-1.1-15-1.4-1.7-.3-2.8-1.9-2.5-3.6s1.9-2.9 3.6-2.5c6.9 1.2 17.9 2.1 21 .4 1.5-.9 3.4-.4 4.3 1.1s.4 3.4-1.1 4.3c-2.4 1.3-6.3 1.7-10.3 1.7z" fill="#3f0f33"/></g></g></g><g><g><g><path d="m209.1 445.6c-1.7 0-3.1-1.4-3.1-3.1s1.3-3.2 3.1-3.2c39.5-.7 83.9-2.6 88.5-4.8 1.6-.7 3.4-.1 4.2 1.4s.2 3.4-1.3 4.2c-7.4 3.8-77.4 5.2-91.4 5.5z" fill="#3f0f33"/></g></g></g><g><g><g><path d="m319.2 450.8c-.4 0-.7-.1-1.1-.2-.3-.1-6.6-2.4-15.2-8.2-15.4-10.3-35.9-29.8-45.6-64.3-4.2-15-2.6-26.8 4.8-35.2 16.1-18.2 53.6-12.5 55.1-12.3 1.7.3 2.9 1.9 2.6 3.6s-1.9 2.9-3.6 2.6c-.4-.1-35.7-5.3-49.5 10.2-5.9 6.7-7.1 16.5-3.4 29.3 9.2 32.7 28.5 51.1 43.1 60.8 8 5.3 13.8 7.4 13.9 7.5 1.6.6 2.5 2.4 1.9 4-.5 1.4-1.8 2.2-3 2.2z" fill="#3f0f33"/></g></g></g><g><g><g><g><path d="m390.1 442.5c-.6 0-1.3 0-1.9 0-20.1-.4-35-10.1-42.1-15.8-1.3-1.1-1.5-3.1-.5-4.4 1.1-1.3 3.1-1.6 4.4-.5 6.5 5.2 20 14.1 38.3 14.4h1.7c15.9 0 40.4-4 58.3-6.9 10.3-1.7 17.5-2.8 20.5-3 .3-.1.7-.1 1 0h.1c2.7.2 5.1-1.6 5.4-4.1.2-1.2-.2-2.4-.9-3.3-.8-1-2-1.7-3.4-1.9-2.9-.3-8.6.5-24.4 3.1-17.2 2.8-43.1 7-58.2 6.8-22.3-.4-36.3-16.1-36.5-16.3-1.1-1.3-1-3.3.3-4.4s3.3-1 4.4.3c.2.3 12.6 13.8 31.9 14.2 14.4.3 40.1-3.9 57.1-6.7 16.5-2.7 22.4-3.6 26.2-3.1 3 .4 5.7 1.9 7.6 4.3 1.8 2.3 2.6 5.1 2.2 8-.8 5.8-6 10-12 9.5-2.4.1-12.6 1.7-20.1 3-18.2 2.7-43 6.8-59.4 6.8z" fill="#3f0f33"/></g></g></g></g></g></g></svg>