<svg id="Layer_1" enable-background="new 0 0 512 512" height="512" viewBox="0 0 512 512" width="512" xmlns="http://www.w3.org/2000/svg"><g><g><g><g><path d="m390.2 421.8c-7.6-2.2-15.9-19.4-12.1-29.2 3.8-9.9 3.2-22.6 10.2-38.8s10.5-37.8 10.1-46.7 4.8-11.1 11.5-39.7c5.9-25.4-16.6-57.9-19.5-67.5l-.1-2.5c2.2-2.4 2.9-5.6 2.9-8.7.7-3.7.9-8-.6-12 1.7-1.4 1.7-5.8.8-11.6s9.7-25.6 7-50.2c-1.1-9.8-8.4-22.8-17.9-34.5 5.2-1.7 3-6.8 5-9.7 1.9-2.9 13.4-4.5 13.4-4.5 3.6-11.9-15.3-28.5-29.8-28.7-14.4-.3-32.1 13.7-32.1 13.7-16.7 5.4-21.1 8.9-24 8.9 0 0-16.9-1.7-30.5 8 0 0-31.2-16.1-44-4-6.4 6-9.7 14.6-11.1 22.2l3.8.4c7.8 2 9 11 13 22 4.6 12.5 13.2 8.4 13.2 8.4l1.2-2.4c-3.4 14.4-4.7 29.6-2.7 42 .4 2.7 1.2 5.4 2 8-1.1 1.4-2.4 3-3.7 4.8-3.8 5-9.1 12.9-9.4 18.7 0 .1 0 .1-.1.2-.5 2.6-3.4 5.1-6.9 7.7-7.5 2.5-18.5 8.3-26.4 25.9-4.4 9.8-15.6 8.7-70.4 60s-50.2 82-43.6 99.6c6.6 17.7-16.8 50.4 1.8 60.5 15.2 8.3 68.8 9.8 87.8 10.1 4.1.1 7.4-3.3 7.1-7.4-.2-3.7-1.1-8.2-3.6-12.3 4.2-.2 6.7-.4 6.7-.4h48.2c7.6 0 11-9.7 5-14.3-4.5-3.4-10.8-6.5-19.8-8.2l-1.6-1.8c17.9-5.7 26.6-11.5 26.6-11.5l-.6.2.6-.2c6.2 28.8 14.1 53 17.5 56.3 6.6 6.5 56.4 13.9 54.8 0-1.7-13.9-34-29.5-32.6-53.4.2-4.2.2-8.4 0-12.5l3.7-.7-1 1.1c2.3-.7 4.5-1.5 6.7-2.2h.1.1c17-6 30.2-13.5 40.6-21.5l-.1.4s-2.2 14.9-1.6 30.2 22.3 48 22.3 48h45.1c-1.7-13.9-15.4-18-23-20.2z" fill="#e08c5c"/></g></g></g><g><g><g><path d="m195.6 441s-85.4-2.8-92.7-13.9-5.2-20.1-5.2-20.1-14 27.6 7.9 37.2 86.5 7.5 86.5 7.5z" fill="#bf6749"/></g></g></g><g><g><g><path d="m239.1 326.8s-17.4 22.9-36.2 20.6v47.2l50.5-19.9-3.2-25.7z" fill="#bf6749"/></g></g></g><g><g><g><path d="m236.7 197.2s-23.7 7.7-22.4 31.6c1.4 23.9 24.8 45.1 24.8 45.1s-15.3-50.3-5.7-59.7 22.1-9.4 22.1-9.4l-10.1-10.4z" fill="#bf6749"/></g></g></g><g><g><g><path d="m176.9 315.4s37.7 6.4 46.9 33-9.6 25.3-9.6 25.3-19.5-48.3-37.3-58.3z" fill="#bf6749"/></g></g></g><g><g><g><path d="m301.1 120.3s-7.3 18-19.3 8c-12.1-10.1 1.8-21.5 19.3-8z" fill="#bf6749"/></g></g></g><g><g><g><path d="m367.1 100.8s.4-12.7 9.2-10.9 2.2 20.7-4.6 17.2-4.6-6.3-4.6-6.3z" fill="#bf6749"/></g></g></g><g><g><g><path d="m301.1 63s20.5-4.2 13.9 9.9-18.1 24-13.9 29.1c4.1 5.2 8.9 9.4 8.9 9.4s-11.8 14.1-13 31.1-33.6 18.7-37.6-8.9c0 0-5.6 24.7 5.9 42.7 0 0-11.7 26 2.2 36.5 0 0-15.5 13.7 8.3 28.2s21.2 43.1 21.3 62.3c0 19.1-20.2 60.2-46.7 45.6 0 0 16.8 98.3 24.8 103.7s57 13.2 54.2 2.9-26.9-30.1-29.5-43.2-2.6-25.6-2.6-25.6l50.1-23.1 1 41 19.7 37.2h45.1s-5.6-15.3-16.4-19.1-18.3-21.3-18.6-30.2 6.4-28.1 6.4-28.1 9.5-26.3 11.5-36.4 3.1-27.2 3.1-27.2 14.9-43.3 9.4-58.9-18.2-44.7-18.2-44.7 6.4-9.9 2.3-20.6c-4.1-10.8 14.4-36.5 7.3-64.7 0 0-14.6 11.6-20.6 5.6s-17.6-19.1-25.7-20.4-2.3-20.7-11.5-24.3-22.3-10.5-16.7-18.4c0 .1-17.2 9.2-24.4 8.6z" fill="#fff"/></g></g></g><g><g><g><path d="m255.5 368.8s-31.8 23.2-49.2 18.3c0 0 8.8-33.2-14.2-52.5 9.3 3.1 8.6 79.3-43.1 87l28 1.4 15.6 9.7 54.9-.4s11.6-8.6.6-17.1c-10.9-8.6-15.4-5.4-15.4-5.4l24.3-9.6z" fill="#fff"/></g></g></g><g><g><g><path d="m347.6 153.7-13.4 24.4s38-4.2 36.9-10.1-23.5-14.3-23.5-14.3z" fill="#af2243"/></g></g></g><g><g><g><path d="m231 407.9 25.8-11.2-1.3-28s-31.8 23.2-49.2 18.3c0 0 2-7.6 1.6-17.7l-13.3 1.8c-3.9 18.8-14.1 39.4-34.8 47.5l12.2 4.1 4.9.2 4.9 3 10.3 3.4 3.5.2 52 2.5c.5-.4 2-1.6 3.2-3.5l1.3-8.7c-.5-1-1.2-2.1-2.2-3.2l-16.1-7.5c-.1 0-.2 0-.2.1l.2-.1z" fill="#d1c5c1"/></g></g></g><g><g><g><path d="m293.9 360.6s61.3-5.1 90.2-62.6c0 0-.1 74.6-86.9 88.8z" fill="#d1c5c1"/></g></g></g><g><g><g><path d="m384.1 303s1 20.7-4.8 44.9c-5.7 24.2-2.1 52.5-2.1 52.5l7.2 17.2s28.1 10.5 28.6 24.2l-44.2 2.4-23.3-43.8v-42.4z" fill="#d1c5c1"/></g></g></g><g><g><g><path d="m315 194.5 19.3-16.4 46.2-1 12.9 2.2s7.9 28.5-19.7 47-37.4 12.9-37.4 12.9 22.9-6.2 34.9-30.7c0 0-46.1 24.5-77.3-17.2z" fill="#d1c5c1"/></g></g></g><g><g><g><path d="m257.9 156.5 22 15.6s14.9 30.1 51.8 39.8c0 .1-56.3 17.4-73.8-55.4z" fill="#d1c5c1"/></g></g></g><g><g><g><path d="m331.7 108.6s-13.5 2.4-11.6 17.5 13.1 20.3 8.8 38.8-23.2 30.2-35 26.6c0 0 14.5 6.3 28.3.6s21.8-43.1 31.4-37.1 20.3 25.7 35.9 23.1l4.4-6s-12.5-10.4-22.9-17.5c-16.3-11.2-17.4-32.2-17.4-32.2s13.2-21-21.9-13.8z" fill="#7a5c64"/></g></g></g><g><g><g><path d="m320.1 187.4s38.2 13.6 64-15.3l-13-4.1s-31.9 14.3-41.8 8.3z" fill="#7a5c64"/></g></g></g><g><g><g><path d="m163.8 263.1s-76.1 68-54.4 123.7l-10.2 13.7s1.3-15.9-2.3-26.8c-7.7-24.1 21.6-82.3 66.9-110.6z" fill="#fff"/></g></g></g><g><g><g><path d="m284.5 68s-32.3-17.3-44-4-13 20.5-13 20.5 12.3-11 28-9.5 15.7 1.5 15.7 1.5z" fill="#7a5c64"/></g></g></g><g><g><g><path d="m343.9 50.7s21.9-18 33.3-12.3 24 15.3 23.6 27.7c0 0-3.4-10-23.9-11.7s-20.5 1.7-20.5 1.7z" fill="#7a5c64"/></g></g></g><g><g><g><path d="m243 77s4.9 5.4 7.3 16.4 12.2 14.1 12.2 14.1l14.3-34.6s-27.2-3.2-33.8 4.1z" fill="#a05a57"/></g></g></g><g><g><g><path d="m400.9 66.1s-11.9-21.3-41-11.7l11.2 13.5c.1 0 18.7-11 29.8-1.8z" fill="#a05a57"/></g></g></g><g><g><g><g><path d="m328.7 135.1c-3 0-6-1.5-8.5-4.4-3.6-4.2-3.6-8.1-2.9-10.6 2.1-8.7 14.4-13.9 15.8-14.5 1.6-.7 3.4.1 4.1 1.7s-.1 3.4-1.7 4.1c-2.8 1.1-10.9 5.5-12.1 10.2-.3 1-.4 2.7 1.6 5.1 1.6 1.9 3.4 2.6 4.8 1.9 1.2-.6 2.1-2.4 1.4-4.9-.5-1.7.5-3.4 2.2-3.9s3.4.5 3.9 2.2c1.4 5-.5 9.9-4.6 12.1-1.3.7-2.6 1-4 1z" fill="#3f0f33"/></g></g></g><g><g><g><path d="m350.5 126.6c-3.7 0-7.3-2.3-9.2-6-.8-1.5-.2-3.4 1.3-4.2s3.4-.2 4.2 1.3c1.2 2.3 3.1 2.9 4.4 2.6 1.5-.4 2.3-2.1 2.2-4.6-.2-3.1-1.4-4.2-2.3-4.8-4.1-2.7-12.9-.3-15.7.8-1.6.6-3.4-.2-4-1.8s.2-3.4 1.8-4c1.4-.5 13.9-5 21.4-.1 2.2 1.4 4.8 4.3 5.1 9.8s-2.4 9.8-6.8 11c-.9-.1-1.6 0-2.4 0z" fill="#3f0f33"/></g></g></g><g><g><g><path d="m307.5 199.7c-9.4 0-22-5.1-28.8-29.1-.5-1.7.5-3.4 2.2-3.9s3.4.5 3.9 2.2c4.6 16.2 12.5 24.7 23 24.6 11.5-.1 23.6-11 25.5-18 2.5-9.7 6.9-15.8 9.7-19.9.9-1.3 2-2.9 2.2-3.4.1-1.6-2.3-10.4-4.6-17.5-.5-1.7.4-3.4 2-3.9 1.7-.5 3.4.4 3.9 2 1.5 4.9 5.1 16.5 4.8 20-.1 2-1.5 3.9-3.3 6.5-2.6 3.7-6.6 9.3-8.8 17.8-2.6 10.1-17.2 22.5-31.5 22.7 0-.1-.1-.1-.2-.1z" fill="#3f0f33"/></g></g></g><g><g><g><path d="m413.1 444.9h-45.1c-1.1 0-2-.5-2.6-1.4-.9-1.4-22.1-33.7-22.8-49.6-.6-15.4 1.5-30.2 1.6-30.8.3-1.7 1.8-2.9 3.6-2.6 1.7.3 2.9 1.9 2.6 3.6 0 .1-2.2 14.8-1.6 29.6.5 11.2 14.4 35 20.8 45h39.5c-2.8-8.2-11.6-11.5-19.9-13.9-4.2-1.2-8.5-5.6-11.6-11.9-3.8-7.7-4.8-15.7-2.5-21.5 1.5-3.8 2.2-8.2 3.1-13.2 1.3-7.4 2.8-15.9 7.1-25.7 6.9-16 10.2-37 9.8-45.3-.2-4.9 1.1-8.2 3-13.1 2-5.1 5.1-12.8 8.6-27.5 4.2-18.1-7.4-41-14.3-54.7-5-9.8-7-13.8-4.5-16.6 4.3-4.9.7-15 .7-15.1-.6-1.6.2-3.4 1.8-4s3.4.2 4 1.8c.2.5 4.7 12.9-1.2 20.7.5 1.8 2.8 6.3 4.8 10.4 7.3 14.5 19.6 38.7 14.8 59-3.5 15.2-6.7 23.2-8.8 28.4-1.8 4.6-2.8 6.9-2.6 10.4.4 8.9-3.1 31.2-10.3 48.1-4 9.2-5.4 17.2-6.7 24.3-.9 5.1-1.8 10-3.5 14.4-1.5 4-.6 10.4 2.3 16.4 2.6 5.2 5.7 8.1 7.7 8.7 7.6 2.2 23.3 6.8 25.1 22.7.1.9-.2 1.8-.8 2.5-.4.6-1.2.9-2.1.9z" fill="#3f0f33"/></g></g></g><g><g><g><path d="m299.8 390.2c-1.3 0-2.6-.9-3-2.2-.5-1.7.4-3.4 2.1-3.9 81.5-25.1 82.5-85.5 82.5-86.1 0-1.7 1.4-3.1 3.1-3.1s3.1 1.4 3.1 3.1c0 .7-1 65.6-86.9 92.1-.2 0-.5.1-.9.1z" fill="#3f0f33"/></g></g></g><g><g><g><path d="m311.9 463.6c-15.3 0-34.6-4.4-39-8.8-7.4-7.4-31.5-93.5-26.1-139.8.2-1.7 1.8-3 3.5-2.8s3 1.8 2.8 3.5c-5.3 46.3 19.2 129.4 24.3 134.6 4 4 36.8 10.2 47.5 5 2.1-1 2-1.9 2-2.4-.6-4.6-6.2-10.5-12.2-16.6-9.5-9.8-21.3-21.9-20.5-37.3.5-9.8-.5-19.7-1.4-28.4-1.4-13.4-2.5-23.2 2.3-28.1 6.1-6.4 12.4-19.2 12.5-19.3.8-1.6 2.6-2.2 4.2-1.4s2.2 2.6 1.4 4.2c-.3.6-6.8 13.9-13.6 20.9-2.8 2.9-1.7 12.7-.6 23.1 1 9 2 19.1 1.5 29.4-.7 12.7 9.6 23.3 18.7 32.6 7 7.2 13.1 13.5 13.9 20.2.3 2.2-.1 6.2-5.4 8.8-3.8 1.9-9.5 2.6-15.8 2.6z" fill="#3f0f33"/></g></g></g><g><g><g><path d="m248.1 342.4c-.9 0-1.7-.3-2.3-1-14.6-16.1-18.5-36.7-18.7-37.6-.3-1.7.8-3.3 2.5-3.7 1.7-.3 3.3.8 3.7 2.5 0 .2 3.8 19.8 17.2 34.5 1.2 1.3 1.1 3.3-.2 4.4-.7.7-1.4.9-2.2.9z" fill="#3f0f33"/></g></g></g><g><g><g><path d="m189.1 455.4h-.1c-21.7-.3-73.7-2-89.3-10.5-12.9-7.1-9-22.8-5.5-36.6 2.3-9.4 4.8-19.1 2.3-25.6-7.3-19.6-10.7-51.6 44.5-103.3 31.7-29.6 49.2-42.1 58.6-48.8 6.7-4.8 9.5-6.8 11-10.2 10.5-23.4 26.5-27.3 33.5-29-2.9-9.6 10.5-25.4 13.5-28.8 1.1-1.3 3.1-1.4 4.4-.3s1.4 3.1.3 4.4c-7.7 8.7-14.5 20.5-11.9 23.5 1.4 1.6 1.2 3.1.9 3.9-.7 2.2-2.9 2.8-5.7 3.4-6.5 1.5-20 4.7-29.4 25.5-2.2 4.9-5.9 7.5-13.1 12.7-9.3 6.6-26.6 18.9-58 48.3-52.5 49.1-49.7 78.6-42.9 96.5 3.1 8.3.5 19-2.1 29.3-3.9 15.5-5.6 25.2 2.4 29.6 14.7 8.1 69.8 9.5 86.3 9.7 1.2 0 2.2-.4 2.9-1.2s1.1-1.8 1-2.8c-.4-6.8-3.2-15.6-14.2-18.9-19.6-5.9-51.8 2.2-52.1 2.3-1.7.4-3.4-.6-3.8-2.3s.6-3.4 2.3-3.8c1.4-.4 34.2-8.6 55.4-2.3 11.3 3.4 17.9 12.1 18.6 24.6.2 2.8-.9 5.5-2.8 7.5-1.5 2.1-4.2 3.2-7 3.2z" fill="#3f0f33"/></g></g></g><g><g><g><path d="m175.3 424.7c-1 0-2.1-.5-2.7-1.5-.9-1.5-.5-3.4 1-4.3 20.2-12.7 31-27.5 32.2-44 2.1-30-28.4-56.3-28.7-56.5-1.3-1.1-1.5-3.1-.4-4.4s3.1-1.5 4.4-.4c1.4 1.2 33.3 28.6 30.9 61.8-1.3 18.6-13.1 35-35.1 48.9-.5.2-1.1.4-1.6.4z" fill="#3f0f33"/></g></g></g><g><g><g><path d="m181.2 420.7c-1.6 0-3-1.2-3.1-2.9-.2-1.7 1.1-3.3 2.8-3.4 50.4-4.5 74.8-20.5 75-20.7 1.4-1 3.4-.6 4.4.9 1 1.4.6 3.4-.9 4.4-1 .7-26 17.1-78 21.7-.1 0-.1 0-.2 0z" fill="#3f0f33"/></g></g></g><g><g><g><path d="m247.5 435.4h-55.4c-1.7 0-3.1-1.4-3.1-3.1s1.4-3.1 3.1-3.1h55.4c2.6 0 4.1-1.7 4.7-3.4.3-.8.9-3.4-1.6-5.3-5.5-4.2-12.7-6.9-21.4-8.1-1.7-.2-2.9-1.8-2.7-3.5s1.8-2.9 3.5-2.7c9.8 1.4 18 4.5 24.4 9.4 3.8 2.9 5.3 7.7 3.7 12.3-1.6 4.5-5.8 7.5-10.6 7.5z" fill="#3f0f33"/></g></g></g><g><g><g><path d="m388.5 181.3c-7.4 0-16.2-7.6-22.7-14-7.3-7.2-18.7-12-18.8-12-1.6-.7-2.4-2.5-1.7-4.1s2.5-2.4 4.1-1.7c.5.2 12.7 5.3 20.8 13.3 13.5 13.3 18.6 12.9 20.4 11.4 3-4.8-9.1-44.1-13.8-52.4-5-9-10.7-14.4-14.6-17.4-3.7-2.8-8.2-4.4-13-4.7-23.8-1.5-36.3 13.1-36.8 13.7-.2.2-.5.5-.7.6-.4.3-10.7 7.3-11.6 28.6-.1 1.7-1.5 3.1-3.3 3-1.7-.1-3.1-1.5-3-3.3.9-22.6 11.7-31.7 14.1-33.4 2.3-2.5 16.5-17.2 41.7-15.6 6 .4 11.7 2.4 16.4 6 4.4 3.3 10.8 9.4 16.3 19.3 1.3 2.3 21.4 53 12.2 60.4-1.8 1.6-3.8 2.3-6 2.3z" fill="#3f0f33"/></g></g></g><g><g><g><circle cx="293.9" cy="117" fill="#3f0f33" r="7.2"/></g></g></g><g><g><g><circle cx="367.1" cy="94.9" fill="#3f0f33" r="7.2"/></g></g></g><g><g><g><path d="m339.1 179.4c-1.8 0-2.9-.1-3.1-.1-1.7-.1-3-1.7-2.9-3.4s1.7-3 3.4-2.9c.2 0 17.3 1.3 33.1-7.8 1.5-.9 3.4-.3 4.3 1.2s.3 3.4-1.2 4.3c-13.6 7.8-27.6 8.7-33.6 8.7z" fill="#3f0f33"/></g></g></g><g><g><g><path d="m286.7 204.5c-.7 0-1.4-.2-1.9-.7-1-.8-25.7-20.5-30-46.8-4.2-26 5.8-62.1 17.5-80.6 13.5-21.4 39.9-19.8 42.8-19.6.7-.1 2.4-.8 4.3-1.7 3.7-1.6 9.2-4 18.6-7.1 5.3-1.7 12.2.2 20.7 5.6 19 12.3 42.8 41.5 44.9 60.7 2.8 25.1-6.8 50.6-7.2 51.6-.6 1.6-2.4 2.4-4 1.8s-2.4-2.4-1.8-4c.1-.2 9.4-25.2 6.8-48.7-1.9-17.3-24.6-44.8-42.1-56.2-6.6-4.3-12-6-15.3-4.9-9.1 3-14.5 5.3-18 6.9-3.4 1.5-5.3 2.4-7.3 2.2-.2 0-25.2-2.3-37.1 16.6-11.1 17.8-20.6 51.9-16.6 76.4 3.9 23.9 27.4 42.7 27.7 42.9 1.4 1.1 1.6 3 .5 4.4-.6.8-1.5 1.2-2.5 1.2z" fill="#3f0f33"/></g></g></g><g><g><g><path d="m329.3 102.3c-1.3 0-2.5-.8-3-2.1l-3.9-11.5c-.6-1.6.3-3.4 2-4 1.6-.6 3.4.3 4 2l3.9 11.5c.6 1.6-.3 3.4-2 4-.3 0-.6.1-1 .1z" fill="#3f0f33"/></g></g></g><g><g><g><path d="m341.1 208c-18.4 0-29-9.5-29.6-10-1.3-1.2-1.4-3.2-.2-4.4 1.2-1.3 3.2-1.4 4.4-.2.6.6 16.3 14.3 43.1 5.2 17.5-6 22-21.6 22.1-22.3.5-1.7 2.2-2.7 3.8-2.2 1.7.4 2.7 2.2 2.2 3.8-.2.8-5.4 19.6-26.2 26.6-7.1 2.6-13.7 3.5-19.6 3.5z" fill="#3f0f33"/></g></g></g><g><g><g><path d="m256.2 120.7c-1.3 0-2.7-.2-4.3-.8-3.8-1.5-6.7-5-8.6-10.3-.8-2.2-1.5-4.4-2.2-6.5-2.6-8-4.2-12.3-8.4-13.5l-3.5-.4c-.9-.1-1.7-.5-2.2-1.2s-.7-1.6-.6-2.5c1-5.7 4-16.4 12-23.9 14.3-13.5 46.2 2.8 47.6 3.5 1.5.8 2.1 2.7 1.3 4.2s-2.7 2.1-4.2 1.3c-8.1-4.2-31.2-13.2-40.4-4.5-5.4 5.1-8.1 12.1-9.4 17.2h.3c.2 0 .3 0 .4.1 7.9 2 10.3 9.3 13 17.7.7 2 1.3 4.1 2.1 6.2 1.3 3.5 3.1 5.8 5.1 6.6s3.8 0 3.8 0c1.6-.7 3.4-.1 4.2 1.5.7 1.6.1 3.4-1.5 4.2-.2.3-2 1.1-4.5 1.1z" fill="#3f0f33"/></g></g></g><g><g><g><path d="m243 80.1c-1 0-2-.5-2.6-1.4-1-1.4-.6-3.4.8-4.4 14.9-10.1 35-.6 35.8-.2 1.6.8 2.2 2.6 1.5 4.2-.8 1.6-2.6 2.2-4.2 1.5-.2-.1-17.7-8.3-29.6-.2-.5.4-1.1.5-1.7.5z" fill="#3f0f33"/></g></g></g><g><g><g><path d="m382.5 83.5c-1.3 0-2.6-.9-3-2.2-.5-1.7.4-3.4 2-3.9 1.3-.4 1.5-.8 1.8-3.4.2-1.6.4-3.4 1.5-5.1 2-3 8.5-4.7 13.3-5.5.1-2.7-1.1-5.8-3.4-9.1-5.5-7.6-15.9-13.6-23.7-13.8-13.1-.3-30 12.9-30.2 13.1-1.4 1.1-3.3.8-4.4-.5-1.1-1.4-.8-3.3.5-4.4.8-.6 18.9-14.7 34.2-14.4 9.9.2 21.9 7 28.7 16.3 4.1 5.7 5.6 11.5 4.1 16.4-.4 1.2-1.4 2-2.6 2.2-5 .7-10.3 2.2-11.3 3.2-.2.3-.3 1.3-.5 2.3-.3 2.6-.9 6.9-6.1 8.6-.2.2-.5.2-.9.2z" fill="#3f0f33"/></g></g></g><g><g><g><path d="m353.7 57.6c-1.2 0-2.3-.7-2.8-1.8-.7-1.6-.1-3.4 1.5-4.2.8-.4 19.6-9.1 33.5.2 1.4 1 1.8 2.9.9 4.4-1 1.4-2.9 1.8-4.4.9-11-7.4-27.2.1-27.3.2-.5.2-1 .3-1.4.3z" fill="#3f0f33"/></g></g></g><g><g><g><path d="m286.7 224.8c-.3 0-.6-.1-1-.2-32.4-10.5-40.3-30.3-40.6-31.1-.6-1.6.2-3.4 1.8-4.1 1.6-.6 3.4.2 4 1.8.1.2 7.4 17.9 36.7 27.4 1.6.5 2.6 2.3 2 4-.3 1.4-1.5 2.2-2.9 2.2z" fill="#3f0f33"/></g></g></g><g><g><g><path d="m179.2 423.8c-1.3 0-2.6-.9-3-2.2-.1-.3-4.8-12.7-35.7-11.5-1.7 0-3.2-1.3-3.3-3s1.3-3.2 3-3.3c36.5-1.4 41.7 15.3 41.9 16 .5 1.7-.5 3.4-2.2 3.9-.1.1-.4.1-.7.1z" fill="#3f0f33"/></g></g></g></g></g></svg>