<svg id="Layer_1" enable-background="new 0 0 512 512" height="512" viewBox="0 0 512 512" width="512" xmlns="http://www.w3.org/2000/svg"><g><g><g><g><path d="m416.9 201.2c-2.2-8.7-20.6-26.4-16.7-30.4 4-4-3.6-11.2 1.4-18.8s25-84 2.9-88-42.4 43.8-46.7 47.8-22.8 3.6-22.8 3.6-18.5.4-22.8-3.6-24.6-51.8-46.7-47.8-2.2 80.4 2.9 88-2.5 14.9 1.4 18.8c4 4-14.5 21.7-16.7 30.4 0 0-22.9-3.4-72.8 2.3s-81.1 32.2-90.1 72.7 1.7 54.4 6.8 60.8c7.3 9.3-1.2 52.6 3 57.3 2.8 3.1 16.1 2.1 24.8 1.1 5.4-.6 8.6-6.7 5.7-11.3-2.5-4.1-6.5-9.3-8.3-12.7-3-5.6 10.9-6.2 32.3-20.3 2.3-1.5 4.4-3.4 6.3-5.4.4.5.8.9 1.2 1.3 0 0 9.8-5.1 30.3 12 0 .2 4.6 26.2 9.6 27.2s39 6.6 28.5-6.9l-4.6-2.4c13.2 3 28.3 4.2 41.9 4.6 0 2.6-.4 4.9-1.5 6.9-4.6 8.2-10 17.8-5 24.2s37.8 5 39.2 0 1.8-12.3 0-16.4c-1.3-2.9-2.8-7.7-1.6-15.9l1.6-.1c21 1.9 36.9-4.3 48.8-13.2-1 15.9 3.5 14.9 4.9 16.9.8 1.2 2 10.4 2.8 17.8.6 5.2 5.1 9.1 10.3 8.9l32.9-1.2c2.9-15-5.4-22-15.4-25s-11.5-20-4.6-30 28.6-65.5 31.6-85.5c3-19.9-5.5-35.6-5.5-35.7 7.4-13.4 12-26.9 10.7-32z" fill="#ff9b2e"/></g></g></g><g><g><g><path d="m344.7 136.5c-3.3-10.5-19-8.6-19.5 2.4 0 .1 2.8 44.3-13.2 46.8s-35.1-15.1-49.2 0c-14 15.1-2.6 40.3-2.6 40.3s-16.7 17.2-15.9 33.5c.5 9.9 8.6 35.7 12.6 52.4 2.7 10.9-2.3 28.9-2.3 28.9s10.9 27.9 11.8 36-20 34.5 1.3 38.6 32.7-3.1 32.7-3.1l-3.2-20.6 3.2-11.8s32.1 0 48.8-13.2c0 0-3.8 8.9 4.9 16.9s-7.2 24.4 13.1 26.7c20.4 2.3 32.9-1.2 32.9-1.2s-2-22.4-15.4-25-13.6-17-4.6-30 44.7-95.9 26.1-121.2c0 0 10.5-10.8 10.7-31.7l-10-14.8c-4.2-6.2-12.2-8.5-19.1-5.6-12.5 5.3-31.7 11.1-38.6 1.1-4.7-6.8 0-31-4.5-45.4z" fill="#fff"/></g></g></g><g><g><g><path d="m300.5 122.9s-10.2-47-32.2-46.5c-2.1 0-3.8 1.8-3.8 3.9.1 10.1 1.4 41 15 69.1-.1.1 9.2-15.4 21-26.5z" fill="#fff"/></g></g></g><g><g><g><path d="m369.6 122.9s9.6-44.3 30.4-46.4c3.1-.3 5.7 2.2 5.6 5.3-.2 11.4-2 40.8-15 67.6 0 .1-9.2-15.4-21-26.5z" fill="#fff"/></g></g></g><g><g><g><path d="m122.3 368.5s-21.2 18.5-22.4-4.8c0 0-9.5 31.1 5.6 32.4s26.5-.4 25.8-6.3c-.8-5.9-9-21.3-9-21.3z" fill="#fff"/></g></g></g><g><g><g><path d="m342.3 192.3s-22.8 4.2-17.2 11.2c5.7 7.1 15.1 10.8 15.9 11.2.8.5 13.4-9.4 13.1-11.2s3.2-11.8-11.8-11.2z" fill="#5b4d60"/></g></g></g><g><g><g><path d="m254.7 340.8s-34.9 1.2-54.5-12.7-26.9-16.3-26.9-16.3l-12.4 33.7s18.3 1.6 37 18.1 69.9 17.5 69.9 17.5-14-30.1-13.1-40.3z" fill="#e0742b"/></g></g></g><g><g><g><path d="m185.6 340.8s28.5-45.3-4.9-72.2c0 0 .7 58.1-15.8 72.2z" fill="#e0742b"/></g></g></g><g><g><g><path d="m260.2 226s-18.8-4.1-27.7-25.7l20.7 1z" fill="#e0742b"/></g></g></g><g><g><g><path d="m300.5 113-2.4-24.2 14.1 23-14.1 13.5z" fill="#e0742b"/></g></g></g><g><g><g><path d="m369.6 92.4v30.5l-11.7-11.1z" fill="#e0742b"/></g></g></g><g><g><g><path d="m232.5 377.4s-20.4-4.8-24.9-6.8-12.6-9.3-12.6-9.3 1.2 23.5 7 24.8 28.9 3.6 28.9 3.6l4.1-8.4z" fill="#d1c5c1"/></g></g></g><g><g><g><path d="m277.9 80.4s0 37.3 12.1 54.1l11.7-12.6s-12.2-36.6-23.8-41.5z" fill="#d1c5c1"/></g></g></g><g><g><g><path d="m380.7 134s16.5-38.1 10.1-53.6c0 0-20.6 32.5-19.8 42.5z" fill="#d1c5c1"/></g></g></g><g><g><g><path d="m301.7 200.2s6.7 31.4 14.2 32.7c7.5 1.2 45.8 2.7 49.8 0 3.9-2.7 7.5-29.4 7.5-29.4s-12.8 16.2-18.9 18.1c-6 1.9-34.9 0-34.9 0z" fill="#d1c5c1"/></g></g></g><g><g><g><path d="m253.2 201.2s31.7 46.8 59 56.1c0 0-6.2 9.7-29.8-.6-23.5-10.2-29.2-55.5-29.2-55.5z" fill="#d1c5c1"/></g></g></g><g><g><g><path d="m416.9 201.2s-29.1 48.8-59.7 56.1c0 0 16.6 7.7 30.4-.6 0 0-17.1 88.7-89.5 94.2v16.5l2.3 12.4s25.9 4.8 48.8-13.2c0 0-1.2 9.9 1.8 13.4s3.6 15.1 5.8 21.3 2.4 7.9 16.3 8.7 27-1 27-1 1.4-19.7-18.2-25.8c0 0-13.4-10.8-1.8-29.2 11.5-18.5 44.5-87.3 26.1-121.2 0 .1 13.8-13.1 10.7-31.6z" fill="#d1c5c1"/></g></g></g><g><g><g><path d="m322.8 220.2s3.7 35.9 17.5 33.3c13.8-2.7 16.9-32.7 16.9-32.7s-29.3 2.3-34.4-.6z" fill="#b73558"/></g></g></g><g><g><g><path d="m267.8 369s22.1 11.8 14.7 20.6-22.2 6.7-22.2 6.7 9.9-23.2 7.5-27.3z" fill="#d1c5c1"/></g></g></g><g><g><g><path d="m252 236.7s11.8 38.9 42.1 49.9c0 0-6.9-22.4-11.5-38.6l-22.2-22c-.2 0-5.7 6-8.4 10.7z" fill="#d1c5c1"/></g></g></g><g><g><g><path d="m86.8 304.7s18.8-90.8 98.5-101.2c0 0-92.3.9-98.5 101.2z" fill="#fff"/></g></g></g><g><g><g><path d="m337.4 194.5s11.3 5 11.7 7.4-3.3 11.2-3.3 11.2l7.3-10.6s-1.6-11.3-15.7-8z" fill="#fff"/></g></g></g><g><g><g><g><path d="m283.2 260.5c-.7 0-1.4-.2-2-.7-16.9-13.6-33.8-48.5-31.1-59.3 1.1-4.4 5.2-10 9.5-15.8 2.7-3.7 7.2-9.8 7.6-12-2.6-3-1.7-6.8-1-9.8.8-3.1 1.5-6.1-.5-9.1-4.9-7.4-19.6-63.3-10.8-84 2.7-6.3 6.9-8.3 10-8.8 19.3-3.5 35.9 25.5 44.8 41.1 1.8 3.2 3.9 6.9 4.6 7.5 2 1.9 12.3 3 20.6 2.8 1.7 0 3.2 1.3 3.2 3.1 0 1.7-1.3 3.2-3.1 3.2-4.6.1-20.1 0-25-4.4-1.3-1.2-2.7-3.6-5.8-9-7.6-13.2-23.3-40.7-38.2-38-2.3.4-4 2.1-5.3 5.1-8 18.9 6.7 72.7 10.3 78.1 3.5 5.3 2.3 10.3 1.4 14.1-.6 2.3-.9 3.8-.3 4.3 4.1 4.1-.9 11-7.4 19.8-3.6 4.9-7.7 10.4-8.5 13.6-1.8 7.2 12.6 39.8 28.9 52.9 1.4 1.1 1.6 3.1.5 4.4-.6.5-1.5.9-2.4.9z" fill="#3f0f33"/></g></g></g><g><g><g><path d="m291.2 137.1c-.6 0-1.2-.2-1.7-.5-1.5-.9-1.9-2.9-1-4.3 5.9-9.2 21-22.3 21.7-22.9 1.3-1.1 3.3-1 4.4.3s1 3.3-.3 4.4c-.2.1-15.1 13.1-20.5 21.5-.6 1-1.6 1.5-2.6 1.5z" fill="#3f0f33"/></g></g></g><g><g><g><path d="m300.5 126c-1.4 0-2.7-1-3.1-2.4-.1-.3-6.5-26.4-20.3-41-1.2-1.3-1.1-3.2.1-4.4 1.3-1.2 3.2-1.1 4.4.1 15 15.8 21.5 42.8 21.8 43.9.4 1.7-.6 3.4-2.3 3.8-.1 0-.4 0-.6 0z" fill="#3f0f33"/></g></g></g><g><g><g><path d="m386.9 260.5c-.9 0-1.8-.4-2.4-1.2-1.1-1.3-.9-3.3.5-4.4 16.4-13.2 30.7-45.8 28.9-52.9-.8-3.2-4.9-8.8-8.5-13.6-6.4-8.7-11.5-15.6-7.4-19.8.5-.5.2-2-.3-4.3-.9-3.7-2.1-8.8 1.4-14.1 3.6-5.4 18.3-59.2 10.3-78.1-1.3-3-3-4.7-5.3-5.1-14.9-2.7-30.7 24.8-38.2 38-3.1 5.4-4.5 7.9-5.8 9-4.9 4.5-20.4 4.5-25 4.4-1.7 0-3.1-1.5-3.1-3.2s1.5-3.1 3.2-3.1c8.3.2 18.6-.9 20.6-2.8.7-.7 2.8-4.3 4.6-7.5 8.9-15.6 25.5-44.6 44.8-41.1 3.1.6 7.3 2.5 10 8.8 8.8 20.7-5.9 76.6-10.8 84-2 3-1.3 6-.5 9.1.7 3 1.6 6.8-1 9.8.4 2.2 4.9 8.3 7.6 12 4.3 5.9 8.4 11.4 9.5 15.8 2.7 10.9-14.2 45.8-31.1 59.3-.6.8-1.3 1-2 1z" fill="#3f0f33"/></g></g></g><g><g><g><path d="m378.9 137.1c-1 0-2.1-.5-2.7-1.5-5.4-8.4-20.3-21.4-20.5-21.5-1.3-1.1-1.5-3.1-.3-4.4 1.1-1.3 3.1-1.5 4.4-.3.6.6 15.8 13.7 21.7 22.9.9 1.5.5 3.4-1 4.3-.4.4-1 .5-1.6.5z" fill="#3f0f33"/></g></g></g><g><g><g><path d="m369.6 126c-.2 0-.5 0-.7-.1-1.7-.4-2.7-2.1-2.3-3.8.3-1.1 6.8-28.1 21.8-43.9 1.2-1.3 3.2-1.3 4.4-.1 1.3 1.2 1.3 3.2.1 4.4-13.8 14.6-20.2 40.8-20.3 41-.3 1.6-1.6 2.5-3 2.5z" fill="#3f0f33"/></g></g></g><g><g><g><path d="m339.9 217.9c-2.8 0-5.5-1.1-7.8-3.2l-9.2-8.9c-.6-.6-1-1.4-1-2.3 0-8.1 7.8-14.4 17.9-14.4 9.6 0 17.4 6.7 17.4 15 0 .9-.4 1.7-1 2.3l-8.6 8.3c-2.2 2.1-5 3.2-7.7 3.2zm-11.5-15.6 8.1 7.8c2.1 2 4.8 2 6.8 0l7.6-7.2c-.8-4.2-5.4-7.5-11-7.5-5.8 0-10.7 3-11.5 6.9z" fill="#3f0f33"/></g></g></g><g><g><g><path d="m331 224.7c-3.1 0-6.7-.5-10.9-2.1-7.6-2.9-13.3-12-17.9-19.3-2-3.1-4.7-7.5-5.8-8-1.7-.4-2.7-2-2.3-3.7s2.1-2.7 3.8-2.4c3.4.8 5.9 4.8 9.6 10.8 4.1 6.5 9.1 14.6 14.8 16.7 6.9 2.6 11.8 1.7 14.1.9v-2.9c0-1.7 1.4-3.1 3.1-3.1s3.1 1.4 3.1 3.1v5c0 1.1-.6 2.1-1.5 2.7-.1.1-3.8 2.3-10.1 2.3z" fill="#3f0f33"/></g></g></g><g><g><g><path d="m348.2 224.7c-6.3 0-10-2.2-10.2-2.4-1.5-.9-1.9-2.8-1-4.3s2.8-1.9 4.3-1c.3.2 6.1 3.4 15.6-.2 5.7-2.1 10.7-10.2 14.8-16.7 3.8-6.1 6.3-10.1 9.6-10.8 1.7-.4 3.4.7 3.7 2.4.4 1.7-.7 3.4-2.4 3.7-1 .5-3.7 4.9-5.7 8-4.6 7.3-10.2 16.4-17.9 19.3-4.1 1.5-7.7 2-10.8 2z" fill="#3f0f33"/></g></g></g><g><g><g><path d="m341 256.6c-.1 0-.1 0-.2 0-5.3-.4-9.7-2.6-12.9-6.5-8.4-10.2-6.3-28.9-6.2-29.7.2-1.7 1.8-2.9 3.5-2.7s2.9 1.8 2.7 3.5c0 .2-1.9 16.8 4.8 25 2.2 2.6 4.9 4 8.5 4.2 1.7.1 3 1.6 2.9 3.4-.1 1.6-1.5 2.8-3.1 2.8z" fill="#3f0f33"/></g></g></g><g><g><g><path d="m341 256.6c-1.6 0-3-1.3-3.1-2.9-.1-1.7 1.2-3.2 2.9-3.4 3.6-.3 6.4-1.6 8.5-4.2 5.6-6.8 5.4-20.3 4.8-25-.2-1.7 1-3.3 2.7-3.5s3.3 1 3.5 2.7c.1.8 2.2 19.5-6.2 29.7-3.3 3.9-7.6 6.1-12.9 6.5-.1.1-.1.1-.2.1z" fill="#3f0f33"/></g></g></g><g><g><g><path d="m339.6 241.2c-1.7 0-3.1-1.4-3.1-3.1v-17.9c0-1.7 1.4-3.1 3.1-3.1s3.1 1.4 3.1 3.1v17.9c.1 1.7-1.3 3.1-3.1 3.1z" fill="#3f0f33"/></g></g></g><g><g><g><path d="m366.9 413.4c-6.7 0-12.4-5.1-13.1-11.7-1.3-12.1-2.1-15.5-2.4-16.4-.1 0-.2-.1-.3-.2-3-2.1-5.9-5.3-5.1-18.8.1-1.7 1.6-3 3.3-2.9s3 1.6 2.9 3.3c-.7 11.1 1.3 12.5 2.4 13.2.6.4 1.3.9 1.9 1.8s1.4 2.1 3.3 19.2c.4 3.6 3.4 6.2 7.1 6.1l30.3-1.1c1.1-9.7-3.4-15.9-13.6-18.9-4.4-1.3-7.9-4.9-9.7-10-2.7-7.7-1.3-17.9 3.4-24.7 6.7-9.7 28.2-64.9 31.1-84.2 2.8-18.6-5.1-33.6-5.2-33.8-.8-1.5-.3-3.4 1.3-4.3 1.5-.8 3.4-.3 4.2 1.3.4.7 9 16.9 5.9 37.7-3.1 20.4-25 76.5-32.1 86.8-3.6 5.2-4.7 13.2-2.7 19.1.8 2.3 2.4 5.2 5.6 6.1 14.1 4.2 20.3 14.4 17.6 28.6-.3 1.4-1.5 2.5-3 2.5l-32.9 1.2c.1.1-.1.1-.2.1z" fill="#3f0f33"/></g></g></g><g><g><g><path d="m307.9 383.4c-2.5 0-5-.1-7.7-.3-1.7-.2-3-1.7-2.8-3.4s1.6-3 3.4-2.8c58.3 5.2 76.2-55.3 76.4-55.9.5-1.7 2.2-2.6 3.9-2.2 1.7.5 2.6 2.2 2.2 3.9-.3.5-18.2 60.7-75.4 60.7z" fill="#3f0f33"/></g></g></g><g><g><g><path d="m280.5 419.8c-9 0-18.5-1.4-21.7-5.5-6.2-8-.2-18.8 4.6-27.4l.1-.2c4.1-7.3-3.6-24.2-9.2-36.5-7.9-17.2 4.2-38.9 4.7-39.9.9-1.5 2.8-2 4.3-1.2 1.5.9 2 2.8 1.2 4.3-.1.2-11 19.8-4.5 34.2 8.3 18.1 14.2 32.8 9 42.1l-.1.2c-4.1 7.4-8.8 15.8-5.1 20.5.6.7 3.6 2.3 10.9 2.9 10.4.9 20.8-.7 22.9-2.2 1.3-4.9 1.3-11 0-13.9-1.9-4.3-3.9-11.5-.4-25.1.7-2.8.6-5.7-.2-8.6l-6-19.3c-.5-1.7.4-3.4 2.1-3.9s3.4.4 3.9 2.1l6 19.3c1.2 4 1.3 8.1.3 12-3.1 11.7-1.4 17.6.1 21 2.2 5.1 1.6 13.2.1 18.5-.7 2.6-3.6 4.3-9.2 5.4-3.6.7-8.6 1.2-13.8 1.2z" fill="#3f0f33"/></g></g></g><g><g><g><path d="m267.8 384.4c-.1 0-.1 0 0 0-36-.9-60.1-7-71.5-17.9-22.2-21.1-32.6-16.8-32.8-16.8-1.5.7-3.4 0-4.1-1.5s-.2-3.3 1.3-4.1c1.4-.7 14.4-6.5 39.9 17.8 10.2 9.7 33.4 15.3 67.3 16.1 1.7 0 3.1 1.5 3.1 3.2-.1 1.8-1.5 3.2-3.2 3.2z" fill="#3f0f33"/></g></g></g><g><g><g><path d="m110.3 399.4c-9.8 0-11.7-2.1-12.6-3.1-2.6-2.8-2.3-9.8-1.4-24 .7-11.6 1.7-29.1-1.7-33.4-5-6.4-16.7-21.2-7.4-63.4 9.5-42.7 42.5-69.4 92.8-75.1 49.7-5.7 72.7-2.4 73.6-2.2 1.7.3 2.9 1.8 2.6 3.6-.3 1.7-1.9 2.9-3.6 2.6-.2 0-23.3-3.3-72 2.3-47.5 5.4-78.5 30.3-87.4 70.2-8.7 39.3 1.7 52.5 6.2 58.2 4.5 5.8 4.1 19.3 3 37.7-.4 7.3-1 17.2-.1 19.5 1.3.8 7.3 1.7 22 0 1.6-.2 2.9-1.1 3.6-2.6.6-1.3.6-2.8-.2-4-1-1.7-2.4-3.7-3.7-5.6-1.8-2.7-3.6-5.2-4.7-7.2-1-1.9-.8-3.6-.5-4.6 1.1-3.2 4.6-4.7 11-7.6 5.7-2.6 13.6-6.1 22.9-12.2 26.7-17.5 25.7-79.5 25.7-80.2 0-1.7 1.3-3.2 3.1-3.2 1.8-.1 3.2 1.3 3.2 3.1.1 2.7 1.1 66.1-28.5 85.5-9.8 6.4-17.9 10-23.8 12.7-3 1.3-6.3 2.8-7.4 3.7 1 1.8 2.6 4.2 4.2 6.4 1.4 2 2.8 4 3.9 5.9 1.9 3 2 6.8.5 10-1.6 3.4-4.8 5.6-8.5 6.1-6.3.6-11.1.9-14.8.9z" fill="#3f0f33"/></g></g></g><g><g><g><path d="m220.3 391.2c-7.8 0-16.3-1.6-18.9-2.1-4.7-.9-8.8-10.9-12.1-29.7-.3-1.7.8-3.3 2.5-3.6s3.3.8 3.6 2.5c2 11.5 5.5 22.9 7.4 24.7 11.9 2.3 24.9 2.5 26.5.4s-.1-.8-1.4-2.4c-1.1-1.4-.8-3.3.6-4.4s3.3-.8 4.4.6c3.5 4.6 2.9 7.7 1.8 9.6-2.1 3.4-8.1 4.4-14.4 4.4z" fill="#3f0f33"/></g></g></g><g><g><g><path d="m319.4 165.1c0 3.4-3.6 4.2-7.1 4.2-3.4 0-7.8-4.5-7.8-7.9s4.4-4.5 7.8-4.5c3.5 0 7.1 4.8 7.1 8.2z" fill="#3f0f33"/></g></g></g><g><g><g><path d="m359.8 165.1c0 3.4 3.6 4.2 7.1 4.2 3.4 0 7.8-4.5 7.8-7.9s-4.4-4.5-7.8-4.5-7.1 4.8-7.1 8.2z" fill="#3f0f33"/></g></g></g></g></g></svg>