<svg id="Layer_1" enable-background="new 0 0 512 512" height="512" viewBox="0 0 512 512" width="512" xmlns="http://www.w3.org/2000/svg"><g><g><g><g><path d="m432 145.9c2.7-8.4-11.5-19.2-20.3-34.9-8.8-15.6-18.4-15.2-18.4-15.2-10.4-20.5-33-25.2-44.9-26.2-2.6-.4-5.1-.6-7.6-.2 0 0-38.1-2-52.5 26.5 0 0-9.6-.4-18.4 15.2s-23 26.5-20.3 34.9 9.1 24.5 9.9 34.5c.4 4.8-.6 13 .7 19.7 0 0-98.4-8-120.3 0-21.8 8-38.7 26.4-46 45.2s3.1 53.3-2.7 59c-5.7 5.7-11.9 11.1-10 17.6s9.2 24.9 8 29.9c-1.1 5-7.7 25.3 3.1 28 10.7 2.7 30.3 1.9 32.6-3.4 2.3-5.4-3.4-16-13.8-17.6 0 0-4.2-19.6-2.3-27.2 1.9-7.7 13.8-18.8 21.5-21.5.8-.3 1.7-.8 2.6-1.3 0 0 12.5 28.1 12.5 34.7 0 6.7-1.9 18.7 5.8 19.7 4.6.6 15 .5 22.6.3 4.6-.1 7.4-5.3 4.8-9.2-2.1-3.1-6.1-4.8-10-8-20.9-16.7 5.8-28 10-32.2 10.8 5.6 24.1 10.9 39.5 13.6 19.1 3.3 28.5 8.4 28.5 8.4 6.5 13.5 13.4 23.5 13.4 29.8 0 8.3-6 49.6 0 52.8s39.5 6.9 40.8-3.2c1.4-10.1-3.7-12.8-5.7-18.8-1.5-4.3-1.2-24.9-5.6-40.5 0 0 .4 0 1.1-.2 15.1 1.5 26.6-1.6 35.3-6.8l-1.4 3.8c.4 5.6-2.3 34.1-1.9 38s8.1 19.7 14.8 19.7h24.6c5.4 0 10.1-4.1 10.6-9.5.1-.7.1-1.4.1-2.1 0-7.1-16.2-14.5-17.6-16.2-1.4-1.8-5.6-20.1-1.8-38.1 3.9-18 16.9-32.1 29.6-58.5 11.4-23.8-2.6-63.9-3.9-75.3l8.4-25c2.1 11.9 7.4 22.4 17.4 24.4 21.6 4.4 16.4-20 17.2-30.1.9-10 7.3-26.1 10-34.5z" fill="#5b4d60"/></g></g></g><g><g><g><path d="m331.6 161.6s-14.1 3-16.7 9.9c-2.6 6.8-2.6 6.8-2.6 6.8s-5.2 10-17.4-23.3c0 0-3.9 29.7 6 43.7 9.8 14 43.6 36.6 50.1 32.8s20.5-10.8 27.5-25.3 6.8-30.9 5-34.8-19-8.2-19-8.2-8.1 19.4-16.1 15.6c-8.1-3.7-16.3-9.1-16.8-17.2z" fill="#e0a368"/></g></g></g><g><g><g><path d="m330.9 104.8s-1.3-9.6-8.6-9.6-6.7 11.7 0 12.8 8.9-1.7 8.6-3.2z" fill="#e0a368"/></g></g></g><g><g><g><path d="m360.9 104.8s1.3-9.6 8.6-9.6 6.7 11.7 0 12.8c-6.6 1.1-8.9-1.7-8.6-3.2z" fill="#e0a368"/></g></g></g><g><g><g><path d="m260 363.6s9.3 23.9 19.2 17.7 10.8-22.6 10.8-22.6l4.2 34.1s8.5 14.3 6.4 22.6-39.8 4.4-42.6 0 2-51.8 2-51.8z" fill="#e0a368"/></g></g></g><g><g><g><path d="m336.3 341.6s-2 27.4 4.4 33c6.4 5.7 10.3-11.1 10.3-11.1l3.9 22s18.5 2.7 17.9 13.6-25.7 15.8-38.9 10.5l-13.4-14.2 3.7-42.4z" fill="#e0a368"/></g></g></g><g><g><g><path d="m312 314.8c5.6-1.2 4-5.8.2-10-9-10-23.5-24.6-30.6-24.3-10.9.4-10.4 30.6 5.2 32.5 7.6.8 18.5 3.2 25.2 1.8z" fill="#e0a368"/></g></g></g><g><g><g><path d="m348.8 310.8c-2.4 6.2 4 12.2 10 9.4.8-.4 1.6-.8 2.3-1.1 5-2.5 22.5-27.6 20.5-30.1-1.6-2.1-25.3 2-32.8 21.8z" fill="#e0a368"/></g></g></g><g><g><g><path d="m178.4 314.1s-19.9 4.3-17.9 18.8 18.5 17.7 17.9 23.5-8 7.2-8 7.2l-22.9-2.2s-1.5-12.7-2.2-17.9c-.8-5.2-10.6-33.5-10.6-33.5l12.9-17.9c-.2 0 21.5 17.6 30.8 22z" fill="#ad6845"/></g></g></g><g><g><g><path d="m132.7 306.3s-32.7 14.3-35.4 21.5.9 22.3 0 25-10.5 25.8-1 27.8 27.5 6 28.5-4.2-13.8-17.6-13.8-17.6-6.9-19.2-2.3-27.2c4.6-8.1 21.6-17.1 24-25.3z" fill="#e0a368"/></g></g></g><g><g><g><path d="m237.6 297.8s-32 .3-46.3-5.8-20.5-18.4-34.8-12.4l-9 12.4s25.6 28.9 97.8 41.2c0 0-6.2-16.4-7.7-35.4z" fill="#43344c"/></g></g></g><g><g><g><path d="m274.1 324.9s20.4 9.4 40.8 2.9 39.9-35.7 39.9-35.7.4 24.8-15.5 47.5c-15.9 22.8-49 16.4-49 16.4s-5.4-14.1-11.4-17.6-4.8-13.5-4.8-13.5z" fill="#43344c"/></g></g></g><g><g><g><path d="m284.7 111.5s8.4 27.7 14.1 32.5-4.7 27.5-4.7 27.5l-1.5-20.6c.1 0-9.7-24.1-7.9-39.4z" fill="#43344c"/></g></g></g><g><g><g><path d="m298.3 193.5s24.3 26.5 25.7 44.1-52.6-4.1-63.8-5.6-2.9-32.1-2.9-32.1 6.5 11.5 19 11.1 16.9-21.1 16.9-21.1z" fill="#43344c"/></g></g></g><g><g><g><path d="m396.7 119.5s-5.8 17.7-14.9 27.8 7.4 37.6 7.4 37.6-7.4-25.9-1.4-32.7c6.2-6.8 8.9-32.7 8.9-32.7z" fill="#43344c"/></g></g></g><g><g><g><path d="m106.5 223.9s-5.7 43.7 0 54.1-16.4 30.7-16.4 30.7 2.1-17.8 2-20.3c0-2.4-5.6-47.1 14.4-64.5z" fill="#43344c"/></g></g></g><g><g><g><path d="m344.1 156.7s15.9 6.1 16.9 9-6.1 11.9-6.1 11.9 9.6-5.8 9.4-8-3.5-15-20.2-12.9z" fill="#fff"/></g></g></g><g><g><g><path d="m416.6 122.1s11 19.7 9.4 24.1c-1.6 4.5-10.1 26.8-9.4 35.9s.9 26.1.9 26.1 4.9-9.5 4.6-14.8-.5-16.1.2-18 8.9-31.9 7.7-35.4-13.4-17.9-13.4-17.9z" fill="#fff"/></g></g></g><g><g><g><path d="m391.8 99.3s-16.1-27.2-62.4-27c0 0 26.2-3.5 41.8 3.5 15.7 6.9 20.6 23.5 20.6 23.5z" fill="#fff"/></g></g></g><g><g><g><path d="m364.3 190.2s1.4 8.4-5.6 10.5-23.4 3.7-29.2 0c-5.9-3.7-9.5-13.7-9.5-13.7s15.1 5.1 22.2 3.9c7.1-1.1 22.1-.7 22.1-.7z" fill="#ad6845"/></g></g></g><g><g><g><path d="m333.7 341.6s-2.8 45.3 5.6 54.3 25 12.4 25 12.4-26.6 1.6-30.4 1.3-13.9-16.4-13.9-16.4l2.3-40.3z" fill="#ad6845"/></g></g></g><g><g><g><g><path d="m271.8 214.1c-3.9 0-7.1-1-9.5-3.1-6.4-5.4-6.2-15.8-6-24.2.1-2.3.1-4.6 0-6.2-.6-7.3-4.5-18.5-7.4-26.8-.9-2.6-1.8-5-2.4-7-2.2-6.8 3.1-13.5 9.7-21.9 3.6-4.6 7.6-9.7 10.9-15.4 7.3-12.9 15.4-15.9 19.2-16.6 15.7-28.4 53.1-26.8 54.7-26.7 1.7.1 3.1 1.6 3 3.3s-1.6 3-3.3 3c-.4 0-36.2-1.5-49.6 24.7-.6 1.1-1.7 1.7-2.9 1.7-.3 0-8 .2-15.6 13.6-3.5 6.1-7.7 11.5-11.4 16.2-5.3 6.7-9.8 12.5-8.7 16.1.6 1.9 1.4 4.3 2.3 6.8 3.1 9 7.1 20.2 7.7 28.3.2 1.9.1 4.3.1 6.8-.1 6.7-.3 15.8 3.8 19.2 2 1.7 5.3 2.1 9.6 1.2 5.1-1 9.2-5.2 12.1-12.3 6-14.9 4.2-38.1 0-44.2-7.7-11.1-11.2-35.5-6.1-42.2 1.1-1.4 3-1.6 4.4-.6 1.4 1.1 1.6 3 .6 4.4-2.6 3.5-.9 24.5 6.3 34.8 5.8 8.4 7.3 33.6.6 50.1-3.6 9.1-9.4 14.6-16.6 16.1-2 .7-3.8.9-5.5.9z" fill="#3f0f33"/></g></g></g><g><g><g><path d="m409.6 214.1c-1.7 0-3.5-.2-5.4-.6-6.9-1.4-12.6-6.5-16.2-14.6-7-15.6-5.8-41.3.1-51.4 6.4-11.1 9-31.6 6.4-35-1.1-1.4-.8-3.3.6-4.4s3.3-.8 4.4.6c5.4 7.1.2 31.3-5.9 42-4.5 7.7-6.4 30.8.2 45.7 2.8 6.3 6.8 10 11.7 11 4.4.9 7.6.5 9.6-1.2 4.1-3.4 3.9-12.6 3.8-19.2-.1-2.5-.1-4.9.1-6.8.6-8.1 4.6-19.3 7.7-28.3.9-2.6 1.7-4.9 2.3-6.8 1.2-3.6-3.4-9.4-8.7-16.1-3.7-4.7-7.9-10.1-11.4-16.2-7.6-13.5-15.3-13.6-15.6-13.6-1.2 0-2.3-.7-2.9-1.7-13.4-26.3-49.2-24.7-49.5-24.7-1.7.1-3.2-1.2-3.3-3-.1-1.7 1.2-3.2 3-3.3 1.6-.1 39-1.7 54.7 26.7 3.8.7 11.9 3.7 19.2 16.6 3.2 5.7 7.3 10.9 10.9 15.4 6.6 8.4 11.9 15.1 9.7 21.9-.6 2-1.5 4.4-2.4 7-2.9 8.2-6.8 19.5-7.4 26.8-.1 1.6-.1 3.8 0 6.2.2 8.4.4 18.8-6 24.2-2.7 1.8-5.9 2.8-9.7 2.8z" fill="#3f0f33"/></g></g></g><g><g><g><path d="m348.6 183.2c-3.1 0-6.3-1.1-8.8-3.4l-11-9.9c-.7-.6-1-1.4-1-2.3 0-8.8 9.2-15.7 20.9-15.7 11.2 0 20.3 7.3 20.3 16.4 0 .9-.4 1.8-1.1 2.3l-10.4 9.2c-2.6 2.3-5.7 3.4-8.9 3.4zm-14.4-16.9 9.8 8.8c2.8 2.5 6.5 2.5 9.3 0l9.2-8.2c-.9-4.9-6.8-8.8-13.9-8.8-7.3.1-13.4 3.6-14.4 8.2z" fill="#3f0f33"/></g></g></g><g><g><g><circle cx="311.7" cy="116.5" fill="#3f0f33" r="8.3"/></g></g></g><g><g><g><circle cx="375.2" cy="116.5" fill="#3f0f33" r="8.3"/></g></g></g><g><g><g><path d="m336.6 194.3c-5.8 0-12.6-.9-17.7-4.3-9.9-6.5-7.4-17.2-4.7-22 .9-1.5 2.8-2 4.3-1.2s2 2.8 1.2 4.3c-.5.9-4.6 8.9 2.7 13.7 6.3 4.1 17.1 3.5 22.9 2.6v-7.3c0-1.7 1.4-3.1 3.1-3.1s3.1 1.4 3.1 3.1v9.9c0 1.5-1 2.7-2.4 3.1-.5 0-5.9 1.2-12.5 1.2z" fill="#3f0f33"/></g></g></g><g><g><g><path d="m357.3 194.2c-5.2 0-9.5-1.2-9.8-1.3-1.7-.5-2.6-2.2-2.2-3.9.5-1.7 2.2-2.6 3.9-2.2 3.3.9 13 2.4 18-1.7 2.8-2.3 4-6.2 3.6-11.7-.1-1.7 1.2-3.2 2.9-3.4 1.7-.1 3.2 1.2 3.4 2.9.6 7.7-1.4 13.4-5.8 17.1-4.1 3.3-9.4 4.2-14 4.2z" fill="#3f0f33"/></g></g></g><g><g><g><path d="m312 211.4c-.7 0-1.3-.2-1.9-.6-18.6-14.2-18.4-38.4-18.3-39.4 0-1.7 1.5-3.2 3.2-3.1 1.7 0 3.1 1.5 3.1 3.2 0 .2-.1 22 15.9 34.3 1.4 1.1 1.6 3 .6 4.4-.7.8-1.6 1.2-2.6 1.2z" fill="#3f0f33"/></g></g></g><g><g><g><path d="m362 413.9h-24.9c-9.1 0-17.5-17.9-17.9-22.6-.2-2 .2-8 .9-17.7.6-8.3 1.2-17.6 1-20.4-.1-1.7 1.2-3.2 2.9-3.3s3.2 1.2 3.3 2.9c.2 3.2-.4 11.9-1 21.2-.5 7.1-1 15.1-.9 16.8.3 3.4 7.6 16.9 11.7 16.9h24.9c3.8 0 7.1-2.9 7.5-6.6.1-.6.1-1.2.1-1.8 0-3.4-9.1-9-12.5-11.1-2.7-1.6-3.8-2.3-4.4-3.2-2.5-3.2-6.2-22.8-2.4-40.7 2.4-11.3 8.3-21.1 15.1-32.5 4.5-7.6 9.7-16.2 14.7-26.7 8.5-17.7 2-45.6-1.9-62.3-2.3-9.8-3-13.3-2-15.6 2-4.9 8.2-23 8.3-23.2.6-1.6 2.3-2.5 4-2 1.6.6 2.5 2.3 2 4-.3.7-6.1 18.1-8.3 23.4-.1 1.5 1.2 7 2.3 11.9 4.1 17.5 10.9 46.8 1.4 66.4-5.2 10.8-10.4 19.5-15 27.2-6.8 11.4-12.2 20.4-14.4 30.6-3.6 16.6.1 32.8 1.2 35.4.5.4 1.8 1.1 2.8 1.8 6.2 3.8 15.5 9.5 15.5 16.4 0 .8 0 1.7-.1 2.4-.8 7-6.8 12.4-13.9 12.4zm20.1-204.7" fill="#3f0f33"/></g></g></g><g><g><g><path d="m297.7 359.5c-2.6 0-5.3-.1-8.1-.4-1.7-.2-3-1.7-2.8-3.4s1.7-3 3.4-2.8c47.9 4.9 57.2-38.2 57.6-40 .3-1.7 2-2.8 3.7-2.5s2.8 2 2.5 3.7c0 .5-9.6 45.4-56.3 45.4z" fill="#3f0f33"/></g></g></g><g><g><g><path d="m282.3 425.2c-10 0-20.6-1.9-24-3.8-5.4-2.9-5.1-15.9-2.5-44 .5-5.1.9-9.5.9-11.5 0-3.5-3.3-9.6-7-16.6-3.8-7-8.5-15.8-12.1-25.9-7.6-21.4 1.2-51.5 1.6-52.8.5-1.7 2.2-2.6 3.9-2.1s2.6 2.2 2.1 3.9c-.1.3-8.6 29.4-1.7 48.9 3.4 9.7 8 18.2 11.7 25.1 4.5 8.4 7.8 14.5 7.8 19.6 0 2.3-.4 6.6-.9 12.1-.9 10.3-3.1 34.3-.6 38 4.7 2.3 26.5 4.8 34.2.8 1.1-.6 1.7-1.2 1.8-1.8.8-5.9-.8-8.5-2.8-11.8-1-1.7-2-3.4-2.8-5.5-.7-1.9-1-5.3-1.4-11.5-1-12.9-2.7-34.5-10.9-42.4-13.8-13.2-7-30.8-6.7-31.5.6-1.6 2.5-2.4 4.1-1.8s2.4 2.5 1.8 4.1c-.2.6-5.4 14.4 5.2 24.7 9.9 9.5 11.6 31.7 12.8 46.4.3 4.3.7 8.7 1.1 9.9.5 1.5 1.4 2.9 2.2 4.4 2.2 3.7 4.7 7.9 3.6 15.9-.3 1.9-1.4 4.6-5.2 6.6-3.9 1.8-9.9 2.6-16.2 2.6z" fill="#3f0f33"/></g></g></g><g><g><g><path d="m106.7 384.4c-5.9 0-11.7-.7-15.3-1.6-2.7-.7-5-2.3-6.4-4.7-4.1-7-1.1-18.8.6-25.2.2-.7.4-1.4.5-1.8.7-2.9-3.6-15.4-5.7-21.4-1-2.8-1.8-5.2-2.3-6.9-2.3-7.8 3.9-14 9.4-19.4l1.3-1.3c1.6-1.6.7-12.1.1-19.1-1.1-12.4-2.4-27.9 1.9-38.8 8.2-21.2 26.5-39.2 47.8-47 22.2-8.2 117.6-.5 121.6-.2 1.7.1 3 1.7 2.9 3.4s-1.7 3-3.4 2.9c-1-.1-98-7.9-118.9-.2-19.7 7.2-36.6 23.9-44.1 43.4-3.7 9.5-2.5 24.2-1.5 36 1 11.9 1.7 20.4-1.9 24.1l-1.3 1.3c-5.6 5.6-9 9.3-7.8 13.2.5 1.6 1.3 3.9 2.2 6.6 3.9 11.5 6.9 20.6 5.9 24.8-.1.5-.3 1.2-.5 2-1.2 4.7-4.1 15.7-1.2 20.4.6 1 1.4 1.6 2.5 1.8 11.3 2.8 27.5 1 28.9-1.7.5-1.1.3-3.4-1.1-6-2.2-3.9-6-6.6-10.3-7.2-1.3-.2-2.3-1.2-2.6-2.4-.4-2.1-4.3-20.5-2.3-28.7 2.2-9 15-20.7 23.5-23.7 2.8-1 9.2-5.6 21.3-25.5 5.3-8.6 16-7.9 20.9-6.3 1.7.5 2.6 2.3 2 3.9-.5 1.6-2.3 2.6-3.9 2-.4-.1-9.6-2.9-13.6 3.6-10.2 16.7-18.2 25.9-24.6 28.2-6.6 2.3-17.8 12.7-19.5 19.3-1.3 5.1.7 17.5 1.9 23.8 5.3 1.4 9.9 5 12.6 9.9 2.3 4 2.8 8.4 1.4 11.6-2.3 5.3-11.8 6.9-21 6.9z" fill="#3f0f33"/></g></g></g><g><g><g><path d="m246.4 339.3c-.5 0-1-.1-1.5-.4-.1-.1-9.4-4.9-27.6-8.1-44.2-7.8-71-35.3-72.2-36.5-1.2-1.3-1.2-3.2.1-4.4s3.2-1.2 4.4.1c.3.3 26.6 27.3 68.7 34.7 19.3 3.4 29 8.5 29.4 8.8 1.5.8 2.1 2.7 1.3 4.3-.4.9-1.5 1.5-2.6 1.5z" fill="#3f0f33"/></g></g></g><g><g><g><path d="m162.6 366.7c-4.8 0-9.3-.1-12-.5-9.4-1.2-8.9-12.6-8.6-19.4 0-1.2.1-2.3.1-3.3 0-4.4-7.5-22.8-12.2-33.5-.7-1.6 0-3.4 1.6-4.1s3.4 0 4.1 1.6c2.1 4.8 12.8 29 12.8 36 0 1.1 0 2.3-.1 3.6-.3 6.8-.2 12.5 3.1 13 3.4.4 11.3.5 22.1.3 1 0 1.9-.6 2.4-1.5.2-.4.6-1.5-.2-2.7-1-1.5-2.9-2.7-5.1-4.2-1.3-.9-2.8-1.9-4.3-3.1-6.2-5-9.3-10.2-9.1-15.5.4-8.8 9.4-14.8 15.4-18.8 1.4-1 2.9-2 3.5-2.5 1.2-1.2 3.2-1.2 4.4 0s1.2 3.2 0 4.4c-1 1-2.5 2-4.4 3.2-4.6 3.1-12.3 8.2-12.6 13.9-.1 3.2 2.1 6.7 6.7 10.4 1.3 1 2.6 1.9 3.9 2.8 2.6 1.7 5 3.4 6.7 5.8 1.9 2.7 2.1 6.1.6 9.1s-4.5 4.9-7.9 5c-3.3-.1-7.2 0-10.9 0z" fill="#3f0f33"/></g></g></g></g></g></svg>