<svg id="Layer_1" enable-background="new 0 0 512 512" height="512" viewBox="0 0 512 512" width="512" xmlns="http://www.w3.org/2000/svg"><g><g><g><g><path d="m409 429.6c-16 2.5-17.4 3.5-30.2 3.3-18.5-.4-30-12.9-30.1-13l-1.7 4.2c14.9-43.2 1.1-66.5 1.1-66.5-14.1-39.8-80.4-109.5-89.3-118.8l-1.2-1.9c-1-4.8-5.9-11-9.9-15.9l-4.6-7.4s-1.3-25.5-8.7-40.5c-.1-1.6-.2-3.3-.3-5 0 0 0 .1 0 0-.7-9-1.7-17.8-1.2-20.8 1.1-6.3 1.1-27.1 1.4-30.6s5.2-11.6 7.7-15.4 3-17 1.7-29.1c-1.3-12.2 9.3-47.9 9.3-47.9-5.5 4.8-24.4 34.4-27.1 40.5s-12.6 16-12.6 16c-16.5-6.3-32.7-2.6-35.2-2.3-2.4.3-8.3-11.6-7.2-20.8s-9.2-41.3-11.1-41.6c-1.8-.3-13.7 76.1-11.8 85.3 1.8 9.2-.4 17.4 3.3 20.8s-2.2 20.5 2.2 28.3 2.2 44.4 2.8 55.8c-7.8 10.8-40.5 62.2-7.8 119.5 0 0-5.5 28.7-5.5 47.6s-13.6 73.7-24.2 78-19.2 8-18.7 17c0 0 31.8 3.3 37.8-2.4 6.1-5.7 3-16.3 9.6-26.4s30.6-86.8 30.6-86.8l-.3-2.6c7.3 9.1 17.2 18.1 30.2 23.7.8.6 1.6 1.1 2.2 1.6-.9 4.8-1.9 9.1-2.9 12.4-4.8 16.1-10 64.3-14.8 71.6-4.9 7.2-18.2 25-12.5 30.5 5.7 5.6 31.5-2.2 38.7-2.9 7-.6.8-13.2.1-35.4h1.5c11.9-.1 43.5-.8 66.8-3.2 8.2-.7 14.3-1.4 15.8-2.2l-.8.1c.6-.1 1.2-.2 1.8-.4.4.2.7.5 1.1.7.6.4 1.1.7 1.7 1.1 2.5 11.4-22.8 9-33 11.4s-9 14.3-9 14.3c-1.7 16.5 84.8 1.2 86.5-8.3 1.7-9.4-13.9-18.1-13.9-18.1 2.4-4.7 4.5-9.2 6.3-13.6 6.6 5.2 18.8 12.5 35.1 12.8h1.6c14.2 0 56.9-8.2 57.4-11.8.2-3.8-14.3-7.2-28.7-4.9zm-190.5 22.1h.5zm-.6-21.9 6.8-19 15.5 18.5z" fill="#e8a772"/></g></g></g><g><g><g><path d="m216.5 132.1c7-2.8 11.4-7.8 10.8-18.9s-21.7-15.2-21.7-15.2c-14.8 1-2.9 21.9-2.9 21.9s-7.8.8-9.6 2.1c-1.8-1.3-9.6-2.1-9.6-2.1s9.8-20.8-5.1-21.9c0 0-18.8 4.1-19.4 15.2s3.8 16.1 10.8 18.9-1.4 11.8-1.1 14.5c0 .2.1.8.1 1.6-.9 6.2-.1 28.4 2.5 42.9.8 8 1.7 14.1 2.9 14.4.7.2 1.7-.4 2.9-1.4 5.5-.1 13.2-12.8 16-17.7 2.8 4.9 10.5 17.7 16 17.7 1.2 1.1 2.3 1.6 2.9 1.4 1.2-.4 2.2-6.4 2.9-14.4 2.5-14.5 3.3-36.7 2.5-42.9 0-.8.1-1.3.1-1.6.4-2.7-8-11.7-1-14.5z" fill="#5b4d60"/></g></g></g><g><g><g><path d="m257.1 297.4s13.4 50 33.6 58.4c0 0-18.8-5.3-26.1 18.3-9.2 30.1 39 71.8 39 71.8l-85.1 5.8 1.5-21.6 20.2-.8-14.5-20.6c.1 0 28-88.4 31.4-111.3z" fill="#ad6845"/></g></g></g><g><g><g><path d="m177.8 78.4s-6.1-9.8-7.2-20.8-11.1-41.6-11.1-41.6-12 79.9-11.8 85.3c.2 5.3 19.4-19.8 30.1-22.9z" fill="#5b4d60"/></g></g></g><g><g><g><path d="m213 80.7s10.4-13.1 12.6-16 16-26.3 25.3-34.2c0 0-8.4 35.9-7.5 41.5s-1.7 29.1-1.7 29.1l-7.7 15.4c.1.1-13.5-33.6-21-35.8z" fill="#5b4d60"/></g></g></g><g><g><g><path d="m367.4 431-6.2 12.1-16-8.3 3.5-15s12.9 12.2 18.7 11.2z" fill="#ad6845"/></g></g></g><g><g><g><path d="m179.3 204c8.4 3.2 17.1 3.3 25.9 0l-12.1-22.5z" fill="#ad6845"/></g></g></g><g><g><g><path d="m237.6 181.5s-10.9 24.1-25.9 21.9c0 0 21.7 17.2 29.3 9.1 7.5-8.1-3.4-31-3.4-31z" fill="#ad6845"/></g></g></g><g><g><g><path d="m209.9 375.5s-73-29.8-50.9-128.8c0 0 12.1 79 53.1 92.4 0 0 2.8 32.1-2.2 36.4z" fill="#ffdcc0"/></g></g></g><g><g><g><path d="m187.7 148.6c-.7.3 12.5 3.8 13 5.8s-4.7 9.2-4.7 9.2 9.6-6.6 9.2-9.9c-.3-3.4-14.4-6.6-17.5-5.1z" fill="#fff"/></g></g></g><g><g><g><g><path d="m283.7 483.4c-3.5 0-6.7-.2-9.3-.5-10.9-1.5-12.9-5.9-12.7-9.5-.4-5 1.4-14.7 11.2-17 3-.7 7-1 11.2-1.3 7.2-.5 17-1.3 19.4-4.4.3-.4.6-1.1.3-2.3-.3-1.5.6-3 2.1-3.3s3 .6 3.3 2.1c.6 2.6.1 4.9-1.3 6.8-3.8 5.2-13.8 5.9-23.4 6.6-4 .3-7.8.6-10.4 1.2-7.7 1.8-6.9 11-6.9 11.4v.5c-.1 1.1 1.1 2 3.5 2.8 18.1 5.8 73.6-5.8 77.5-12 .9-6.1-8.9-13.1-12.5-15.1-1.3-.7-1.8-2.4-1.1-3.7 28.6-55.6 11.2-86.5 11.1-86.8-.1-.2-.2-.3-.2-.5-14.7-41.6-88.9-118.1-89.7-118.9-.4-.4-.7-1-.8-1.6-.9-7.6-10.4-18.9-13.9-22.5-.8-.9-1-2.2-.4-3.2 2.7-5-3.8-28.3-9.2-43.2-.5-1.4.2-3 1.6-3.5s3 .2 3.5 1.6c2.2 6 12.3 34.8 9.6 45.8 3.3 3.7 12.5 14.4 14.1 23.5 7.7 8 75.5 78.8 90.2 120 1.9 3.3 17.6 34.6-9.9 89.6 4.7 3.1 14.5 10.7 13 19.6-1.7 9.4-45.1 17.8-69.9 17.8z" fill="#3f0f33"/></g></g></g><g><g><g><path d="m187.6 494.7c-4.4 0-7.8-.8-9.8-2.8-6.3-6.1 1.7-18.9 10.4-31.6.6-.9 1.2-1.8 1.7-2.5 2.4-3.6 5.5-22.2 7.9-37.2 2.2-13.6 4.4-26.5 6.5-33.6 4.9-16.2 9.9-53.5-5.5-65.4-1.2-.9-1.4-2.7-.5-3.9s2.7-1.4 3.9-.5c19.2 14.8 11.9 56.5 7.4 71.3-2.1 6.8-4.2 20.1-6.4 32.9-3.6 21.7-5.9 35.1-8.8 39.4-.5.7-1.1 1.6-1.7 2.5-9.7 14-13.4 22.2-11.1 24.4 3.2 3.1 19.5-.3 27.4-2 4-.8 7.1-1.5 9.2-1.7.3 0 .5-.1.5-.1.8-.9 0-6.6-.7-11.2-.9-6.1-2.1-13.6-2.3-22.9-.4-20.6 9.6-50.9 23.5-92.9 2.2-6.5 4.4-13.3 6.7-20.4 16.5-50.3 4.5-72.1 4.4-72.4-.8-1.3-.3-3 1-3.8s3-.3 3.8 1c.6.9 13.4 23.8-3.9 76.9-2.3 7.1-4.6 13.9-6.7 20.4-13.7 41.4-23.6 71.3-23.2 91 .2 9 1.3 16.3 2.2 22.2 1.2 7.8 1.9 12.5-.4 15.5-1 1.3-2.5 2-4.3 2.2-1.7.2-4.9.8-8.5 1.6-8.7 2.1-16.6 3.6-22.7 3.6z" fill="#3f0f33"/></g></g></g><g><g><g><path d="m118 472c-8.1 0-15.9-.7-18.5-1-1.3-.1-2.4-1.2-2.5-2.6-.6-11.3 10.5-15.8 20.4-19.7 8.1-3.3 22.5-54.9 22.5-75.4 0-17.2 4.4-41.8 5.4-47.1-36.4-65.1 9.7-123.3 10.2-123.9 1-1.2 2.7-1.4 3.9-.4s1.4 2.7.4 3.9c-.5.6-44.6 56.5-9.1 118.6.3.6.4 1.2.3 1.9-.1.3-5.5 28.7-5.5 47 0 18.1-13.2 75.4-25.9 80.6-9.5 3.8-15.7 6.7-16.8 12 12.6 1.1 29.7 1.2 33-1.9 2.4-2.2 3-5.8 3.8-10.2.8-4.8 1.8-10.2 5.4-15.7 5.2-8 23.6-64.8 30.3-86.1.5-1.5 2-2.3 3.5-1.8s2.3 2 1.8 3.5c-1 3.1-24.3 77.2-30.9 87.4-2.9 4.5-3.7 9.1-4.5 13.6-.9 5-1.7 9.8-5.5 13.3-3.7 3.1-12.9 4-21.7 4z" fill="#3f0f33"/></g></g></g><g><g><g><path d="m210 377.7c-.3 0-.7-.1-1-.2-36.4-14-50.1-53.8-50.7-55.5-.5-1.4.3-3 1.7-3.5s3 .3 3.5 1.7c.1.4 13.5 39.1 47.4 52.1 1.4.5 2.1 2.1 1.6 3.6-.3 1.1-1.4 1.8-2.5 1.8z" fill="#3f0f33"/></g></g></g><g><g><g><path d="m277 437.6c-.5 0-.9-.1-1.3-.3-25.1-14-43.6-51.8-44.4-53.4-.7-1.4-.1-3 1.3-3.7s3-.1 3.7 1.3c.2.4 18.5 37.8 42.1 51 1.3.7 1.8 2.4 1.1 3.8-.6.7-1.6 1.3-2.5 1.3z" fill="#3f0f33"/></g></g></g><g><g><g><path d="m260.8 442.3c-.3 0-.5 0-.8-.1-31.8-9.4-36.7-32-36.9-32.9-.3-1.5.7-3 2.2-3.3s3 .7 3.3 2.1c.2.8 4.7 20.4 33.1 28.7 1.5.4 2.3 2 1.9 3.4-.5 1.3-1.6 2.1-2.8 2.1z" fill="#3f0f33"/></g></g></g><g><g><g><path d="m233.3 433.8c-5.6 0-11.5-.9-13.2-1.2-1.5-.3-2.5-1.7-2.3-3.2.3-1.5 1.7-2.5 3.2-2.3 6.1 1 15.8 1.8 18.5.3 1.3-.8 3-.3 3.8 1.1.7 1.3.3 3-1.1 3.8-2 1.1-5.4 1.5-8.9 1.5z" fill="#3f0f33"/></g></g></g><g><g><g><path d="m218.5 454.4c-1.5 0-2.7-1.2-2.8-2.7 0-1.5 1.2-2.8 2.7-2.8 37.2-1.1 78.9-3.3 83-5.2 1.4-.6 3-.1 3.7 1.3s.1 3-1.2 3.6c-6.4 3.3-72.2 5.4-85.4 5.8.1 0 .1 0 0 0z" fill="#3f0f33"/></g></g></g><g><g><g><path d="m317.6 456.1c-.3 0-.6 0-.9-.2-.2-.1-5.8-2-13.4-7-13.6-8.8-31.6-25.5-40.2-55.1-3.7-12.7-2.4-22.7 3.9-29.9 14-16 47.4-11.1 48.9-10.9s2.5 1.6 2.3 3.1-1.7 2.6-3.1 2.3c-.3 0-31.9-4.6-43.9 9.1-5 5.7-5.9 14-2.8 24.7 8.1 28 25.1 43.7 37.9 52 7 4.5 12.2 6.4 12.2 6.4 1.4.5 2.2 2.1 1.7 3.5-.4 1.3-1.5 2-2.6 2z" fill="#3f0f33"/></g></g></g><g><g><g><g><path d="m380.1 449c-.6 0-1.1 0-1.6 0-17.7-.3-30.8-8.6-37-13.6-1.2-.9-1.4-2.7-.5-3.9 1-1.2 2.7-1.4 3.9-.5 5.7 4.5 17.6 12.1 33.7 12.4h1.5c12.8 0 44.6-6.2 53.2-9.6-3.8-1.6-13.3-3.2-23.9-1.6-3.6.6-6.4 1.1-8.8 1.5-8.5 1.5-11.7 2-21.9 1.8-19.7-.4-32-13.8-32.1-14-1-1.1-.9-2.9.2-3.9s2.9-.9 3.9.2c.2.2 11.1 11.8 28.1 12.1 9.7.2 12.5-.3 20.8-1.7 2.4-.4 5.3-.9 8.9-1.5 12.1-1.9 25.9-.1 30.1 4 1.6 1.5 1.6 3.1 1.5 3.9-.3 1.9-.6 4.6-25.7 9.6-11.4 2.5-26.5 4.8-34.3 4.8z" fill="#3f0f33"/></g></g></g></g><g><g><g><path d="m156 209.2c-1.5 0-2.7-1.1-2.8-2.6-.2-3.2-.1-8.5 0-14.6.2-13.2.4-35.3-2.4-40.2s-2.2-12.1-1.6-18.4c.3-3.3.7-8.2-.1-9.2-3-2.8-3.1-7.2-3.3-12.4-.1-3-.2-6.4-.9-9.9-1.6-8.9 9.1-84.3 12.6-87.9.6-.7 1.7-1 2.6-.8 1.4.3 3.3.6 8.8 19.4 1.6 5.5 5.3 19.1 4.5 25.2-.9 7.1 3 15.7 4.8 17.6h.1c12.5-2.2 23.9-1.5 34 2 3.2-3.4 9-9.9 10.8-13.9 2.9-6.4 22.1-36.4 27.8-41.5.9-.8 2.3-.9 3.3-.3 1 .7 1.5 1.9 1.2 3.1-.1.4-10.4 35.3-9.2 46.8 1.3 11.8 1 26.2-2.1 30.9-4.1 6.3-7.1 12.1-7.2 14.2-.1 1-.1 3.9-.2 7.3-.2 8.1-.4 19.1-1.2 23.6-.3 1.8.2 7.4.7 12.8 1.5 16.7 2.2 28.9-2.4 32.7-1.2 1-2.9.8-3.9-.3-1-1.2-.8-2.9.3-3.9 2.7-2.2 1.1-20.3.4-27.9-.6-7.3-1-11.8-.6-14.2.7-4.1 1-15.4 1.1-22.8.1-3.7.1-6.4.2-7.6.3-4.2 5.2-12.3 8.1-16.7 1.8-2.7 2.7-14.3 1.3-27.3-.9-7.8 2.8-24.1 5.8-35.8-7.3 10.5-16.6 25.4-18.3 29.2-2.9 6.5-12.7 16.4-13.2 16.8-.8.8-1.9 1-2.9.6-9.6-3.6-20.6-4.4-32.8-2.3-.4.1-.8.1-1 .2-1.3.2-2.5-.3-3.7-1.5-3.3-3.3-7.7-13.9-6.6-22.4.7-6.1-4.3-23.7-7.6-33.3-3.6 18.6-11.2 69.6-9.8 76.7.8 3.9.9 7.6 1 10.8.1 3.9.2 7.3 1.5 8.5 2.7 2.5 2.3 7.5 1.8 13.7-.4 5.3-1 11.8 1 15.3 3.3 5.8 3.3 22.2 3.1 43-.1 6-.1 11.2 0 14.2.1 1.5-1.1 2.8-2.6 2.9-.3.2-.3.2-.4.2z" fill="#3f0f33"/></g></g></g><g><g><g><path d="m192.5 167.9c-2.5 0-5-.9-7.1-2.6l-8.8-7.3c-.6-.5-1-1.3-1-2.1 0-6.7 7.4-12 16.9-12 9.2 0 16.4 5.5 16.4 12.5 0 .8-.4 1.6-1 2.1l-8.3 6.8c-2.1 1.7-4.6 2.6-7.1 2.6zm-11.2-13.2 7.6 6.3c2.1 1.7 5.1 1.7 7.2 0l7.1-5.8c-.9-3.3-5.5-5.8-10.8-5.8-5.4-.1-10.1 2.3-11.1 5.3z" fill="#3f0f33"/></g></g></g><g><g><g><path d="m176 208.2c-1.1 0-2.1-.3-3-.9-8.3-5.5-7.5-55.8-5.9-61.5 2.3-8 15-14.4 16.5-15.1 1.4-.7 3-.1 3.7 1.3s.1 3-1.3 3.7c-4.6 2.2-12.3 7.3-13.6 11.6-2.2 7.7-.7 51.6 3.7 55.4 2.3 0 8.8-9.5 13.6-19.9v-17.8c0-1.5 1.2-2.8 2.8-2.8s2.8 1.2 2.8 2.8v18.4c0 .4-.1.8-.3 1.1-1.6 3.5-10 21.3-17.3 23.4-.6.3-1.1.3-1.7.3z" fill="#3f0f33"/></g></g></g><g><g><g><path d="m209.5 206.8c-.1 0-.2 0-.3 0-7-.3-15.7-15.5-19.1-22-.7-1.4-.2-3 1.2-3.7 1.3-.7 3-.2 3.7 1.2 5.2 9.9 12.1 18.9 14.5 19 .3 0 .9 0 1.6-.8 2.7-2.7 4.5-10.5 4.1-17.8-.2-3.4-.2-8.7-.3-14.4-.1-9.8-.2-22-1-25.8-1-4.6-9.1-7.6-10.9-7.6-1.5 0-2.8-1.2-2.8-2.7s1.2-2.8 2.7-2.8h.1c3.3 0 14.6 3.6 16.4 11.9.9 4.4 1 15.9 1.1 26.9.1 5.6.1 10.9.3 14.2.4 7.4-1.2 17.4-5.7 21.9-1.7 1.6-3.6 2.5-5.6 2.5z" fill="#3f0f33"/></g></g></g><g><g><g><path d="m205.2 125.8c-.4 0-.8-.1-1.2-.3-12.9-5.9-21.8-1.3-22.1-1.1-1.3.7-3 .2-3.7-1.1s-.3-3 1.1-3.7c.5-.3 11.6-6.2 27.1.9 1.4.6 2 2.3 1.4 3.7-.5 1-1.5 1.6-2.6 1.6z" fill="#3f0f33"/></g></g></g><g><g><g><path d="m159 94.1c-.6 0-1.2-.2-1.7-.6-1.2-.9-1.5-2.6-.5-3.9.3-.5 8.7-11.3 23.2-14.4 1.5-.3 3 .6 3.3 2.1s-.6 3-2.1 3.3c-12.5 2.7-19.9 12.2-20 12.3-.5.9-1.3 1.2-2.2 1.2z" fill="#3f0f33"/></g></g></g><g><g><g><path d="m227.1 103.1c-1.1 0-2.2-.7-2.6-1.8-1.6-4.3-6.8-15.9-12.5-18-1.4-.5-2.2-2.1-1.6-3.6.5-1.4 2.1-2.2 3.6-1.6 9 3.4 15.1 19.5 15.7 21.3.5 1.4-.2 3-1.7 3.5-.3.1-.6.2-.9.2z" fill="#3f0f33"/></g></g></g><g><g><g><ellipse cx="167.6" cy="115.3" fill="#3f0f33" rx="6.6" ry="6.4"/></g></g></g><g><g><g><ellipse cx="218.3" cy="115.3" fill="#3f0f33" rx="6.6" ry="6.4"/></g></g></g><g><g><g><path d="m192.3 122.6c-1.5 0-2.8-1.2-2.8-2.8v-13.3c0-1.5 1.2-2.8 2.8-2.8 1.5 0 2.8 1.2 2.8 2.8v13.3c-.1 1.6-1.3 2.8-2.8 2.8z" fill="#3f0f33"/></g></g></g></g></g></svg>