<svg id="Layer_1" enable-background="new 0 0 512 512" height="512" viewBox="0 0 512 512" width="512" xmlns="http://www.w3.org/2000/svg"><g><g><g><g><path d="m414.7 207.5c2.1-12-5-38.4-5-38.4s10.2-11.1 10-15.6-10.4-59.1-13.2-63.6l-1.7.1c-7.7-34-33-79.4-40.7-74.6-7.9 4.9-12.8 37.8-12.8 37.8-5.6-2-23.1-.5-23.1-.5s-14.2-32.3-24.4-30.6c-10.2 1.6-19.4 58.3-15.5 74.2 0 0-22.4 41-20.5 48 .6 2.2 2.3 5.4 4.4 8.8 2 4.4 5.5 10 11 15.9s-3.4 7.8-2.8 14.5l-1.8 9.5c-2 1.6-4.2 3.7-4.1 9.4-13.9 3.7-108.8 84-134.9 219.3l-1.2 1.1s-12.3-3.2-24-12.7l-19.9-31.7c-.7-3.3-1.2-6.9-1.3-10.7-1.2-43.5 37.3-54.9 37.3-54.9s-82.5-35.4-89.5 59.4 89.5 74.3 89.5 74.3h1.5c0 10.7 6.9 22.3 34.9 25.3 55.5 5.9 129.2 0 129.2 0s0 0 0 0c.4 2.6 1 4.6 1.9 5.8 4.8 6.2 41.2 5.9 49.6 1.7 8.4-4.1-4.7-15.7-8.2-18.3-2.3-1.6-7.2-31.6-7.7-60 9.4-5.1 17.7-10.8 25.1-16.9.6 36.4 11.7 87.6 16.4 90.3 3 1.8 20 2.8 31.8 3.3 6.3.3 10-7.1 5.8-12-2.9-3.4-6.5-7.4-10.3-13.2-8.7-13.4-6.2-115.3-6.2-115.3 29.8-56.9 18.9-121.3 20.4-129.7zm-118.9 253.4c-2.7-6.8-11.2-13.8-35.6-11.1l.1-1.2c15.5-10.5 32.4-26.9 31.9-48.7 1.1 8.2 1.9 16.1 2.7 22.9 1.4 13.4.8 27.4.9 38.1z" fill="#fff"/></g></g></g><g><g><g><path d="m318.2 164.6s-4.5 7.4 10.1 10.3 31.4.6 32-11l-28.2-2.6z" fill="#d1c5c1"/></g></g></g><g><g><g><path d="m386.5 72.6s-5.6-26.5-18.7-38.1l-9.9 32.5s27 8.1 28.6 5.6z" fill="#d1c5c1"/></g></g></g><g><g><g><path d="m319.1 62s-13.6-20.3-15.2-20.6-8.4 31.8-6.9 40.2c1.5 8.5 21.7-14.3 22.1-19.6z" fill="#d1c5c1"/></g></g></g><g><g><g><path d="m389.4 181.7s-28.4 11.1-49.4 6.9c0 0 36.4 12.9 49.4 13.8 13.1.9 3.6 111-49.4 149l-7 26-.9 23.6 25.1-16.9s2.9 88.2 16.4 90.4 31.8 3.3 31.8 3.3 10.9-2.3 5.8-12-12.3-14.8-13.8-26.7c-1.5-12-2.7-101.8-2.7-101.8s38.2-71.8 14.9-168.3z" fill="#d1c5c1"/></g></g></g><g><g><g><path d="m282.2 191.6c-6.9 2.3-7.5 10.8-7.5 10.8s-41.7 15.2-86.8 92.7-47.4 130.9-47.4 130.9c-107-3.8-89.1-93.2-89.1-93.2-44.5 141.8 79.3 113.8 79.3 113.8l3.5 9.1c2.4 15.3 54.3 15.9 54.3 15.9 87.9-35.3 96-70.5 80.9-93.9-15.1-23.3-93.9 0-93.9 0 54.3-37.2 84.8-22.7 84.8-22.7l25.4 11.3s49.2-80.4 32.6-105.8c-7.2-11.1-12.4-22.2-16-31.2-2.2-5.5 4-10.6 9-7.4 26 16.3 54.1 15.7 54.1 15.7s-28.3-14.4-34.5-30.8-27.2-25.5-38.6-29.6c-2.6-1-5.4-2.9-8-5.5l-4.3 8.5z" fill="#5b4d60"/></g></g></g><g><g><g><path d="m407.9 99.9c-4.3-12.8-15.5-26.7-31.1-34.2-6.7-3.2-14.3-6.1-21-8.5 1.3-6.2 6.9-32.5 9.4-32.9 2.8-.5 20.1 19.1 24.1 29 0 0-17.5-41.7-25.4-37.9-5.5 2.6-11.9 25.4-15.3 39.5-5.2-1.7-8.7-2.7-8.7-2.7l-5.6.1c-1.6.8-3.1 1.7-4.6 2.6-6-9.3-21.7-33.1-26-32.8-5.2.4-15.5 46.1-15.5 46.1s13.4-37.4 17-37.9c3.1-.4 14.6 21.4 18.2 28.4-31.5 21.1-46.2 53.3-52.4 72.6-2.2 6.8-1.5 13.1.3 18.5-1.2-4.6.2-14.6 1.4-18.4 2.6-8.7 5.9-17.8 11.5-20.5 8.9-4.4 17.8-3.2 23.6-2.4 4.7.6 10.2 1.5 13.9 2.5.3.1.6.1.9.2 2.6.4 4.5 2.7 4.2 5.4-.7 5.9-2.8 14.2-8.8 18.5 0 0 22.5-1.3 25.2 7.3 0 0 3.5-25.8 10.5-33.3 0 0 14.1-6.3 31.1-3.9 20 2.9 22.6 12.4 23.1 35.2.6 23.1-18.7 41.5-18.7 41.5 9.2 2.7 25.2 30.8 25.2 30.8 3.2-10.6-4.9-43.4-4.9-43.4s.3-5.7 5.8-11.7c5.6-6.2-3.1-44.9-7.4-57.7zm-86.2 5.6c-10 1.1-19.9-4.7-17.5-7.6 1.4-1.7 4.5-3.7 8.3-4.6 5.3-1.3 11 1.3 13 6.4 1.1 2.6.8 5.3-3.8 5.8zm29.3-1.1c-4.9-.2-5.3-3-4.3-6 1.9-5.5 7.7-8.6 13.4-7.5 4.1.8 7.5 2.7 9.1 4.4 2.6 2.9-7.6 9.6-18.2 9.1z" fill="#5b4d60"/></g></g></g><g><g><g><path d="m329 133s-13.1 2.4-9.2 9.3c3.9 7 12.3 11.1 12.3 11.1s9.8-5.9 10.3-10.5.5-11.2-13.4-9.9z" fill="#5b4d60"/></g></g></g><g><g><g><path d="m237.9 460.9s-28.6 13.9-30.8 13.6 89.3-2.6 89.3-2.6 7.7-11.2-8.1-16.9c-15.7-5.8-40.5-7-50.4 5.9z" fill="#d1c5c1"/></g></g></g><g><g><g><path d="m105.4 306.5s-33.9 26.5-24.6 57.7 20.6 36.9 20.6 36.9-33.1-61.4 29.4-88.2z" fill="#d1c5c1"/></g></g></g><g><g><g><path d="m190 368.5s32-57.8 69-71.6c0 0-7.1 26.6 9.3 43.5s15.9 33.3 15.9 33.3-33.7-36.4-94.2-5.2z" fill="#43344c"/></g></g></g><g><g><g><path d="m40.9 357.6s2.5 83.9 95.7 72.8l-4.4 16.2c.1 0-104.2 25-91.3-89z" fill="#43344c"/></g></g></g><g><g><g><path d="m302 184.5s-4.7 2.5-5.3 6.5-12.6 4.3-16.6 15.4-8.9 38.5-8.9 38.5l1.7-41.6s4.7-8.7 5.8-10.2 3.4-1.4 3.4-1.4-1.5-15.8 1.2-22.6z" fill="#43344c"/></g></g></g><g><g><g><path d="m272.4 215.8s-47.4 28.6-87.5 90.7c0 0 39.1-73 88-103.3z" fill="#fff"/></g></g></g><g><g><g><path d="m332.1 134.1s-7.9 4.5-8.5 6.9c-.7 2.5 6 9.3 6 9.3s-10.5-5.5-11.3-8.1c-.9-2.6 7.3-8.4 13.8-8.1z" fill="#fff"/></g></g></g><g><g><g><g><path d="m311.3 191.8c-.4 0-.9-.1-1.3-.3-38.7-18-43.5-45.1-43.7-46.2-.1-.3-.1-.7 0-1 2.5-15.8 15.9-42.6 18.8-48.3-2.9-15.4 3.3-58.9 12.1-72.2 1.9-2.9 3.9-4.4 6.1-4.8 10.8-1.7 22.4 20.7 26.8 30.4 4.1-.3 12.7-.7 18.5.1 1.6-9.5 6.2-32 13.7-36.7 1.2-.7 3.1-1.4 5.7-.2 11.5 4.9 33.6 48 40 78.3 1.1 2.9 9.8 25.8 12.6 63.5 0 .5 0 1-.2 1.4-.4.9-9.4 21.8-32.8 30-1.6.6-3.4-.3-4-1.9s.3-3.4 1.9-4c18.5-6.5 27.1-22.5 28.8-25.9-3-38-12.1-60.8-12.2-61s-.1-.4-.2-.5c-6.9-33.6-29.9-73.1-36.4-74.3-4.5 3.3-9.2 22.6-11.2 35.5-.1.9-.7 1.7-1.5 2.2s-1.8.6-2.7.3c-3.6-1.3-15.3-.9-21.8-.4-1.4.1-2.6-.6-3.1-1.9-6.4-14.5-16.3-29.5-21-28.7-6.4 1.7-17.3 52.9-12.9 70.4.2.7.1 1.5-.3 2.2-.2.3-15.7 30.3-18.6 46.8.8 3.4 7.2 25.8 40.1 41.1 1.6.7 2.3 2.6 1.5 4.2-.4 1.2-1.5 1.9-2.7 1.9z" fill="#3f0f33"/></g></g></g><g><g><g><path d="m288.4 99.5c-.6 0-1.2-.2-1.8-.6-1.4-1-1.8-2.9-.8-4.4.6-.9 14.7-21 22.3-26.7 1.4-1 3.4-.8 4.4.6s.8 3.4-.6 4.4c-5.7 4.3-17.1 19.7-21 25.3-.6 1-1.6 1.4-2.5 1.4z" fill="#3f0f33"/></g></g></g><g><g><g><path d="m405.1 94.8c-1 0-1.9-.4-2.5-1.3-12.2-16.3-30.1-24.9-30.3-25-1.6-.7-2.2-2.6-1.5-4.2s2.6-2.2 4.2-1.5c.8.4 19.4 9.4 32.6 26.9 1 1.4.8 3.4-.6 4.4-.6.5-1.2.7-1.9.7z" fill="#3f0f33"/></g></g></g><g><g><g><path d="m331.1 156.6c-2.6 0-5.2-1.1-7.1-3.2l-8-8.4c-.6-.6-.9-1.4-.9-2.2 0-7.7 7-13.7 16-13.7 8.6 0 15.6 6.4 15.6 14.3 0 .8-.3 1.6-.9 2.2l-7.5 7.8c-2.1 2.1-4.6 3.2-7.2 3.2zm-9.6-14.8 7 7.3c.8.8 1.7 1.2 2.6 1.2.9 0 1.8-.4 2.6-1.3l6.6-6.8c-.7-3.9-4.5-6.8-9.2-6.8-4.9.1-8.9 2.8-9.6 6.4z" fill="#3f0f33"/></g></g></g><g><g><g><path d="m316.7 167.9c-1.6 0-3.1-.3-4.4-1-9.7-5.5-7.6-19-7.5-19.5.3-1.7 1.9-2.9 3.6-2.6s2.9 1.9 2.6 3.6c0 .2-1.5 9.7 4.4 13 1.5.9 7.5-1 10-1.8 3.4-1.1 5.5-1.8 7.3-1.2.2.1 18.6 5.5 29.2 2 3.1-1 5.1-2.7 6.2-5 1.4-3.1 1.2-7.5-.5-11.8-.7-1.6.1-3.4 1.7-4.1s3.4.1 4.1 1.7c1.1 2.8 3.5 10.1.4 16.8-1.8 4-5.2 6.8-9.9 8.4-11.8 3.9-29.9-1-32.7-1.8-.7.1-2.5.7-3.9 1.1-3.4.9-7.3 2.2-10.6 2.2z" fill="#3f0f33"/></g></g></g><g><g><g><path d="m331.8 164.4c-1.6 0-2.9-1.2-3.1-2.8l-1-7.8c-.2-1.7 1-3.3 2.7-3.5s3.3 1 3.5 2.7l1 7.8c.2 1.7-1 3.3-2.7 3.5-.1.1-.3.1-.4.1z" fill="#3f0f33"/></g></g></g><g><g><g><path d="m338.1 178.1c-3.3 0-6.8-.1-9.7-.5-10.2-1.3-13.1-11.6-13.2-12.1-.4-1.7.5-3.4 2.2-3.8 1.6-.4 3.4.5 3.8 2.2.1.3 2 6.7 7.9 7.5 7.8 1 21 0 21.1 0 1.8-.2 3.2 1.2 3.4 2.9.1 1.7-1.2 3.2-2.9 3.4-.3 0-6.2.4-12.6.4z" fill="#3f0f33"/></g></g></g><g><g><g><path d="m225.2 477.6c-19.2 0-39.8-.7-58.3-2.6-19-2-31-8.2-35.6-18.4-6.1-13.2 2.7-28.2 4.7-31.4 24.5-135.3 115.3-215 135.7-224.9.5-6 3.6-8.5 5.6-10.1.5-.4 1.2-.9 1.3-1.2 0 0 .1-.3-.2-1.2-2.9-8 1.6-18.9 2.2-20.1.7-1.6 2.5-2.3 4.1-1.6s2.3 2.5 1.6 4.1c-1.1 2.7-3.7 10.6-2 15.5 2 5.4-1.2 7.9-3.1 9.4s-3.4 2.7-3.3 7.2c0 1.5-.9 2.7-2.3 3.1-13.6 3.7-109.2 85.2-133.6 221.6-.1.4-.3.9-.5 1.2-.1.1-9.8 14.5-4.6 25.9 3.7 8 14 12.9 30.6 14.7 49 5.2 113.1 1.1 126.2.2.2-2.5.1-6.7-2.8-10.1-4.7-5.6-15.2-7.6-30.4-5.9-1.7.2-3.3-1.1-3.5-2.8s1.1-3.3 2.8-3.5c17.7-1.9 29.8.8 35.9 8.2 6.5 7.8 3.8 17.5 3.6 17.9-.4 1.2-1.5 2.1-2.8 2.2-.3.1-33.2 2.6-71.3 2.6z" fill="#3f0f33"/></g></g></g><g><g><g><path d="m323.5 485.6c-12.1 0-24.3-1.7-27.6-6-3.4-4.4-3.3-14-3.2-27.2.1-9.1.2-19.4-.9-29.2l-.5-5c-2.5-22.8-5.8-54-19.8-68.4-21.6-22.2-14.6-56.9-14.3-58.4.4-1.7 2-2.8 3.7-2.4s2.8 2 2.4 3.7c-.1.3-6.6 32.9 12.6 52.7 15.5 15.9 19 48.4 21.5 72.1l.5 5c1.1 10.2 1.1 20.7 1 30-.1 10.2-.2 20.7 1.9 23.3 3.3 4.3 37.5 4.9 45.8.8 1-.5 1-.8 1-1 .2-2.7-5.7-9-9.7-11.9-6.1-4.4-14.6-79.9-3.8-105.6 2.9-7 5.1-14.2 6.4-21.4.3-1.7 1.9-2.8 3.7-2.5 1.7.3 2.8 1.9 2.5 3.7-1.4 7.7-3.7 15.3-6.8 22.7-10.2 24.2-1.5 91.1 2.1 98.4 2.2 1.7 12.5 10 11.8 17.2-.2 2.6-1.8 4.8-4.5 6.1-4.1 1.9-14.9 3.3-25.8 3.3z" fill="#3f0f33"/></g></g></g><g><g><g><path d="m332.1 404.2c-1.1 0-2.2-.6-2.8-1.6-.8-1.5-.3-3.4 1.3-4.3 87.5-47.6 82.7-147.1 81.2-179.8-.3-6-.5-9.6-.1-11.6 2-11.2-4.9-36.7-5-37-.5-1.7.5-3.4 2.2-3.9 1.7-.4 3.4.5 3.8 2.2.3 1.1 7.3 27.2 5.1 39.7-.2 1.3 0 5.4.2 10.2 1.6 33.7 6.5 136.1-84.4 185.6-.5.4-1 .5-1.5.5z" fill="#3f0f33"/></g></g></g><g><g><g><path d="m235.8 464.9c-1.3 0-2.4-.8-2.9-2-.6-1.6.2-3.4 1.8-4.1.4-.2 41.5-16.3 52-44.7 4.1-11.1 3-22.9-3.5-34.9-6.5-12.1-15.9-19.7-27.9-22.5-33.7-7.9-77.6 23.1-78 23.4-1.4 1-3.4.7-4.4-.7s-.7-3.4.7-4.4c1.9-1.3 46.7-32.9 83.1-24.4 13.8 3.2 24.6 11.9 32 25.6 7.3 13.7 8.6 27.1 3.8 40-11.5 31-53.8 47.6-55.6 48.3-.4.3-.8.4-1.1.4z" fill="#3f0f33"/></g></g></g><g><g><g><path d="m405.7 481c-.2 0-.3 0-.5 0-29-1.3-32-3.1-33.2-3.8-7.3-4.2-17.4-61.3-18-93 0-1.7 1.4-3.2 3.1-3.2h.1c1.7 0 3.1 1.4 3.1 3.1.6 36.1 11.2 82.8 15 87.7 1.1.4 6.3 1.8 30.1 2.8 1.7.1 3.2-.8 3.9-2.3s.5-3.2-.6-4.5l-1.1-1.3c-2.7-3.1-6-7-9.4-12.2-8.9-13.8-6.9-106.6-6.7-117.1 0-1.7 1.4-3.1 3.1-3.1h.1c1.7 0 3.1 1.5 3.1 3.2-1 40.6-.3 104.3 5.7 113.5 3.2 4.9 6.2 8.4 8.9 11.5l1.1 1.3c2.7 3.2 3.3 7.5 1.4 11.3-1.6 3.9-5.2 6.1-9.2 6.1z" fill="#3f0f33"/></g></g></g><g><g><g><path d="m274.7 258.5c-1.2 0-2.4-.7-2.9-1.9-8.1-19.5-.5-53.4-.2-54.8.4-1.7 2.1-2.8 3.8-2.4s2.7 2.1 2.4 3.8c-.1.3-7.5 33.3-.2 51 .7 1.6-.1 3.4-1.7 4.1-.4.2-.8.2-1.2.2z" fill="#3f0f33"/></g></g></g><g><g><g><path d="m109.7 451.7c-15.4 0-36.1-3-51.4-16.4-15.5-13.5-22.3-34.8-20.2-63.1 2.2-29.9 12.1-50.4 29.3-60.9 27.4-16.7 63.1-1.8 64.6-1.1 1.2.5 2 1.7 1.9 3.1s-1 2.5-2.2 2.8c-1.5.4-36.2 11.2-35.1 51.8 1.1 40.7 42.4 52 42.9 52.2 1.7.4 2.7 2.2 2.2 3.8-.4 1.7-2.2 2.7-3.8 2.2-.5-.1-46.3-12.7-47.5-58.1-.9-32.8 20-48.4 31.8-54.6-11.4-3.3-33.8-7.5-51.4 3.3-15.4 9.4-24.3 28.2-26.3 56-1.9 26.3 4.1 45.8 18.1 58 25 21.8 67.2 13.1 67.6 13 1.7-.4 3.4.7 3.7 2.4.4 1.7-.7 3.4-2.4 3.7-.9 0-9.8 1.9-21.8 1.9z" fill="#3f0f33"/></g></g></g><g><g><g><path d="m114.6 413.3c-.5 0-1.1-.1-1.6-.4-44.8-26.4-34.8-55.2-34.4-56.4.6-1.6 2.4-2.5 4-1.9s2.5 2.4 1.9 4c-.4 1.1-8.3 25.3 31.7 48.8 1.5.9 2 2.8 1.1 4.3-.6 1.1-1.6 1.6-2.7 1.6z" fill="#3f0f33"/></g></g></g><g><g><g><path d="m321.9 110.9c0 3.4-3.6 4.2-7.1 4.2-3.4 0-7.8-4.5-7.8-7.9s4.4-4.5 7.8-4.5c3.4.1 7.1 4.8 7.1 8.2z" fill="#3f0f33"/></g></g></g><g><g><g><path d="m350.5 108.2c0 3.4 3.7 4.2 7.1 4.1 3.4 0 7.7-4.6 7.7-8s-4.4-4.5-7.8-4.4c-3.5 0-7.1 4.8-7 8.3z" fill="#3f0f33"/></g></g></g></g></g></svg>