<svg id="Layer_1" enable-background="new 0 0 512 512" height="512" viewBox="0 0 512 512" width="512" xmlns="http://www.w3.org/2000/svg"><g><g><g><g><path d="m134.1 30.3s-25.8 1.4-33.3 7.9c0 0-22.9-7.6-31.6 21.2l-.4-2s-10.6 7.1-26.1 22.8 12.4 41 20.3 44.9 5.5 18.5 5.5 18.5 7.4-4.1 13.3-14l-.3-1.9c1 1.6 2 3 2.9 4.5 2.4 6.1 5.6 11.8 9.4 17.1.7 1.6 1.3 3.2 2 4.8.1 2.5.8 5 2.4 7.3.8 3.4 1 6.4.2 8.6-6.8 15.7-23.7 61.4-9 99.3 16.9 43.6 34.5 53.2 33.6 98.3s-1.6 58.4-1.6 58.4-13 .5-18.3 13.2c-1.8 4.2 1.3 8.8 5.7 8.8h30.7c3.6 0 6.5-3.2 6.1-7-1-10.7-2.2-31.1.7-42.2 4.1-15.6 16.7-51.3 11.5-79.8l-.8-2.1c5.2 2 11 3.5 17.3 4.6 2.4 1.1 4.6 2 6.8 2.8 1.5 1.9 3 3.7 4.7 5.4 13.1 14.2 21.1 32.6 23.1 52.1 2.3 22.2 5.1 43.3 2.4 47.6 0 0-11.5.2-17.1 8.3-2.9 4.2 0 10.1 5 10.1h32.7c3.7 0 6.6-3.4 6.1-7.3-2.3-17.2-6.7-61.2 3.2-90.8 2.6-7.6 2.6-16-.1-23.6-.1-.3-.2-.6-.3-.8 2.4-.1 4.7-.2 6.8-.2 3.2.1 6.7-.1 10.5-.4.6 0 1-.1 1.2-.1s.4.1.6.2l-.6-.2c10.3 24.4 23.4 37.1 33.4 43.7 1.6 1.1 3.2 2.1 4.8 2.8 6.3 3.3 10.6 4 10.6 4s22.5 44.8 0 51.3c-9.3 2.7-14.9 6.8-18.3 10.8-3.6 4.1-.7 10.7 4.6 10.7h33.6c3 0 5.6-2.3 6.1-5.4l8.2-55.1c1.2-7.8-.7-15.7-5.2-22.1l-7-11.2.4-.4c16 19.2 31.7 21.6 31.7 21.6s22.5 44.8 0 51.3c-9.3 2.7-14.9 6.8-18.3 10.8-3.6 4.1-.7 10.7 4.6 10.7h33.5c3 0 5.6-2.3 6.1-5.4l8.2-55.1c1.2-7.8-.7-15.7-5.2-22.1l-11.2-15.9s12.4-54.9 5.2-99c0 0 1 6.6 19.4 69 18.5 62.6 84.5 22.7 63.9 18.8-20.5-3.9-35.8-56.8-53.3-96.3s-54.5-38.4-54.5-38.4c-5-3.4-10.9-5.8-17.8-6.8-49.4-7.4-87.5-8.4-111.2-13.1-30-8.4-36.2-24.6-35.9-36.3-.1-2.1-.2-4.2-.1-6.4 2.3 1.9 3.9 2.8 3.9 2.8s-2.4-14.6 5.5-18.5 35.7-29.2 20.3-44.9c-15.5-15.7-26.1-22.8-26.1-22.8l-.4 2c-8.7-28.9-31.6-21.2-31.6-21.2-3.9-3.4-12.9-5.3-20.5-6.5-1.3-.3-2.6-.5-4-.5-4.8-1-8.6-1.2-8.6-1.2" fill="#ffdcc0"/></g></g></g><g><g><g><path d="m191.4 137.3s-6.7 13.1-9 16c-2.4 3-4 20.7-16.4 22.9 0 0-6 14-31.9 13.6s-28.8-11.3-28.8-11.3l-7.8-6.7 1.2-7.5 14.8 5.2 20.6-5.2s17 6.1 22.1 5.2 16.4-5.2 16.4-5.2v-11.3l7.9-11.8 6.7-10.3z" fill="#e2a98d"/></g></g></g><g><g><g><path d="m232.7 284.6s21.1 14.6 70.3 6.3l7.8 30s-24.7-2.6-38.4 1.3-29.2 6.3-31.7 3.3c-2.5-3.1-8.4-31.5-8-40.9z" fill="#e2a98d"/></g></g></g><g><g><g><path d="m259.8 324.9s14.1 38.2 48.3 50.3c0 0 16.7 39 5.9 47.7s-32.4 14-22.5 25h41.1s9.9-70.2 8.9-73.3c-1-3-18.1-30.4-20.6-34.8s-4.2-18.3-17.9-20.5c-13.7-2.1-43.2 5.6-43.2 5.6z" fill="#e2a98d"/></g></g></g><g><g><g><path d="m148.6 132.4c0 5.1-6.5 13.5-14.5 13.5s-14.5-8.4-14.5-13.5 6.5-9.2 14.5-9.2 14.5 4.1 14.5 9.2z" fill="#5e4763"/></g></g></g><g><g><g><path d="m125.3 136.1c0-5.1 6.5-9.2 14.5-9.2 2.6 0 5 .4 7.1 1.2-2.4-2.9-7.3-4.9-12.8-4.9-8 0-14.5 4.1-14.5 9.2 0 4.2 4.4 10.6 10.3 12.8-2.8-2.8-4.6-6.4-4.6-9.1z" fill="#fff"/></g></g></g><g><g><g><path d="m109.5 264.2s23.9 25.9 51.8 24.4l7.7 19.4 8.2 11.4c.1 0-45.8 7.2-67.7-55.2z" fill="#e2a98d"/></g></g></g><g><g><g><path d="m137.8 296.2s6.2 51.1 0 77-1.6 59.5-3.7 64.4c-2.1 5-4.4 11.4-4.4 11.4l13.2-1.2 2.5-7s-1.5-30.4-.4-36.3 9.1-33.7 10.6-42 3.3-51.9 3.3-51.9z" fill="#e2a98d"/></g></g></g><g><g><g><path d="m382.8 239.1s10.8 6 17.4 20.9 19.3 100.1 69.8 82.2c0 0-8.7 21.2-34.1 11.2s-37.7-55.8-37.7-55.8z" fill="#e2a98d"/></g></g></g><g><g><g><path d="m91.9 52.2c.5-.6-18.7 18.8-19.4 43.5-.7 24.6 4.5 38.9 4.5 38.9l4.8-5s-14.7-44.8 10.1-77.4z" fill="#e2a98d"/></g></g></g><g><g><g><path d="m176.1 52.2c-.5-.6 18.7 18.8 19.4 43.5s-4.5 38.9-4.5 38.9l-4.8-5s14.7-44.8-10.1-77.4z" fill="#e2a98d"/></g></g></g><g><g><g><path d="m364.6 372.7s18.6 18.5 14.5 39.9-22.8 16-22.8 16 11.6 4.7 14-13.2-5.7-42.7-5.7-42.7z" fill="#e2a98d"/></g></g></g><g><g><g><path d="m66.4 77.3c-.1 0-.2 0-.3 0-1.7-.2-3-1.7-2.8-3.4 1.7-17.6 7.3-29.6 16.5-35.6 8.2-5.3 16.8-4.3 20.3-3.5 9.2-6 31.2-7.4 33.8-7.6 1.7-.1 3.2 1.2 3.3 3 .1 1.7-1.2 3.2-3 3.3-6.9.4-25.9 2.4-31.5 7.1-.8.7-2 .9-3 .6-.1 0-8.7-2.7-16.6 2.4-7.5 4.9-12.1 15.3-13.6 30.9-.1 1.6-1.5 2.8-3.1 2.8z" fill="#3f0f33"/></g></g></g><g><g><g><path d="m68.5 146.8c-.6 0-1.3-.2-1.8-.6-1-.7-1.5-1.9-1.3-3.1.5-3.2.9-12.9-3.8-15.2-6.2-3.1-23.8-18-26.3-33.2-1.1-6.4.7-12.1 5.2-16.7 15.5-15.7 26.1-22.9 26.6-23.2 1.4-1 3.4-.6 4.4.9 1 1.4.6 3.4-.9 4.4-.1 0-10.6 7.1-25.6 22.3-3.1 3.1-4.2 6.8-3.5 11.3 2.1 12.3 17.8 26.1 22.9 28.6 5.7 2.8 7.3 9.5 7.5 14.7 2.2-2.1 4.8-5 7.1-9 .9-1.5 2.8-2 4.3-1.1s2 2.8 1.1 4.3c-6.2 10.6-14.2 15-14.5 15.2-.4.3-.9.4-1.4.4z" fill="#3f0f33"/></g></g></g><g><g><g><path d="m134.1 149.1c-10.1 0-17.6-10.1-17.6-16.7 0-6.9 7.7-12.3 17.6-12.3s17.6 5.4 17.6 12.3c0 6.6-7.5 16.7-17.6 16.7zm0-22.7c-6.7 0-11.4 3.2-11.4 6.1 0 3.5 5.1 10.4 11.4 10.4 6.2 0 11.4-6.9 11.4-10.4 0-3-4.7-6.1-11.4-6.1z" fill="#3f0f33"/></g></g></g><g><g><g><path d="m116.3 173.1c-4.6 0-9.4-1.1-14.3-4-5-3-8.1-7-9.1-12-2-9.8 5-19.6 5.3-20 1-1.4 3-1.7 4.4-.7s1.7 3 .7 4.4c-.1.1-5.6 8-4.2 15 .7 3.2 2.7 5.8 6.2 7.9 13.8 8.2 26.3-2.1 26.8-2.5 1.3-1.1 3.3-.9 4.4.4s1 3.3-.4 4.4c-3.6 3.1-11.1 7.1-19.8 7.1z" fill="#3f0f33"/></g></g></g><g><g><g><path d="m201.8 77.3c-1.6 0-3-1.2-3.1-2.8-1.5-15.6-6.1-26-13.7-31-7.9-5.1-16.4-2.4-16.5-2.4-1 .3-2.2.1-3-.6-4.9-4.2-21.9-6.6-31.5-7.1-1.7-.1-3.1-1.6-3-3.3s1.5-3.1 3.3-3c2.6.1 24.6 1.5 33.8 7.6 3.5-.8 12.1-1.8 20.3 3.5 9.3 6 14.8 18 16.5 35.6.2 1.7-1.1 3.3-2.8 3.4-.1.1-.2.1-.3.1z" fill="#3f0f33"/></g></g></g><g><g><g><path d="m199.7 146.8c-.5 0-1-.1-1.5-.4-.3-.2-8.3-4.6-14.5-15.2-.9-1.5-.4-3.4 1.1-4.3s3.4-.4 4.3 1.1c2.3 4 5 7 7.1 9 .3-5.2 1.8-11.9 7.5-14.8 5.1-2.5 20.8-16.3 22.9-28.6.7-4.5-.4-8.1-3.5-11.3-15-15.2-25.5-22.3-25.6-22.4-1.4-1-1.8-2.9-.9-4.4 1-1.4 2.9-1.8 4.4-.9.4.3 11.1 7.5 26.6 23.2 4.5 4.5 6.3 10.3 5.2 16.7-2.5 15.2-20.1 30.1-26.3 33.2-4.7 2.3-4.3 12-3.8 15.2.2 1.2-.3 2.4-1.3 3.1-.4.6-1 .8-1.7.8z" fill="#3f0f33"/></g></g></g><g><g><g><path d="m179 146.8c-.5 0-1-.1-1.5-.4-1.5-.8-2.1-2.7-1.3-4.2 13.1-24.9 10.4-47.6 6.5-64.6-3.8-16.8-11.1-22.8-11.2-22.8-1.3-1.1-1.6-3-.5-4.4s3-1.6 4.4-.6c.4.3 9.1 7.1 13.5 26.4 3.8 16.7 7.2 42-7.1 69-.5 1-1.6 1.6-2.8 1.6z" fill="#3f0f33"/></g></g></g><g><g><g><path d="m151.9 173.1c-8.7 0-16.1-4-19.8-7.1-.7-.6-1.1-1.5-1.1-2.4v-17.6c0-1.7 1.4-3.1 3.1-3.1s3.1 1.4 3.1 3.1v16c3.4 2.4 14.1 8.6 25.7 1.7 3.5-2.1 5.5-4.7 6.2-7.9 1.4-7-4.1-14.9-4.2-15-1-1.4-.7-3.4.7-4.4s3.4-.7 4.4.7c.3.4 7.3 10.1 5.3 20-1 5-4.1 9-9.1 12-4.9 2.9-9.8 4-14.3 4z" fill="#3f0f33"/></g></g></g><g><g><g><ellipse cx="105.3" cy="98" fill="#3f0f33" rx="7" ry="7.3"/></g></g></g><g><g><g><ellipse cx="162.9" cy="98" fill="#3f0f33" rx="7" ry="7.3"/></g></g></g><g><g><g><path d="m133.1 184c-10.6 0-17.8-2.3-21.6-6.7-3.2-3.9-2.6-7.8-2.5-8.3.3-1.7 2-2.8 3.7-2.5s2.8 1.9 2.5 3.6c0 .2-.2 1.7 1.2 3.3 1.5 1.7 5.8 4.5 17.6 4.4 1.7 0 3.1 1.4 3.1 3.1s-1.4 3.2-3.1 3.2c-.2-.1-.6-.1-.9-.1z" fill="#3f0f33"/></g></g></g><g><g><g><path d="m135.1 184c-.4 0-.7 0-1.1 0-1.7 0-3.1-1.5-3.1-3.2s1.4-3.1 3.1-3.1c11.9.2 16.1-2.7 17.6-4.4 1.4-1.6 1.3-3.2 1.2-3.3-.2-1.7.9-3.3 2.6-3.6s3.3.8 3.6 2.5c.1.4.7 4.4-2.5 8.3-3.5 4.5-10.8 6.8-21.4 6.8z" fill="#3f0f33"/></g></g></g><g><g><g><path d="m382 451.1h-33.5c-3.6 0-6.9-2.1-8.4-5.5-1.6-3.5-1.1-7.5 1.5-10.4 4.6-5.3 11.2-9.2 19.8-11.7 3.1-.9 5.2-2.7 6.4-5.5 4.5-10.3-3.5-31.2-7.7-40-9.1-2.2-50.9-17.2-63.2-104-.2-1.7 1-3.3 2.7-3.5s3.3 1 3.5 2.7c12.8 90.4 59.1 98.9 59.6 99 1 .2 1.9.8 2.3 1.7.6 1.3 15.3 30.9 8.5 46.7-2 4.6-5.5 7.6-10.4 9-7.4 2.1-13 5.4-16.8 9.8-1.1 1.2-1 2.7-.5 3.7.3.5 1 1.8 2.7 1.8h33.5c1.5 0 2.8-1.2 3-2.8l8.2-55.1c1-6.9-.7-14.2-4.7-19.8l-11.2-15.9c-.5-.7-.7-1.6-.5-2.5s20.3-91.8-6.8-131.5c-6.7-9.9-16-15.7-27.5-17.5-25.4-3.8-47.5-5.9-66.9-7.7-33.7-3.2-56-5.3-67.1-14-17.4-13.7-17.8-38.8-17.9-39.8 0-1.7 1.4-3.1 3.1-3.2 1.7 0 3.1 1.4 3.1 3.1 0 .2.5 23.2 15.5 34.9 9.6 7.6 32.3 9.7 63.8 12.6 19.5 1.8 41.7 3.9 67.3 7.8 13.3 2 24 8.8 31.8 20.1 27.1 39.6 10.6 122.8 8.1 135l10.4 14.7c5 7.1 7 15.7 5.7 24.4l-8.2 55.1c-.6 4.9-4.5 8.3-9.2 8.3z" fill="#3f0f33"/></g></g></g><g><g><g><path d="m328 451.1h-33.5c-3.6 0-6.9-2.1-8.4-5.5-1.6-3.5-1.1-7.5 1.5-10.4 4.6-5.3 11.2-9.2 19.8-11.7 3.1-.9 5.2-2.7 6.4-5.5 4.5-10.3-3.5-31.2-7.7-40-6.8-1.7-32.2-10.7-49.6-52.1-.7-1.6.1-3.4 1.7-4.1s3.4.1 4.1 1.7c18.5 43.9 46.2 48.6 46.5 48.6 1 .2 1.9.8 2.3 1.7.6 1.3 15.3 30.9 8.5 46.7-2 4.6-5.5 7.6-10.4 9-7.4 2.1-13 5.4-16.8 9.8-1.1 1.2-1 2.7-.5 3.7.3.5 1 1.8 2.7 1.8h33.4c1.5 0 2.8-1.2 3-2.8l8.2-55.1c1-6.9-.7-14.2-4.7-19.8l-10.1-16.1c-.9-1.5-.5-3.4 1-4.3s3.4-.5 4.3 1l10 16c4.9 6.9 6.9 15.6 5.6 24.2l-8.2 55.1c-.6 4.7-4.5 8.1-9.1 8.1z" fill="#3f0f33"/></g></g></g><g><g><g><path d="m231.7 451.1h-32.7c-3.4 0-6.6-1.9-8.2-5-1.7-3.2-1.5-7 .6-10 4.9-7.1 13.4-9 17.5-9.5.9-5.2-.8-21.6-2.3-35-.3-3.1-.7-6.2-1-9.3-2-18.9-9.9-36.8-22.3-50.3-20.4-22.2-31.6-54.5-32.1-55.9-.6-1.6.3-3.4 2-4 1.6-.6 3.4.3 4 2 .1.3 11.3 32.5 30.7 53.7 13.3 14.5 21.8 33.6 23.9 53.9.3 3.1.7 6.2 1 9.3 2.5 23.5 3.7 35.9.9 40.3-.6.9-1.5 1.4-2.6 1.5-.1 0-10 .3-14.6 7-.7 1.1-.8 2.4-.2 3.5.3.5 1.1 1.7 2.7 1.7h32.7c.8 0 1.6-.4 2.2-1 .6-.7.9-1.7.8-2.7-2.4-17.7-6.8-62.1 3.4-92.2 2.4-7.1 2.4-14.7 0-21.5-6.1-17.2-12.1-41.9-6.1-61.9.5-1.7 2.2-2.6 3.9-2.1s2.6 2.2 2.1 3.9c-5.8 19.3 1.3 44.7 6 58.1 2.9 8.1 2.9 17.2.1 25.6-9.7 28.9-5.4 72.1-3.1 89.4.4 2.8-.5 5.6-2.3 7.7-1.8 1.6-4.3 2.8-7 2.8z" fill="#3f0f33"/></g></g></g><g><g><g><path d="m179.4 325.5c-.1 0-.3 0-.4 0-70.3-8.6-75.6-74.1-75.6-74.8-.1-1.7 1.2-3.2 2.9-3.3 1.7-.2 3.2 1.2 3.3 2.9.2 2.5 5 61 70.1 69 1.7.2 2.9 1.8 2.7 3.5 0 1.5-1.4 2.7-3 2.7z" fill="#3f0f33"/></g></g></g><g><g><g><path d="m139.4 451.1h-30.7c-3.1 0-6-1.6-7.7-4.2-1.8-2.7-2.1-6-.9-9 4.4-10.6 13.5-13.7 18.2-14.7.2-5.7.8-21.7 1.5-55.7.6-29.3-6.7-43-16.8-61.9-5.1-9.6-10.9-20.5-16.6-35.2-18.4-47.2 10.4-105 11.6-107.5.8-1.5 2.7-2.2 4.2-1.4s2.2 2.7 1.4 4.2c-.3.6-28.8 57.7-11.5 102.3 5.6 14.4 11.3 25.1 16.3 34.5 10.1 19.1 18.1 34.1 17.5 65-.9 44.7-1.6 58.3-1.6 58.5-.1 1.6-1.4 2.9-3 3-.4 0-11.1.7-15.5 11.2-.6 1.4 0 2.6.3 3.1.6.9 1.5 1.4 2.5 1.4h30.7c.8 0 1.6-.3 2.2-1s.9-1.6.9-2.6c-1-11.2-2.3-31.7.8-43.3.6-2.2 1.4-4.9 2.2-7.8 5.1-17.5 13.6-46.9 9.2-70.6-.3-1.7.8-3.3 2.5-3.7 1.7-.3 3.3.8 3.7 2.5 4.6 25.1-4.1 55.4-9.3 73.4-.8 2.9-1.6 5.5-2.2 7.7-2.9 11-1.4 32.4-.6 41.1.2 2.7-.7 5.4-2.5 7.4-1.8 2.2-4.3 3.3-6.8 3.3z" fill="#3f0f33"/></g></g></g><g><g><g><path d="m249.2 328.4c-3.5 0-6.5-.2-9.1-.5-1.7-.2-3-1.7-2.8-3.5.2-1.7 1.7-3 3.5-2.8 6.8.7 17.7.9 30.6-2.4 26.7-6.7 41.6-.1 42.2.2 1.6.7 2.3 2.6 1.5 4.2-.7 1.6-2.6 2.3-4.2 1.5-.2-.1-13.8-5.9-38.1.2-8.9 2.4-17 3.1-23.6 3.1z" fill="#3f0f33"/></g></g></g><g><g><g><path d="m95.7 155.1c-.9 0-1.8-.4-2.5-1.2-8.3-10.5-13.7-22.3-15.9-35-3-17.2-.3-32.7 2-42.8 4.4-19.2 13.2-26.1 13.5-26.3 1.4-1.1 3.3-.8 4.4.6s.8 3.3-.6 4.4c-.1 0-7.3 6-11.2 22.8-2.4 10.4-4.7 24.4-1.9 40.3 2 11.6 7 22.5 14.7 32.2 1.1 1.4.8 3.3-.5 4.4-.6.4-1.3.6-2 .6z" fill="#3f0f33"/></g></g></g><g><g><g><path d="m444.4 357.5c-12.7 0-33.3-5.3-42.8-37.1-18.4-62.1-19.5-69.2-19.5-69.4-.2-1.7 1-3.3 2.7-3.5s3.3 1 3.5 2.7c0 .3 1.4 8.1 19.3 68.5 8.9 30.1 28.5 33.4 39.4 32.6 12.7-.9 21.1-7.1 22.2-9.5-.2-.1-.6-.3-1.3-.4-17.4-3.3-30.1-35.2-43.5-69-3.9-9.8-7.9-19.9-12-29.1-16.5-37.1-51.2-36.5-51.5-36.5-1.7.1-3.2-1.3-3.2-3-.1-1.7 1.3-3.2 3-3.2.4 0 39.3-.7 57.5 40.2 4.1 9.3 8.2 19.5 12.1 29.4 12.2 30.7 24.9 62.5 38.9 65.1 6.1 1.2 6.5 5.2 6.5 6.4-.2 6.6-12.1 13.9-25.4 15.6-1.7 0-3.7.2-5.9.2z" fill="#3f0f33"/></g></g></g></g></svg>