<svg id="Layer_1" enable-background="new 0 0 512 512" height="512" viewBox="0 0 512 512" width="512" xmlns="http://www.w3.org/2000/svg"><g><g><g><g><path d="m484 401.5s1.4-10.5-14-16.8c0 0-9.2-9-17.4-6.9 0 0-9.5-6.3-16.6 5.1-7.2-6.7-19.8-20.1-30.6-40.9-16.1-31.2-5.7-59.6-14.2-86.6-3.7-11.8-13.7-20.7-23.7-27l6.1-7.2c8.4 8.3 18.2 2.6 18.2 2.6 12.8-1 19.7-7.2 19.7-7.2 11-1.7 15.3-16.3 15.3-16.3 8.3-8.5 6.6-18.4 6.6-18.4 6.3-14.4-2.5-25.2-2.5-25.2-.2-14.6-14.8-17.3-14.8-17.3-3.5-14.9-20-13.2-20-13.2-8-5.5-24.5 0-24.5 0-15-.5-21.1 13.1-21.1 13.1-13.1 2.6-12.1 17.3-12.1 17.3-7.7 12.4.2 25.2.2 25.2-1.5 16.6 8 21.1 8 21.1 2.9 9.6 9.3 11.6 12.6 12l-1.4 2.6-1.6 1.8s.4-.3 1.1-.9l-1.8 3.3c-6.3-2.9-11.3-4.5-13.1-5.1-5-5.7-11.9-7.6-11.9-7.6-6-9.1-20.2-8-20.2-8-9.1-5.5-23.2-.1-23.2-.1-9.1-7.1-23.7.1-23.7.1-9.6-1-12.1 8-12.1 8s.4-16.4-10.5-21.5c0 0-4.7-12.2-21-12.1l-.2-.3c4.2-10.9.5-24 .5-24 8.1-12.7-4.7-32.7-4.7-32.7 6.1-19-15.4-45.9-15.4-45.9-9.3-34.5-44.1-35.9-44.1-35.9-15.6-9.5-34.5 0-34.5 0-27.2-3.2-36.5 17.4-36.5 17.4s-24.4 4.4-14.1 26c0 0 2.7 11 12.3 13.7l-1.3 8.9c-1.8 2.7-5.5 6-13.4 8.6-14 4.7-25.6 4.6-28.4 9.3h-.1v.1c-.8 1.5-.8 3.4.3 6.1 4.1 9.7 10.7 16.3 17.8 18.4l6.7 11.8s-15.2 16.8-6.8 25.2c0 0-8.4 7.3-6 14.9 0 0 1.7 15.2 16.5 8.5l.7 2c-.4 3.5.4 7.2 3.8 10.7 0 0-20 19.7-19.1 43.1 0 0-10.8 33.7 6.5 46.8 0 0 4.8 19.7 20.7 23 0 0 6.4 7.5 17.6 11.1l2 3.7c6.4 17.6 6.6 35 0 52.3l-1 5.5c-9.2-4.7-17.2.8-17.2.8-12.4-3.6-13.5 7.6-13.5 7.6-15.6 8.8-8.7 24.5-8.7 24.5-4.7 13.3 5.1 19.8 5.1 19.8 3.3 15.3 12 13.1 12 13.1 8.4 4.4 24 0 24 0l.1-2.3c3.6 4 7.6 3 7.6 3 8.4 4.4 24 0 24 0 13.5 2.9 19.3 0 19.3 0 10.2-1.8 15.3-13.1 15.3-13.1 6.2-8.7 1.8-21.8 1.8-21.8.4-9.8-10.5-17.5-10.5-17.5-1.5-3.9-4.2-6.4-7.3-8.1l.4-3.3 1.5-49c2.6 1.1 14.3 5.3 31.4-.3 0 0 21.4 3.8 34.9-6.8 0 0 19.5 1.9 27.8-11.6 0 0 11.6-3.8 15.8-19.1 0 0 7.9-4.5 11.1-15.3s6.4-2.2 14.9-3.4c0 0 14.3 19 14.3 28.7s-4.6 15.9 10.8 35.4c7.1 9 13.4 17.5 18.2 24.1 0 0-10.7 8-10 14.9 0 0-7.6 6.5-5.1 19 0 0-6.6 18.7 7.3 22.8 0 0 5.2 12.4 23.7 10.4 0 0 16.8 2.5 23.4-5.8 0 0 12.9-2.1 18.3-13.1 0 0 8.3-7.7 7.1-18.1 0 0 4-11-5.5-19.4 0 0-.8-9.7-13.6-15.5 0 0-13.5-12.5-26-2.5-3.4-9.3-7.7-22.4-7.4-27.7.5-8.6 3.8-13.5 3.8-13.5s0 0 0 0c6.1 7.4 13.1 14.4 22 19.4 20 11.3 36.9 26.7 47.7 38.6l-.9.8s-5.7 1.4-6.2 17.9c0 0-5.8 6.7 0 20 0 0 .5 16.4 12.1 19.2 0 0 7.2 11 23.2 6.7 0 0 15.9 5 23.7-6.7 0 0 10.6-.1 12.6-14.1 0 0 6.8-7.8 5.3-17.7-.4-.2 5-12.2-4.2-23.2z" fill="#ea9c98"/></g></g></g><g><g><g><path d="m100.8 345.7s4.3 13.5 5 17c.8 3.5-6.1 40.8-6.1 40.8l9-1.9h14.8v-39.4l-8.7-21.5z" fill="#b56161"/></g></g></g><g><g><g><path d="m289.3 300.7s16 21.5 14.3 28.7c-1.7 7.3-1.1 15.7 1.7 21s39 51.1 39 51.1 13.2.8 11.6-9.5c-1.6-10.4-12.6-38-12.6-38l7-11.3c0-.1-26.7-51.6-61-42z" fill="#b56161"/></g></g></g><g><g><g><path d="m368.9 204.8s12.7 5.3 14.5 3.9c1.9-1.4 1.8-6.7 1.8-6.7s-2.7-7.6-3.6-7.6-6.9 2-6.9 2z" fill="#b56161"/></g></g></g><g><g><g><path d="m123.5 358.8s21.7 5 26.4-1.3c4.7-6.2 4.7-11.4 4.7-11.4l-5.5-2.1s-11.4 5.6-14.6 4.5c-3.2-1-13.6-2.8-13.6-2.8z" fill="#b56161"/></g></g></g><g><g><g><path d="m437.6 387.2s-14.4 8.9-11.4 18.5l5.5 2.3 12-10.7.7-7.2z" fill="#b56161"/></g></g></g><g><g><g><path d="m332.6 388.9s-10.7 8-10 14.9c0 0-7.6 6.5-5.1 19 0 0-6.6 18.7 7.3 22.8 0 0 5.2 12.4 23.7 10.4 0 0 16.8 2.5 23.4-5.8 0 0 12.9-2.1 18.3-13.1 0 0 8.3-7.7 7.1-18.1 0 0 4-11-5.5-19.4 0 0-.8-9.7-13.6-15.5 0 0-13.5-12.5-26-2.5l1.6 8.2s.5 12.9-7.3 12.1c-7.8-.7-13.9-13-13.9-13z" fill="#fff5ee"/></g></g></g><g><g><g><g><path d="m391.7 399.7s-.8-9.7-13.6-15.5c0 0-13.5-12.5-26-2.5l1.6 8.2s.1 3.4-.8 6.7c12.7 5.8 13.5 15.4 13.5 15.4 9.5 8.4 5.5 19.4 5.5 19.4 1.2 10.4-7.1 18.1-7.1 18.1-1.3 2.7-3.1 4.8-5 6.6 4.5-.6 9.2-2.2 12.1-5.8 0 0 12.9-2.1 18.3-13.1 0 0 8.3-7.7 7.1-18.1-.2-.1 3.9-11-5.6-19.4z" fill="#e2c8ba"/></g></g></g></g><g><g><g><path d="m169.4 435.1c.4-9.8-10.5-17.5-10.5-17.5-5.1-13.1-24-11.3-24-11.3-10.5-8.4-20.7-1.5-20.7-1.5-5.7-1.7-9-.2-10.9 1.9v-1.2c-10.5-8.4-20.7-1.5-20.7-1.5-12.4-3.6-13.5 7.6-13.5 7.6-15.6 8.8-8.7 24.5-8.7 24.5-4.7 13.3 5.1 19.8 5.1 19.8 3.3 15.3 12 13.1 12 13.1 8.4 4.4 24 0 24 0l.1-2.3c3.6 4 7.6 3 7.6 3 8.4 4.4 24 0 24 0 13.5 2.9 19.3 0 19.3 0 10.2-1.8 15.3-13.1 15.3-13.1 5.9-8.4 1.6-21.5 1.6-21.5z" fill="#fff5ee"/></g></g></g><g><g><g><path d="m169.4 435.1c.4-9.8-10.5-17.5-10.5-17.5-3.9-9.9-15.6-11.3-21.1-11.4 2.6 3.1 5.1 7.4 4.9 12.1 0 0 4.4 13.1-1.8 21.8 0 0-5.1 11.3-15.3 13.1 0 0-5.8 2.9-19.3 0 0 0-15.5 4.4-24 0 0 0-4 1-7.6-3l-.1 2.3s-5.2 1.5-11.2 1.8c1.1 1.1 1.9 1.7 1.9 1.7 3.3 15.3 12 13.1 12 13.1 8.4 4.4 24 0 24 0l.1-2.3c3.6 4 7.6 3 7.6 3 8.4 4.4 24 0 24 0 13.5 2.9 19.3 0 19.3 0 10.2-1.8 15.3-13.1 15.3-13.1 6.1-8.5 1.8-21.6 1.8-21.6z" fill="#e2c8ba"/></g></g></g><g><g><g><path d="m95.8 92.6s-16 5.3-21-4.7c-5-10.1-5.8-26.6 0-29.6s10.1-4.3 10.1-4.3 20.1-21.1 36.4-17.2c0 0 20.8-11.3 34.5 0 0 0 39.4 9.8 44.1 35.9 0 0 21 25.5 15.4 45.9 0 0 8.2 15.7 4.7 32.7 0 0 4.8 19.2-.5 24 0 0 18.9 3.5 21.2 12.4s0 2 0 2 10.5 3.9 10.5 19.6c0 0 6.4-8.9 12.1-8 0 0 16.5-5.6 23.7-.1 0 0 17.7-8.5 23.2.1 0 0 16.9-1.8 18.3 8 0 0 21 13.8 17.8 24.4 0 0 5.2 6.8-3.8 19.6s-16.3 13.7-16.3 13.7-9.5 6.2-14.8 8.1-8.7 0-8.7 0-13.5 7.4-24.9 2.9c0 0 3.4 37.1-14.5 41.6 0 0-4.5 18.7-15.8 19.1 0 0-14.5 14.1-27.8 11.6 0 0-21.8 15.5-34.9 6.8 0 0-23.2 8.8-31.4.3l-2.4-14.1s-18.5 9.6-35.4 0c0 0-24.4.9-34.4-12.3 0 0-10.8 2.5-20.7-23 0 0-16.9-14.7-6.5-46.8 0 0 6.3-37.6 19.1-43.1l-3.8-10.7s-19.4.5-17.6-12.9 6.4-12.5 6.4-12.5-6-3.6-3.3-11.4 11-16.4 11-16.4 8.5 4.4 15.4 2.6 22.1-5.5 22.1-5.5c-3.4 10.1 11.7 7.5 15.3 5.5l8.4-19.9 3.9-13 10.2-17.2s-18.2 4.6-21.2-8.7c0-.2-12.3 8.5-24.1-5.4z" fill="#fff5ee"/></g></g></g><g><g><g><path d="m362 216.6s-10.8.1-15.1-12.1c0 0-10.3-9.7-7.5-20 0 0-7.4-14.1-1.8-26.2 0 0 1.7-20 12.7-19 0 0 12.4-13.2 22.7-13.2s17.9-6 22.9 0c0 0 17.4 1.2 17.7 13.2 0 0 17.9 5.7 17.1 17.3 0 0 7.7 13.7 2.5 25.2 0 0-1.3 16.5-6.6 18.4 0 0-3 14.4-15.3 16.3 0 0-11.6 11.1-19.7 7.2 0 0-9.4 6.2-18.2-2.6l12.9-16.4-7.1-10-4.6 1.6z" fill="#fff5ee"/></g></g></g><g><g><g><g><path d="m430.7 156.7c.8-11.6-17.1-17.3-17.1-17.3-.4-11.9-17.7-13.2-17.7-13.2-2.9-3.5-6.7-2.9-11.4-1.8.5 1.2.8 2.5.9 4 0 0 17.9 5.7 17.1 17.3 0 0 7.7 13.7 2.5 25.2 0 0-1.3 16.5-6.6 18.4 0 0-2.5 11.8-12.1 15.4l.1.1-12.9 16.4c8.7 8.7 18.2 2.6 18.2 2.6 8.1 3.9 19.7-7.2 19.7-7.2 12.3-1.9 15.3-16.3 15.3-16.3 5.3-1.9 6.6-18.4 6.6-18.4 5-11.5-2.6-25.2-2.6-25.2z" fill="#e2c8ba"/></g></g></g><g><g><g><path d="m363.4 212.8s-3.3 2.2-7.9 2.1c3.5 1.7 6.5 1.7 6.5 1.7l2.2-3.5c-.3-.2-.5-.2-.8-.3z" fill="#e2c8ba"/></g></g></g></g><g><g><g><path d="m417.2 399.2s-5.7 1.4-6.2 17.9c0 0-5.8 6.7 0 20 0 0 .5 16.4 12.1 19.2 0 0 7.2 11 23.2 6.7 0 0 15.9 5 23.7-6.7 0 0 10.6-.1 12.6-14.1 0 0 6.8-7.8 5.3-17.7 0 0 5.3-12.1-3.9-23 0 0 1.4-10.5-14-16.8 0 0-9.2-9-17.4-6.9 0 0-9.5-6.3-16.6 5.1l7.3 7.2.5 7.3-10.6 10.6h-6.6z" fill="#fff5ee"/></g></g></g><g><g><g><path d="m484 401.5s1.4-10.5-14-16.8c0 0-9.2-9-17.4-6.9 0 0-9.5-6.3-16.6 5.1l7.3 7.2.1 1.3c8.2 6 7.2 13.1 7.2 13.1 9.2 11 3.9 23 3.9 23 1.4 9.9-5.3 17.7-5.3 17.7-1.9 14-12.6 14.1-12.6 14.1-1 1.6-2.2 2.8-3.5 3.8 3.5 1 7.8 1.3 13.2-.1 0 0 15.9 5 23.7-6.7 0 0 10.6-.1 12.6-14.1 0 0 6.8-7.8 5.3-17.7-.1 0 5.3-12-3.9-23z" fill="#e2c8ba"/></g></g></g><g><g><g><path d="m40 120.4s16.7-.3 15.9 5.1-8.8 13.9-8.8 13.9z" fill="#624b68"/></g></g></g><g><g><g><path d="m178.1 105.5s-8.1 20.9 0 28.4c8.1 7.6 0 23.7 0 23.7s3.3 12.8-8.6 19.4c0 0 .5 16.5-11.3 19.5 0 0-9.1 13.6-20.9 12.3 0 0-15.9 8.9-27.4-1.6 0 0-7.8 19.2 14.6 24.3 22.4 5 35.2-8.3 35.2-8.3s.3 2.5 8.1-2.5 11.3-18.6 11.3-18.6 11.8-13.3 12.3-20 4.3-18.8 4.3-24.1 7.6-21.1 0-25.8c-7.6-4.9-17.6-26.7-17.6-26.7z" fill="#e2c8ba"/></g></g></g><g><g><g><path d="m65.7 154s-13.7 14.7-10.2 20.7 2.1 8.8 2.1 8.8-12.9 13.3-3.7 18.9 12.9 3.5 12.9 3.5l7.3-13.1 3.5-8.6 4.5-5.5s-5.7-3.1-3.6-9.8c2.1-6.6 3.6-12.3 3.6-12.3s-13.4 3-16.4-2.6z" fill="#e2c8ba"/></g></g></g><g><g><g><path d="m326.2 233.1c-2.9-7.2-17.5-8.7-17.5-8.7-5.5-6.9-22.7-1.4-22.7-1.4-7-3.5-17.1-.4-22.8 2.1-1.6-6.3-4.9-13-12-15.9 0 0-.3-18-10.5-21.5 0 0-12.5-14.3-21.2-12.4l-9.7 11s19.6 12.4 12.9 26.5c0 0 12.6 18.5 5.6 30.8 0 0 9.2 21-.9 28.8 0 0-1.3 30.3-17.7 27.6 0 0-3.7 18.7-5.9 20s-2.1 11.3-4.8 14.2c-2.6 2.9-19.7 10.6-19.7 10.6l-17 2.7-7.6-1.3-1.3 11.1s25.5 4 31.4-.3 21.1 6.1 34.9-6.8c0 0 18.5.9 25.5-9.7 0 0 15.8-6.3 18-21.1 0 0 10.2-10.1 11.7-17.2 1.3-6.6 3.2-19.6 2.5-27.6l3 5.8c7 3.2 25.1-4.3 25.1-4.3 8.9 0 15.8-8.9 15.8-8.9 7.5-2.3 12.1-13.5 12.1-13.5 5.7-14.9-7.2-20.6-7.2-20.6zm-61.8 5.7s.3-4.1-.4-9.3c3 2.9 3.7 7.9 3.5 12.3-.9-1-1.9-2-3.1-3z" fill="#e2c8ba"/></g></g></g><g><g><g><path d="m103.2 405.6-3.5 7.4s-15.2 12.3-6.2 23.3c0 0-5 14.3 3.4 20.6l4.4 12.4s-18.3 6.8-26.3 0-11.6-14.8-11.6-14.8-6.4-11.1-3.1-18.1c0 0-4.1-20 10.3-24.7 0 0-.8-7.8 11.9-7.5 0 0 16.2-3.6 20.7 1.4z" fill="#e2c8ba"/></g></g></g><g><g><g><path d="m56 257.6s2.8 43.6 21.4 42.4c0 0 4.7 14.8 23.2 15.5 0 0 20.4 15.4 37.2 8.1 0 0 10.7 10.2 29.3 2 0 0 20.8 11.2 36.7-5.6s2.3.5 2.3.5-1.1 18.5-21.4 20.1c0 0-20 10.8-35.4 3.4 0 0-21 8.7-33.7-.8 0 0-26.7 6.3-34.4-12.3 0 0-15.1 4.3-20.7-23 0 0-14.7-26.6-4.5-50.3z" fill="#e2c8ba"/></g></g></g><g><g><g><path d="m188.3 189.5s12.2 2.9 23.2-5.2 8.5-33 8.5-33 7.3-23-4.7-32.7c0 0 5.1-23.8-9.1-36.1 0 0 5 22.5-.9 26.1 0 0-5.7 16.7-16.9 11.8v69.1z" fill="#e2c8ba"/></g></g></g><g><g><g><g><path d="m67.5 148.9c-2.5 0-4.6-.1-5.9-.2-9.7-.7-18.9-8.7-24.1-21-1.4-3.4-1.5-6.3-.3-8.6 2.2-4.3 7.8-5.5 15.6-7.2 4.4-.9 9.4-2 14.7-3.8 12.8-4.3 13-10.1 12.9-10.2-.2-1.7 1-3.3 2.8-3.5 1.7-.2 3.3 1 3.5 2.8.1 1.1.7 10.8-17.2 16.8-5.7 1.9-11 3.1-15.4 4-5.2 1.1-10.5 2.3-11.3 3.9-.3.6-.1 1.8.5 3.3 4.2 10.1 11.4 16.7 18.7 17.2 8.4.6 34-.1 42.6-7.6 1.3-1.1 3.3-1 4.4.3s1 3.3-.3 4.4c-8.9 7.9-29.9 9.4-41.2 9.4z" fill="#3f0f33"/></g></g></g><g><g><g><path d="m49 142.5c-.7 0-1.4-.2-2-.7-1.3-1.1-1.6-3.1-.5-4.4 3.7-4.6 7-9.8 7.8-12.2-3.4-.9-10.4-1.5-14.4-1.7-1.7-.1-3.1-1.5-3-3.3.1-1.7 1.5-3.1 3.3-3 1.3.1 13.2.6 17.8 2.6 1.3.6 2.3 1.7 2.6 3.1 1.1 4.7-5.3 13.5-9.2 18.4-.6.8-1.5 1.2-2.4 1.2z" fill="#3f0f33"/></g></g></g><g><g><g><path d="m110.1 144.6c-.1 0-.2 0-.3 0-1.7-.2-3-1.7-2.8-3.4.4-4.6-6.8-6.1-6.9-6.1-1.7-.3-2.8-2-2.5-3.7s1.9-2.8 3.6-2.5c4.5.8 12.8 4.5 12 12.8-.2 1.7-1.5 2.9-3.1 2.9z" fill="#3f0f33"/></g></g></g><g><g><g><circle cx="101.8" cy="112.5" fill="#3f0f33" r="6.1"/></g></g></g><g><g><g><path d="m74.2 159.8c-11.4 0-16-8.7-16.8-13.5-.3-1.7.9-3.3 2.6-3.6s3.3.8 3.6 2.5c.2.9 1.9 8.8 11.5 8.3 12.1-.6 25.5-6 25.6-6 1.6-.6 3.4.1 4.1 1.7.6 1.6-.1 3.4-1.7 4.1-.6.2-14.5 5.8-27.6 6.5-.5 0-.9 0-1.3 0z" fill="#3f0f33"/></g></g></g><g><g><g><path d="m140.3 236.7c-2.4 0-4.7-.2-6.5-.6-9.6-.3-16.9-3.3-21.6-9.1-6.3-7.7-5.8-17.9-5.4-21.5-7.1-11.1-3.6-21.2 0-26-1-9.4 6.2-20.4 8.6-23.8 0-10.7 6.3-17.7 9.2-20.3-.1-8.1 4.7-15.8 9.1-22.6 1.7-2.7 3.4-5.3 4.6-7.7 3.6-7.2-3-15.1-3.1-15.2-1.1-1.3-1-3.3.3-4.4s3.3-1 4.4.3c.4.5 9.4 11.2 3.9 22.1-1.4 2.7-3.1 5.4-4.9 8.3-4.3 6.7-8.8 13.7-8 20.2.1 1.1-.4 2.2-1.3 2.9-.3.2-8.5 6.4-8 17.2 0 .7-.2 1.5-.6 2-2.7 3.6-9.4 14.3-7.9 21.2.2 1-.1 2-.8 2.8-.3.3-7.7 8.8.3 20.4.5.7.7 1.5.5 2.4 0 .1-1.8 10.7 3.9 17.8 3.5 4.3 9.3 6.6 17.1 6.7.2 0 .4 0 .6.1.8.2 18.8 3.8 25.7-11 .4-.8 1.1-1.5 2.1-1.7.5-.1 13.4-3.7 13.9-16.8 0-.9.4-1.7 1.1-2.3.1-.1 10.4-9 9.9-18.3 0-.8.2-1.7.8-2.3.2-.2 5.5-6.4 5-18.6 0-.5.1-1 .3-1.5.1-.2 8-17.5-1.6-25.2-15.5-12.6-14-28.1-14-28.8.2-1.7 1.8-3 3.4-2.8 1.7.2 3 1.7 2.8 3.4-.1.6-1 12.9 11.7 23.3 12.1 9.8 5.3 28.1 3.6 32 .3 11.6-3.9 18.7-5.8 21.3-.1 9.9-8.2 18.5-11.1 21.2-1.1 12.3-10.9 18.7-17 20.8-5.7 11.2-16.7 14.1-25.2 14.1z" fill="#3f0f33"/></g></g></g><g><g><g><path d="m206.5 190.8c-1.3 0-2.5-.8-3-2.1-.6-1.6.3-3.4 1.9-4 18.7-6.4 11.8-31.5 11.5-32.6-.2-.9-.1-1.8.4-2.5 5.8-9.1-1.5-24.2-4.7-29.3-.5-.8-.6-1.8-.4-2.7 5.5-17.2-14.7-42.7-14.9-43-.3-.3-.5-.7-.6-1.1-8.6-31.9-40.9-33.5-41.2-33.6-.5 0-1.1-.2-1.5-.5-13.9-8.5-31.3 0-31.5.1-.6.3-1.2.4-1.8.3-24.5-3.1-33 15.2-33.1 15.4-.4.9-1.3 1.6-2.3 1.8-.1 0-9.7 1.9-13 8.3-1.8 3.5-1.4 7.9 1.1 13.2.1.2.2.4.2.6 0 .1 1.9 7.4 7.8 10.5 3.5 1.9 7.9 1.9 13.1 0 1.2-.4 2.6-.1 3.4.9.4.4 9.9 10.7 20.7 4.4.7-.4 1.6-.5 2.4-.3s1.5.8 1.9 1.5c.6 1.1 6.5 11.1 17.4 5.3 1.5-.8 3.4-.2 4.2 1.3s.2 3.4-1.3 4.2c-11.5 6.1-20 .2-24.2-5.3-10.1 4.2-19.5-1-24.4-5.4-6.1 1.8-11.6 1.5-16.3-1-7.6-4-10.3-12.3-10.8-14.2-3.3-7-3.6-13.3-.9-18.5 3.8-7.4 12.4-10.3 15.9-11.2 2.9-4.9 13.9-20.3 37.9-17.7 4.1-1.8 21.1-8.5 36 .1 5.6.5 36.8 4.9 46 37.5 3 3.9 20.7 28 15.9 46.9 2.7 4.7 11.3 21.2 4.7 33.6 2.8 11.4 2.8 32.5-15.9 38.9 0 .1-.3.2-.6.2z" fill="#3f0f33"/></g></g></g><g><g><g><path d="m132.8 350.6c-8.7 0-15.3-2.7-17.7-3.9-19.8 2.1-32.6-9.7-35.7-13-14.8-3.7-20.5-19.6-21.8-24-16.7-13.9-8.3-44.5-6.9-49.1-.5-20 12.9-37 18.1-42.8-5-7.2-2.2-14.6-.3-19.7.7-2 1.5-4.1 1.4-5.1-.5-5.4 4.3-10.8 7.2-13.6-5.1-10.5 1.2-20.8 5.5-24.9 1.2-1.2 3.2-1.2 4.4.1 1.2 1.2 1.2 3.2-.1 4.4-.4.4-9.6 9.6-3.2 19.4.9 1.3.6 3.1-.6 4.1-3 2.4-7.2 7.2-7 9.9.2 2.5-.7 5.1-1.8 7.9-2.4 6.3-3.6 10.8.9 15.5 1.2 1.2 1.2 3.2-.1 4.4-.2.2-19 19-18.2 40.7 0 .4 0 .7-.1 1.1-.1.3-9.9 31.8 5.4 43.4.6.4 1 1.1 1.2 1.8 0 .2 4.6 17.8 18.3 20.6.7.1 1.3.5 1.8 1 .5.6 12.3 14.1 31.8 11.6.7-.1 1.3 0 1.9.4.6.3 14.4 7.7 30.4.2.9-.4 2-.4 2.9.2.4.3 11.7 6.5 30.8-2.4.3-.1.5-.2.8-.2.9-.1 20.8-3.8 18.7-17.6-.1-.7 0-1.4.4-2 .1-.2 9.9-17.7 2.7-29.5-.9-1.5-.4-3.4 1-4.3 1.5-.9 3.4-.4 4.3 1 8.2 13.3.2 30.7-2 35 1.5 14.9-14.4 21.9-23.6 23.6-18.1 8.3-30.5 4.5-34.7 2.7-5.7 2.3-11.2 3.1-16.1 3.1z" fill="#3f0f33"/></g></g></g><g><g><g><path d="m61.7 210.2c-2 0-3.9-.5-5.6-1.4-5.5-3-6.9-9.7-7.1-11.3-2-6.7 2.2-12.8 5-15.9-6.1-10.6 8-26.3 8.7-27 1.2-1.3 3.2-1.4 4.4-.2 1.3 1.2 1.4 3.1.2 4.4-3.4 3.8-12.1 15.7-6.9 20.9.6.6.9 1.5.9 2.3 0 .9-.4 1.7-1.1 2.3-.1.1-6.8 6.1-5.1 11.6.1.2.1.4.1.6.2 1.4 1.2 5.4 3.9 6.8s6.5.1 9.2-1.3c1.5-.8 3.4-.2 4.2 1.4.8 1.5.2 3.4-1.4 4.2-3.4 1.7-6.6 2.6-9.4 2.6z" fill="#3f0f33"/></g></g></g><g><g><g><path d="m123.4 402.8c-1.8 0-3.2-1.4-3.1-3.2 0-.3.4-29.8 0-36.4-.3-6.2-4.6-17.2-4.7-17.3-.6-1.6.2-3.4 1.8-4.1 1.6-.6 3.4.2 4.1 1.8.2.5 4.7 12 5.1 19.2.4 6.8 0 35.6 0 36.9-.1 1.7-1.5 3.1-3.2 3.1z" fill="#3f0f33"/></g></g></g><g><g><g><path d="m100.8 406.9c-.2 0-.3 0-.5 0-1.7-.3-2.9-1.9-2.6-3.6 1.4-9.4 5.1-34.8 4.8-40.1-.3-6.2-4.6-17.2-4.6-17.3-.6-1.6.2-3.4 1.8-4.1 1.6-.6 3.4.2 4.1 1.8.2.5 4.7 12 5.1 19.2.4 6.9-4.3 37.9-4.9 41.4-.3 1.6-1.7 2.7-3.2 2.7z" fill="#3f0f33"/></g></g></g><g><g><g><path d="m151 411.1c-.1 0-.1 0 0 0-1.8-.1-3.2-1.5-3.1-3.2l1.9-62.6c.1-1.7 1.5-3.2 3.2-3 1.7.1 3.1 1.5 3 3.2l-1.9 62.6c-.1 1.7-1.4 3-3.1 3z" fill="#3f0f33"/></g></g></g><g><g><g><path d="m119 475.1c-3.6 0-7.4-.5-10.5-1.8-1.4.1-3.9-.1-6.5-1.7-3.7-2.3-6.3-6.6-7.8-12.8-3.9-3.2-8.9-10.9-5.6-21.6-2.3-6.6-2.9-19 9.2-26.6.5-2 1.8-5.4 5-7.6 2.9-1.9 6.5-2.4 10.8-1.4 4.6-2.5 13.6-4.5 22.2 1.6 4.6-.2 20.1.2 25.6 12.5 2.7 2.1 11.1 9.4 11.1 19 .8 2.8 3.9 14.9-2.2 23.8-.9 1.9-6.5 12.4-17.1 14.5-1.8.7-8.1 2.7-20.1.2-2.1.6-7.9 1.9-14.1 1.9zm-10-8.2c.5 0 1 .1 1.4.4 6 3.1 17.7.9 21.7-.2.5-.1 1-.2 1.5 0 11.9 2.6 17.2.3 17.3.2.2-.1.5-.2.8-.3 8.4-1.5 12.9-11.2 13-11.3.1-.2.2-.4.3-.5 5.1-7.2 1.4-18.9 1.4-19-.1-.4-.2-.7-.2-1.1.3-8-9.1-14.7-9.2-14.8-.5-.4-.9-.9-1.1-1.4-4.2-10.8-20.6-9.3-20.8-9.3-.8.1-1.6-.2-2.3-.7-8.5-6.8-16.7-1.5-17-1.3-.8.5-1.7.7-2.6.4-3-.9-5.3-.8-6.9.3-2.2 1.5-2.6 4.6-2.6 4.7-.1 1-.7 1.9-1.6 2.4-13 7.3-7.6 20-7.4 20.6.3.7.3 1.6.1 2.3-3.8 10.7 3.6 16 3.9 16.2.7.5 1.1 1.2 1.3 1.9 1.4 6.3 3.6 8.9 5.3 9.9 1.6 1 2.9.8 3 .8.2-.2.5-.2.7-.2z" fill="#3f0f33"/></g></g></g><g><g><g><path d="m87.5 474.3c-3.6 0-7.4-.5-10.5-1.8-1.4.1-3.9-.1-6.5-1.7-3.7-2.3-6.3-6.6-7.8-12.8-3.9-3.3-8.9-10.9-5.6-21.6-2.3-6.6-2.9-19 9.2-26.6.5-2 1.8-5.4 5-7.6 2.9-1.9 6.5-2.4 10.8-1.4 4.8-2.6 14.3-4.7 23.2 2.4 1.4 1.1 1.6 3.1.5 4.4-1.1 1.4-3.1 1.6-4.4.5-8.5-6.8-16.7-1.5-17-1.3-.8.5-1.7.7-2.6.4-3-.9-5.3-.8-6.8.2-2.2 1.5-2.6 4.7-2.6 4.7-.1 1-.7 1.9-1.6 2.4-13 7.3-7.6 20-7.4 20.6.3.7.3 1.6.1 2.3-3.8 10.7 3.6 16 3.9 16.2.7.5 1.1 1.2 1.3 1.9 2 9.3 6.1 11.1 8.3 10.7.7-.1 1.5 0 2.1.3 6 3.1 17.7.9 21.7-.2 1.7-.5 3.4.5 3.9 2.2s-.5 3.4-2.2 3.9c-.7 0-7.6 1.9-15 1.9z" fill="#3f0f33"/></g></g></g><g><g><g><path d="m167.8 363c-10 0-16-3-16.4-3.2-1.5-.8-2.2-2.7-1.4-4.2s2.7-2.2 4.2-1.4c.1.1 11.7 5.7 29.5-.2.5-.2 1-.2 1.5-.1.2 0 20.2 3.4 32.4-6.1.6-.5 1.4-.7 2.2-.6.2 0 17.7 1.5 24.8-10.1.4-.6 1-1.1 1.7-1.3.4-.1 10.1-3.5 13.7-17 .2-.8.8-1.5 1.5-1.9.4-.2 9.8-5.9 10.8-19.6 0-.3.1-.7.2-1 .1-.1 5.4-13.7 0-27.3-2.7-6.7-2.8-11.1-2.9-14.7-.1-4.5-.2-7.2-6.1-13.1-.8-.8-1.1-1.9-.8-3 .1-.6 3.3-15-13.4-26.3-.9-.6-1.4-1.6-1.4-2.7 0-.1.2-14.4-8.7-18.6-.7-.3-1.3-1-1.6-1.7-.2-.4-4.2-10.3-18.3-10.1-1.8 0-3.2-1.4-3.2-3.1s1.4-3.2 3.1-3.2c15.5-.1 22 9.5 23.7 13 9.5 5.3 11 17.6 11.2 22.2 15.6 11.3 15.5 25.3 14.9 30.2 6.6 7 6.7 11.3 6.9 16.2.1 3.2.2 6.9 2.5 12.5 5.8 14.6 1.2 28.7.2 31.5-1.2 14-9.6 21.2-12.8 23.4-4 13.2-13.1 18.3-16.4 19.7-8.2 12.2-24.3 12.5-28.9 12.3-13.1 9.4-31.5 7.4-35.6 6.8-6.4 2-12.2 2.7-17.1 2.7z" fill="#3f0f33"/></g></g></g><g><g><g><path d="m426.2 411.1c-.9 0-1.9-.4-2.5-1.2-8-10.6-28.6-32.4-54.8-47.3-15.2-8.6-25-22.4-33.7-34.7-6.6-9.3-12.3-17.2-18.8-21-14.8-8.6-40.6.2-40.9.3-1.6.6-3.4-.3-4-1.9s.3-3.4 1.9-4c1.2-.4 28.8-9.8 46.1.3 7.7 4.5 13.8 13 20.8 22.8 8.3 11.7 17.8 25 31.7 32.9 25.4 14.4 46.4 35.4 56.7 49 1 1.4.8 3.3-.6 4.4-.6.2-1.3.4-1.9.4z" fill="#3f0f33"/></g></g></g><g><g><g><path d="m441.9 391c-.6 0-1.3-.2-1.8-.6-.9-.6-21.1-15.5-37.4-47-9.7-18.8-10.1-36.4-10.5-53.3-.3-11.8-.5-22.9-3.9-33.8-7.9-25.1-47.2-36.6-47.6-36.7-1.7-.5-2.6-2.2-2.1-3.9s2.2-2.6 3.9-2.1 42.9 12.6 51.8 40.9c3.7 11.7 3.9 23.3 4.2 35.5.4 16.2.7 33 9.8 50.6 15.6 30.2 35.3 44.7 35.5 44.8 1.4 1 1.7 3 .7 4.4-.7.8-1.7 1.2-2.6 1.2z" fill="#3f0f33"/></g></g></g><g><g><g><path d="m285.5 282.9c-3 0-5.9-.5-8.6-1.8-1.6-.8-2.2-2.6-1.5-4.2.8-1.6 2.6-2.2 4.2-1.5 7.3 3.5 19-1.6 22.9-3.9.8-.5 1.7-.6 2.6-.3 9.8 3.2 16.4-5.1 16.7-5.5.5-.7 1.3-1.1 2.1-1.2 9.7-1.3 14.8-11.7 14.8-11.8.2-.4.4-.7.7-.9 9.3-8.8 4.9-16.6 4.9-16.7-.4-.6-.5-1.3-.4-2 2.1-16.1-13.7-20.7-14.4-20.9s-1.4-.7-1.8-1.3c-5-7.5-17.2-6.6-17.3-6.6-.7.1-1.3-.1-1.9-.5-7.6-4.7-20.3.1-20.4.2-1 .4-2.2.2-3.1-.5-7.4-5.8-20.2.4-20.4.4-.5.3-1.1.4-1.7.3-6.6-.7-8.6 5.1-8.8 5.8-.5 1.6-2.2 2.6-3.9 2.1s-2.6-2.2-2.1-3.9c1.1-3.9 5.5-10.9 14.6-10.3 3.3-1.4 15.6-6.1 24.7-.4 4.1-1.3 15.1-4.1 23.4.4 3.5-.1 15.1.3 21.3 8.5 7.5 2.5 19.5 10.7 17.9 26.5 2.1 4.6 3 14.1-6.1 23-1.3 2.5-7.2 12.6-18.2 14.6-2.5 2.8-10.3 9.9-21.4 7-2.8 1.7-10.8 5.4-18.8 5.4z" fill="#3f0f33"/></g></g></g><g><g><g><path d="m345.8 405.1c-2.6 0-4.7-.5-5.1-.6-.7-.2-1.4-.6-1.8-1.3-.1-.2-11.9-17.4-27-36.5-13.2-16.8-12.5-24.7-11.8-32.4.2-1.7.3-3.3.3-5 0-7.1-9.8-20.6-13.6-25.2-1.1-1.3-.9-3.3.4-4.4s3.3-.9 4.4.4c1.5 1.9 15.1 18.6 15.1 29.2 0 2-.2 3.8-.3 5.6-.7 7-1.3 13.1 10.4 27.9 13.1 16.6 23.7 31.8 26.5 35.8 2 .3 5.3.4 7.3-1.1 1.3-1 1.9-2.6 2-5-2-5-11.8-30.1-11.3-38.8.6-9.4 4.2-14.8 4.3-15.1 1-1.4 2.9-1.8 4.4-.8 1.4 1 1.8 2.9.8 4.4 0 0-2.8 4.4-3.3 11.9-.3 5.8 6.4 25.1 11.1 36.7.1.4.2.8.2 1.2 0 5.9-2.4 9-4.5 10.6-2.5 2-5.8 2.5-8.5 2.5z" fill="#3f0f33"/></g></g></g><g><g><g><path d="m354 459.5c-2.7 0-4.7-.2-5.6-.3-16.7 1.7-23.7-7.4-25.8-11-3.6-1.4-6.2-3.7-7.9-7-3.5-6.9-1.3-15.9-.5-18.6-1.8-10.7 2.9-17.5 5.2-20 .5-7.9 10.1-15.3 11.3-16.2 1.4-1 3.4-.7 4.4.6 1 1.4.8 3.4-.6 4.4-3 2.3-9.1 8.2-8.7 12.1.1 1-.3 2-1.1 2.7-.2.2-6.2 5.6-4.1 16 .1.6.1 1.1-.1 1.7 0 .1-3 8.9-.1 14.6 1.1 2.1 2.8 3.5 5.4 4.2.9.3 1.6.9 2 1.8.2.4 4.7 10.2 20.4 8.5h.8c4.2.6 16 1 20.5-4.7.5-.6 1.2-1 2-1.1.1 0 11.3-2 15.9-11.3.2-.3.4-.7.7-.9.1-.1 7.1-6.8 6.1-15.4-.1-.5 0-1 .2-1.5.1-.4 3.1-9.1-4.6-15.9-.6-.5-1-1.3-1-2.1 0-.3-.9-8-11.8-12.9-.3-.1-.6-.3-.8-.6-.5-.4-11.7-10.5-22-2.4-1.4 1.1-3.3.9-4.4-.5s-.9-3.3.5-4.4c11.3-9 24.2-2.6 29.7 2.3 11.3 5.3 14.1 13.4 14.8 16.5 8.6 8.3 6.5 18.4 5.7 21.3.9 10.1-5.8 17.7-7.7 19.6-5.2 10-15.6 13.2-19.2 14-5.2 5.4-13.8 6.5-19.6 6.5z" fill="#3f0f33"/></g></g></g><g><g><g><path d="m454.2 467.2c-3.5 0-6.5-.6-7.9-1-14.6 3.6-22.6-4.3-25-7.2-11.5-3.6-13.1-18-13.3-21.2-4.9-11.8-1.6-19.2 0-21.8.7-17.1 7.3-19.6 8.6-19.9 1.7-.4 3.4.6 3.8 2.3.4 1.6-.5 3.2-2 3.7-.4.2-3.7 2.6-4.1 15 0 .7-.3 1.4-.8 2-.1.2-4.3 5.6.5 16.7.2.4.2.8.3 1.2 0 .1.6 14.1 9.7 16.3.8.2 1.4.7 1.9 1.3.2.4 6.3 9 19.7 5.4.6-.2 1.2-.1 1.8 0 .6.2 13.8 4.1 20.1-5.4.6-.9 1.5-1.4 2.6-1.4.8 0 8-.6 9.5-11.4.1-.6.3-1.2.7-1.6 0-.1 5.8-6.9 4.6-15.2-.1-.6 0-1.2.2-1.7.2-.4 4.4-10.5-3.4-19.8-.6-.7-.8-1.6-.7-2.4 0-.3.7-8.2-12.1-13.4-.4-.2-.7-.4-1-.7-2.2-2.1-9.1-7.4-14.4-6.1-.9.2-1.8.1-2.5-.4 0 0-2.8-1.8-5.9-1-2.3.5-4.4 2.3-6.2 5.2-.9 1.5-2.8 1.9-4.3 1s-1.9-2.8-1-4.3c2.8-4.5 6.2-7.2 10.3-8 4.2-.9 7.7.4 9.5 1.3 8.3-1.2 16.6 5.7 18.6 7.5 13.7 5.8 15.3 14.8 15.5 18.4 8 10.4 5 21.3 3.9 24.5 1 9-3.8 16.3-5.6 18.6-1.9 11.1-9.1 15-13.8 15.8-5.2 6.2-12.3 7.7-17.8 7.7zm-36.2-65s0 .1 0 0z" fill="#3f0f33"/></g></g></g><g><g><g><path d="m430.7 417.7c-.2 0-.4 0-.6-.1-1.7-.3-2.8-2-2.5-3.7 1.9-10.1 9.5-14.9 13.5-16.8-1.5-12.4 3.7-15.2 4.8-15.7 1.6-.7 3.4.1 4.1 1.7.6 1.5 0 3.2-1.5 4-.7.6-2.2 3.7-.9 11.4.3 1.6-.7 3.1-2.2 3.6-.4.1-9.9 3-11.7 12.9-.2 1.6-1.5 2.7-3 2.7z" fill="#3f0f33"/></g></g></g><g><g><g><path d="m420.1 415.5c-.6 0-1.2-.2-1.8-.6-1.4-1-1.8-3-.8-4.4.4-.6 4.1-5.5 15.7-5.7 1.7 0 3.1 1.4 3.1 3.1s-1.4 3.2-3.1 3.2c-8.2.1-10.6 3-10.6 3-.6.9-1.5 1.4-2.5 1.4z" fill="#3f0f33"/></g></g></g><g><g><g><path d="m355.9 222.6c-.9 0-1.9-.4-2.5-1.2-1.1-1.4-.8-3.3.6-4.4.1-.1 13.8-10.6 18.1-20.3.7-1.6 2.6-2.3 4.2-1.6s2.3 2.6 1.6 4.2c-5 11.1-19.4 22.2-20 22.7-.7.3-1.3.6-2 .6z" fill="#3f0f33"/></g></g></g><g><g><g><path d="m365.5 230.3c-1 0-1.9-.4-2.5-1.3-1-1.4-.7-3.4.7-4.4.1-.1 13.8-10.1 21.2-23.2.9-1.5 2.8-2 4.3-1.2s2 2.8 1.2 4.3c-8 14.3-22.4 24.8-23 25.2-.7.4-1.3.6-1.9.6z" fill="#3f0f33"/></g></g></g><g><g><g><path d="m384.1 228.9c-4.2 0-9.1-1.5-13.3-6-1.2-1.3-1.1-3.2.1-4.4 1.3-1.2 3.2-1.1 4.4.1 6.6 6.9 13.9 3 14.8 2.5.4-.2.9-.4 1.3-.4 11.6-.9 17.8-6.4 17.8-6.4.5-.4 1-.7 1.6-.8 8.8-1.4 12.7-14 12.7-14.1.1-.5.4-.9.8-1.3 7.1-7.3 5.7-15.6 5.7-15.7-.1-.6 0-1.2.2-1.8 5.5-12.5-2-21.8-2.1-21.9-.5-.6-.7-1.2-.7-1.9-.2-11.8-11.8-14.2-12.3-14.3-1.2-.2-2.2-1.2-2.5-2.4-2.8-12-16.1-10.8-16.6-10.8-.7.1-1.5-.1-2.1-.5-5.5-3.8-17.6-1-21.7.4-.4.1-.7.2-1.1.2-.2 0-.5 0-.7 0-12.1 0-17.2 10.8-17.4 11.3-.4.9-1.3 1.6-2.2 1.8-10.2 2-9.6 13.6-9.6 14 0 .6-.1 1.3-.5 1.8-6.5 10.6-.1 21.4.2 21.9.3.6.5 1.2.4 1.9-1.3 14 6.1 18 6.2 18 .8.4 1.4 1.1 1.7 1.9 3.2 10.6 11.3 9.9 11.4 9.9 1.7-.2 3.3 1.1 3.4 2.8.2 1.7-1.1 3.3-2.8 3.4-4.5.5-13.7-1.7-17.7-13.1-2.9-2-9.6-8.2-8.6-22.5-1.8-3.4-6.8-14.9-.1-26.7-.1-6 2.6-16.3 13.1-19.2 2.1-3.8 9-13.6 22.4-13.6h.4c3.3-1 17.2-5 25.8-.1 6.5-.3 18 2.2 21.7 13.8 6 1.8 14.7 7.4 15.4 18.8 2.1 3.1 8.1 13.4 2.6 26.7.2 2.9.3 11.7-7 19.6-1.1 3.2-5.9 15.3-16.7 17.6-2.2 1.7-9.1 6.3-20.1 7.3-1.8 1.2-4.9 2.2-8.3 2.2z" fill="#3f0f33"/></g></g></g><g><g><g><path d="m396.9 207.9c-9.4 0-14.9-6-17.4-9.6-4.5 1.7-10.1 2.4-15.4-1.1s.2.1.4.2c-1.3-.4-2.2-1.6-2.2-3 0-1.7 1.4-3.1 3.1-3.1 1 0 1.7.4 2.1.7 1.2.8 4.7 3.1 11.8-.4.8-.4 1.6-.4 2.4-.2.8.3 1.5.9 1.8 1.6.2.4 4.5 9 14.1 8.6 1.7-.1 3.2 1.3 3.3 3s-1.3 3.2-3 3.3c-.3 0-.6 0-1 0z" fill="#3f0f33"/></g></g></g></g></g></svg>