<svg id="Layer_1" enable-background="new 0 0 512 512" height="512" viewBox="0 0 512 512" width="512" xmlns="http://www.w3.org/2000/svg"><g><g><g><g><path d="m426.9 385.8c-8.6-18-16-20.7-19.9-39-3.9-18.4-12.9-38.7-19.1-53.9s-2.7-37.9-17.6-72.6c-14.8-34.8-69.9-37.9-87.9-37.5-10.7.2-22.7-3.4-31.5-7.9-5.9-3-10.5-6.3-12.2-8.9-3.7-5.6-10.6-12.4-12.6-14.2l-.5-.6c3.4-8.7 1.2-13.3 1.2-13.3 7.5-10.3 1.5-35.3 1.5-35.3.3 1 .6 2 .9 2.9 5.5 16.3 12.1 15.9 11.8 4.5s11.1-24.2 9-34.6-22.2-14.5-27.3-21.1c-5.2-6.6-14.9-13.2-21.5-13.8-6.6-.7-29.4 0-29.4 0s-22.8-.7-29.4 0-16.3 7.3-21.5 13.8c-5.2 6.6-25.3 10.7-27.3 21.1-2.1 10.4 9.3 23.2 9 34.6s6.2 11.8 11.8-4.5c.3-.9.6-1.9.9-2.9s-5.9 25 1.5 35.3c0 0-3.1 6.9 4.2 19.4l-.7.3s-3.9 9-3.7 19.2c0 0-15.9 68.3-8.6 89.7 7.4 21.5 12.4 25 15.2 34.8 2.8 9.9 2.4 23.9 8.2 39.8 5.8 15.8 13.9 66.5 10.8 83.8-3.2 17.2-8.1 25.3-4.2 30.3 3.9 4.9 31.1 3.5 33.9 0s.6-12.3 1.7-18.3 3.2-14.8-4.2-20.8-7-91.9-6.7-96.4h.1c8.8 7.3 20.5 13.2 36.1 15.5l2.3-.4c-.8 11.8-1.8 25.8-2.3 37.4-1.1 23.2-6 62.6-8.8 72.1s-10.2 16.5-7.7 23.2 29.6 10.9 32.7 3.9c3.2-7 0-27.6 3.2-42.3 2.5-11.8 14.4-69.9 18.4-99.9s14.3.1 30.7-4.5 5.1 14.4 19.7 21.4 22.1 20.4 19.3 26.5-11.1 18.1-16.3 19c-5.1.9-14.9 6-12.1 11.6s24.4 5.1 28.9 2.8 25.5-40.9 28.3-47.4 4.1-8.3-10.7-18.5c-11.6-8-12.4-25.8-10.5-35.2 4-1.1 7.8-1.9 11.1-2.5l12.5-1.3c13.6 21.1 46.6 51 55.4 60.6 9.4 10.2 20.4 39.2 21.6 48.6s-3.5 14.8-.8 18.4c2.7 3.5 32.7 5.3 34.3-2.9 1.4-8.4-12.6-22.1-21.2-40z" fill="#5b4d60"/></g></g></g><g><g><g><path d="m331.9 346.1c-1.3-1-15.9-8.9-17.9-24.1-1-7.4-.1-13.5 1-17.7 10.9-2.3 22.5-3.4 22.5-3.4l-10.6-29.7s-20.9 0-42.7 7.3-30.5 0-30.5 0l-14.2 12.7-3 37.8s0 0 8.9-.5c5.4-.3 20.8-5.2 34.1-10.4l13.3 29.2 29.8 27.5s8.9-9.9 13.3-18.2c4.4-8.2-2.7-9.5-4-10.5z" fill="#43344c"/></g></g></g><g><g><g><path d="m230.5 118.5c-3.4-22.1-24.8-6.5-31.6-14.1-6.8-7.5-15.4-5.6-15.4-5.6 1.3 8.3-2.5 13.5-11.8 15.3-10-2.7-14.8-7.4-11.8-15.3 0 0-8.6-1.9-15.4 5.6s-28.2-8.1-31.6 14.1l3.8 19.1s-8.1 10.7 17.1 36.3c16.3 16.5 28.5 21.2 35.1 22.5v.4s1 .2 2.8 0c1.8.1 2.8 0 2.8 0v-.4c6.6-1.3 18.8-6 35.1-22.5 25.3-25.6 17.1-36.3 17.1-36.3z" fill="#e0a368"/></g></g></g><g><g><g><path d="m149 67c5.2-1.2 10.2 3.1 9.9 8.4-.1 1.6-.8 2.7-2.6 2.4-5.1-.8-10.4-7.2-9.4-9.5.4-.7 1.1-1.1 2.1-1.3z" fill="#e0a368"/></g></g></g><g><g><g><path d="m194.4 67c-5.2-1.2-10.2 3.1-9.9 8.4.1 1.6.8 2.7 2.6 2.4 5.1-.8 10.4-7.2 9.4-9.5-.3-.7-1-1.1-2.1-1.3z" fill="#e0a368"/></g></g></g><g><g><g><path d="m287.1 316.7s11.1 20.1 23.5 28.1 14.1 2.7 16.3 14.1-6.3 26.8-6.3 26.8l-13.7 20.2s-28.3 2.5-28.9-2.8 15.2-12 15.2-12 13.5-16.9 12.4-24.7c-1.1-7.9-12.5-17.2-15.5-18.8s-19.4-7.1-22.7-23c-.1 0 12-3.5 19.7-7.9z" fill="#ad6845"/></g></g></g><g><g><g><path d="m158.9 343.6s-10.5 8-9.6 22.7c.9 14.6 5.8 55.2-6.7 48.7 0 0-13.5 39.9-2.4 41.5s31.5-1.5 31.5-1.5l1.7-18.3s4.2-9.4 0-15.1-5.8-14-5.8-14z" fill="#e0a368"/></g></g></g><g><g><g><path d="m396.4 361.6s36.1 34.4 41.7 43 20.5 24.9 0 26.8-24.9-7.9-24.3-11.1-.4-16.3-.4-16.3z" fill="#e0a368"/></g></g></g><g><g><g><path d="m197.9 389s2.5 36.8 7.7 36.3 16.5-15.6 16.5-15.6l-5.7 22s9.1 47.3-10.8 43.2-30.4-7.2-23.9-16.7 8.2-14 8.2-14z" fill="#e0a368"/></g></g></g><g><g><g><path d="m135.8 267s12.9 90.3 13.6 99.3 13.6 0 13.6 0l-.5-43.1c0-.1-23-23-26.7-56.2z" fill="#43344c"/></g></g></g><g><g><g><path d="m140.3 212.4s-13.2 49.3 4.2 83.2 54.2 39.4 54.2 39.4l3.4-24.6s-56.3-20.8-61.8-98z" fill="#43344c"/></g></g></g><g><g><g><path d="m146.9 42.4s17.7 8.8 24.9 8.8c7.1 0 26.8-8.1 25.9-8.8-.9-.8-48.5-3-50.8 0z" fill="#43344c"/></g></g></g><g><g><g><path d="m149.4 366.3s5.8 44.9 4.8 62.7c-1.1 17.8-7 29.2-7 29.2s24 3.6 24.6-3.2c.6-6.7 0-16.3 0-16.3l5.7-12-8.2-10.7-6.3-52c0-.1-6.1 11.3-13.6 2.3z" fill="#ad6845"/></g></g></g><g><g><g><path d="m137.6 137.4s3.7 29.2 33.9 30.5 35.5-30.5 35.5-30.5-35.5 47.5-69.4 0z" fill="#ad6845"/></g></g></g><g><g><g><path d="m171.7 123.7-19.5 7.9s2.9 10.8 1.9 16.1c-1 5.4-2 37.9 19 35.6 20.9-2.3 16.5-22.6 16.6-32.2s.8-21.1.8-21.1z" fill="#b73558"/></g></g></g><g><g><g><path d="m136.6 123.7 9.2 7.6 6.5.2s6.2 19.2-.1 18.9c-6.4-.3-14.3-9.6-14.3-9.6z" fill="#7f2d54"/></g></g></g><g><g><g><path d="m206.9 123.7-9.2 7.6-6.5.2s-6.2 19.2.1 18.9c6.4-.3 14.3-9.6 14.3-9.6z" fill="#7f2d54"/></g></g></g><g><g><g><path d="m242.5 208.7s16.5 19.6 18.4 35-15.5 42.4-15.5 42.4 9.7-57-2.9-77.4z" fill="#43344c"/></g></g></g><g><g><g><path d="m203.4 181.3c-2.2.1 34.4-11.1 31.3-17.6s-8.6-12-8.6-12-14 29-22.7 29.6z" fill="#43344c"/></g></g></g><g><g><g><path d="m162.7 100.1s9.7-1.1 13.4 0 5.4 2.7 5.4 2.7l-7 8 10-7.2c0 .1-7.9-15.4-21.8-3.5z" fill="#fff"/></g></g></g><g><g><g><path d="m265 183.4s4.2 3.6 19.8 4.6 76.9 2.9 89.6 49c0 0-5.4-29.6-25.9-40.1s-83.5-13.5-83.5-13.5z" fill="#fff"/></g></g></g><g><g><g><path d="m229.8 62s17.6 10 15.6 18.9-4.1 22.3-4.1 22.3 13.1-21.4 8.7-28.1c-4.5-6.7-20.2-13.1-20.2-13.1z" fill="#fff"/></g></g></g><g><g><g><path d="m113.1 192.6s-8.9 69.2 12 108.3c0 0-19-34.9-18.8-49.3.3-14.2 6.8-59 6.8-59z" fill="#fff"/></g></g></g><g><g><g><path d="m237.7 121.1c-4.2 0-8.2-5.1-11.5-14.8-2-5.9-3.2-12.8-4.3-19.4-1.9-11.1-3.8-22.5-9.3-25.2-1.6-.8-2.2-2.6-1.5-4.2.8-1.6 2.6-2.2 4.2-1.5 8.5 4.1 10.6 16.6 12.8 29.8 1.1 6.4 2.2 13 4 18.4 2.1 6.2 4.1 9.1 5.2 10.1.2-.7.5-2.1.4-4.5-.2-6.1 2.4-12.2 5-18.1s5-11.5 4.1-16c-1-4.8-8.2-8.5-14.6-11.8-4.9-2.5-9.6-4.9-12.1-8-4.9-6.2-13.9-12.1-19.3-12.7-6.3-.7-28.8 0-29 0-1.7.1-3.2-1.3-3.2-3-.1-1.7 1.3-3.2 3-3.2.9 0 23.1-.7 29.8 0 8 .8 18.3 8.3 23.6 15 1.6 2 5.9 4.2 10 6.3 7.7 3.9 16.4 8.3 18 16.1 1.3 6.4-1.6 13.2-4.5 19.7-2.3 5.3-4.6 10.7-4.5 15.4.3 9-3.3 11-5.4 11.3-.2.2-.5.3-.9.3z" fill="#3f0f33"/></g></g></g><g><g><g><path d="m199 187.5c-.9 0-1.8-.4-2.5-1.2-1.1-1.4-.8-3.3.5-4.4.1-.1 10.1-8.1 20.4-22.6 9.3-13.1 6.5-20.3 6.5-20.4-.4-1-.3-2.2.3-3.1 5.4-7.5 2.6-26.2 1-32.8-.4-1.7.6-3.4 2.3-3.8s3.4.6 3.8 2.3c.6 2.6 5.6 24.9-1.2 36.5.8 3.6 1.3 12.1-7.7 24.8-10.8 15.3-21.2 23.5-21.6 23.9-.5.5-1.2.8-1.8.8z" fill="#3f0f33"/></g></g></g><g><g><g><path d="m105.7 121.1c-.3 0-.6 0-1-.1-2.1-.4-5.7-2.4-5.4-11.3.1-4.7-2.2-10.1-4.5-15.4-2.8-6.5-5.8-13.3-4.5-19.7 1.6-7.8 10.3-12.2 18-16.1 4.1-2.1 8.4-4.3 10-6.3 5.3-6.7 15.6-14.2 23.6-15 6.7-.7 28.9 0 29.8 0 1.7.1 3.1 1.5 3 3.2s-1.6 3.1-3.2 3c-.2 0-22.7-.7-29 0-5.4.6-14.4 6.5-19.3 12.7-2.5 3.1-7.1 5.5-12.1 8-6.4 3.3-13.7 7-14.6 11.8-.9 4.5 1.5 10.1 4.1 16 2.5 5.9 5.2 12 5 18.1-.1 2.4.2 3.8.4 4.5 1.1-1 3.1-3.9 5.2-10.1 1.8-5.4 3-12 4-18.4 2.2-13.2 4.3-25.7 12.8-29.8 1.6-.8 3.4-.1 4.2 1.5s.1 3.4-1.5 4.2c-5.5 2.7-7.5 14.1-9.3 25.2-1.1 6.6-2.3 13.5-4.3 19.4-3.2 9.5-7.1 14.6-11.4 14.6z" fill="#3f0f33"/></g></g></g><g><g><g><path d="m144.5 187.5c-.7 0-1.4-.2-1.9-.7-.4-.3-10.8-8.6-21.6-23.9-9-12.7-8.5-21.2-7.7-24.8-6.8-11.6-1.8-33.9-1.2-36.5.4-1.7 2.1-2.7 3.8-2.3s2.7 2.1 2.3 3.8c-1.6 6.6-4.4 25.3 1 32.8.7.9.8 2.1.3 3.2 0 0-2.7 7.2 6.5 20.3 10.3 14.5 20.3 22.5 20.4 22.6 1.4 1.1 1.6 3 .5 4.4-.5.7-1.4 1.1-2.4 1.1z" fill="#3f0f33"/></g></g></g><g><g><g><path d="m151.2 89.1c-2.8 3.2-7.6 3.5-10.8.7s-3.5-7.6-.7-10.8 4.8 0 8 2.8 6.3 4.1 3.5 7.3z" fill="#3f0f33"/></g></g></g><g><g><g><path d="m192.3 89.1c2.8 3.2 7.6 3.5 10.8.7s3.5-7.6.7-10.8-4.8 0-8 2.8-6.3 4.1-3.5 7.3z" fill="#3f0f33"/></g></g></g><g><g><g><path d="m171.7 117.2c-2.7 0-5.5-.9-7.8-2.7l-9.5-7.6c-.7-.6-1.2-1.5-1.2-2.5 0-7.2 8.1-12.8 18.5-12.8 10.1 0 18 5.8 18 13.3 0 1-.4 1.9-1.2 2.5l-9 7.1c-2.3 1.8-5 2.7-7.8 2.7zm-11.9-14 8.1 6.4c2.3 1.8 5.5 1.8 7.8 0l7.6-6c-1.1-3.1-6-5.7-11.5-5.7-5.7.1-10.8 2.4-12 5.3z" fill="#3f0f33"/></g></g></g><g><g><g><path d="m150.5 134.6c-1.8 0-3.5-.3-4.9-1.1-7.6-3.9-20.1-14.7-20.7-15.2-1.3-1.1-1.5-3.1-.3-4.4 1.1-1.3 3.1-1.5 4.4-.3.1.1 12.5 10.8 19.4 14.3 3.6 1.9 13.6-2.9 20.1-7.1v-6.8c0-1.7 1.4-3.1 3.1-3.1s3.1 1.4 3.1 3.1v8.4c0 1-.5 2-1.3 2.6-2.5 1.9-14.1 9.6-22.9 9.6z" fill="#3f0f33"/></g></g></g><g><g><g><path d="m171.7 160.5c-1.7 0-3.1-1.4-3.1-3.1v-34.9c0-1.2.6-2.2 1.7-2.8 1-.5 2.3-.5 3.2.2 6.4 4.4 17.6 10 21.5 8 7-3.6 19.3-14.2 19.4-14.3 1.3-1.1 3.3-1 4.4.3s1 3.3-.3 4.4c-.5.5-13 11.3-20.7 15.2-6.3 3.2-16.7-1.6-23-5.3v29.1c.1 1.8-1.3 3.2-3.1 3.2z" fill="#3f0f33"/></g></g></g><g><g><g><path d="m171.7 186.5c-.1 0-.1 0-.2 0-6.9-.4-12.3-2.9-16-7.4-6.8-8.3-5.9-21.5-4.6-30.8 1.4-10-1.5-15.3-1.5-15.4-.8-1.5-.3-3.4 1.2-4.3s3.4-.3 4.3 1.1c.2.3 4 7.1 2.3 19.4-1.1 8-2 19.5 3.2 25.9 2.5 3.1 6.3 4.8 11.5 5.1 1.7.1 3 1.6 2.9 3.3 0 1.8-1.4 3.1-3.1 3.1z" fill="#3f0f33"/></g></g></g><g><g><g><path d="m171.7 186.5c-1.6 0-3-1.3-3.1-2.9-.1-1.7 1.2-3.2 2.9-3.3 5.2-.3 9-2 11.5-5.1 5.3-6.4 4.4-17.9 3.2-25.9-1.7-12.3 2.1-19.1 2.3-19.4.9-1.5 2.8-2 4.3-1.1s2 2.8 1.2 4.3c-.1.2-2.9 5.5-1.5 15.4 1.3 9.2 2.2 22.4-4.6 30.8-3.7 4.5-9 7-16 7.4 0-.2-.1-.2-.2-.2z" fill="#3f0f33"/></g></g></g><g><g><g><path d="m153.8 154.3c-.4 0-.7-.1-1.1-.2-21.9-8.2-19.9-30.4-19.9-30.7.2-1.7 1.7-3 3.4-2.8s3 1.7 2.8 3.4c-.1.8-1.4 17.7 15.9 24.2 1.6.6 2.4 2.4 1.8 4-.5 1.3-1.7 2.1-2.9 2.1z" fill="#3f0f33"/></g></g></g><g><g><g><path d="m189.7 154.3c-1.3 0-2.5-.8-2.9-2-.6-1.6.2-3.4 1.8-4 17.4-6.6 15.9-24 15.9-24.2-.2-1.7 1.1-3.3 2.8-3.4 1.7-.2 3.3 1.1 3.4 2.8 0 .2 2 22.4-19.9 30.7-.3 0-.7.1-1.1.1z" fill="#3f0f33"/></g></g></g><g><g><g><path d="" style="fill:none;stroke:#3f0f33;stroke-width:2.5;stroke-linecap:round;stroke-linejoin:round;stroke-miterlimit:10"/></g></g></g><g><g><g><path d="" style="fill:none;stroke:#3f0f33;stroke-width:2.5;stroke-linecap:round;stroke-linejoin:round;stroke-miterlimit:10"/></g></g></g><g><g><g><path d="m153.3 461.3c-9.6 0-15.6-1.5-17.9-4.4-3.5-4.5-2-9.9.2-18.1 1-3.9 2.4-8.8 3.4-14.6 3-16.3-4.8-66.3-10.6-82.1-3.7-10.1-4.9-19.2-6-27.3-.7-4.9-1.2-9.1-2.2-12.7-1.1-4-2.6-6.8-4.7-10.8-2.8-5.2-6.2-11.6-10.4-23.9-7.4-21.5 7-85 8.4-91.1-.1-10.6 3.8-19.7 3.9-20.1.7-1.6 2.5-2.3 4.1-1.6s2.3 2.5 1.6 4.1c0 .1-3.6 8.5-3.4 17.9 0 .3 0 .5-.1.8-.2.7-15.7 67.6-8.6 88 4.1 11.8 7.4 18 10 23 2.1 3.9 3.9 7.3 5.2 12 1.1 4 1.8 8.6 2.4 13.5 1.1 7.8 2.3 16.6 5.7 26 6.2 16.8 14.1 67.9 10.9 85.4-1.1 6.1-2.5 11.1-3.5 15.1-1.9 7-2.8 10.7-1.3 12.6 3 3.1 25.3 2.3 29-.1.9-1.4.8-5.2.7-8.2-.1-2.9-.2-5.9.3-8.6l.2-1.1c1.3-6.9 1.8-12.6-3.3-16.7-9.5-7.7-7.9-98.2-7.8-99.1.1-1.7 1.6-3 3.4-2.9 1.7.1 3 1.6 2.9 3.4-.6 9 0 87.5 5.6 93.8 8.3 6.7 6.5 16.7 5.4 22.6l-.2 1c-.4 2.1-.3 4.7-.2 7.3.1 4.8.3 9.4-2.1 12.4-3.2 4.2-17.8 4.4-20.7 4.4-.2.1-.2.1-.3.1z" fill="#3f0f33"/></g></g></g><g><g><g><path d="m198.7 338.1c-.2 0-.3 0-.5 0-63.2-9.4-64.9-73.8-64.9-74.5 0-1.7 1.4-3.2 3.1-3.2 1.8-.1 3.2 1.4 3.2 3.1 0 2.4 1.7 59.8 59.6 68.4 1.7.3 2.9 1.9 2.6 3.6-.2 1.5-1.5 2.6-3.1 2.6z" fill="#3f0f33"/></g></g></g><g><g><g><path d="m204.4 478c-.5 0-1 0-1.5 0-7.8-.3-21.2-3.1-23.5-9.5-2-5.5.7-10.6 3.5-15.9 1.6-2.9 3.2-6 4.1-9.3 2.6-8.7 7.6-47.9 8.7-71.4.5-10.5 1.3-23.1 2.1-34.2.8-12.6 1.6-24.5 1.5-27.4-.2-3.6-4.2-11.6-6.6-15.9-.9-1.5-.3-3.4 1.2-4.3s3.4-.3 4.3 1.2c.7 1.3 7.1 12.4 7.5 18.6.2 3.3-.5 14.3-1.5 28.2-.7 11.1-1.6 23.6-2.1 34.1-1 22.7-6 62.9-8.9 72.9-1.2 3.9-3 7.4-4.6 10.4-2.6 5-4.2 8.1-3.2 10.8.6 1.7 8.4 5.1 17.9 5.4 6.1.2 8.8-1.1 9-1.8 1.3-2.9 1.3-9.7 1.3-17 0-8 0-17 1.7-24.7 4.4-20.6 20.6-101.6 19.6-114.8-.6-8.7 1.8-15.7 4.6-23.7 2.3-6.5 4.8-13.8 6.7-23.9 4-22.2-5-52.3-5-52.6-.5-1.7.4-3.4 2.1-3.9s3.4.4 3.9 2.1c.4 1.3 9.5 31.8 5.2 55.5-1.9 10.6-4.6 18.1-6.9 24.8-2.8 8-4.8 13.8-4.3 21.2 1.2 16.5-19.6 115.6-19.8 116.6-1.5 7-1.5 15.7-1.5 23.4 0 8.3 0 15.4-1.9 19.6-2.1 4.5-8.3 5.5-13.6 5.5z" fill="#3f0f33"/></g></g></g><g><g><g><path d="m429.9 434.5c-8 0-16.5-1.3-18.7-4.1-2.3-3-1.5-6.4-.7-9.8.7-2.8 1.4-6.1.9-10.1-1.1-8.8-11.9-37.2-20.8-46.8-2.2-2.3-5.8-5.9-10.4-10.5-15.4-15.1-38.6-38-47.8-54.5-12-21.6-11-53.7-11-55.1.1-1.7 1.5-3.1 3.2-3s3.1 1.5 3 3.2c0 .3-1 31.7 10.2 51.8 8.7 15.7 32.5 39.1 46.7 53.1 4.7 4.6 8.4 8.3 10.6 10.7 10 10.8 21.2 40.4 22.4 50.3.6 5.2-.3 9.3-1 12.3-.4 1.9-.8 3.6-.5 4.3 2.8 1.6 19 3.2 26.5.2 1.7-.7 2.2-1.3 2.2-1.6.7-3.6-3.9-10.4-8.7-17.6-4-5.9-8.5-12.7-12.1-20.3-3.3-6.9-6.4-11.5-9.2-15.6-4.5-6.7-8.4-12.4-10.9-24.1-3.3-15.7-10.6-33.2-16.4-47.3-.9-2.1-1.7-4.1-2.5-6.1-2.6-6.3-3.6-13.8-4.7-22.3-1.8-13.1-3.9-29.5-12.8-50.3-15.4-36-77.8-35.7-84.9-35.6-19.6.4-41.6-10.8-46.4-18.2-4-6.2-12.6-14.1-12.7-14.2-1.3-1.2-1.4-3.2-.2-4.4 1.2-1.3 3.2-1.4 4.4-.2.4.3 9.2 8.5 13.7 15.4 3.5 5.3 23.7 15.7 41 15.4 12.2-.3 74.2.4 90.8 39.4 9.2 21.5 11.5 38.4 13.3 51.9 1.1 8.5 2 15.2 4.3 20.8.8 1.9 1.6 4 2.5 6.1 5.9 14.3 13.3 32.1 16.8 48.4 2.2 10.5 5.7 15.6 10 21.9 2.9 4.3 6.2 9.1 9.7 16.4 3.4 7.2 7.8 13.7 11.7 19.5 6.1 9 10.8 16.2 9.7 22.3-.7 3.5-3.8 5.9-9.3 7.2-3.1.7-7.4 1.1-11.9 1.1z" fill="#3f0f33"/></g></g></g><g><g><g><path d="m236.7 332.2c-.1 0-.1 0-.1 0-1.7 0-3.1-1.4-3.1-3.2 0-1.7 1.4-3.1 3.1-3.1.9 0 29.7-.1 51.5-13.5 23.7-14.4 48.3-14.6 49.3-14.7 1.7 0 3.1 1.4 3.1 3.1s-1.4 3.1-3.1 3.2c-.2 0-24 .3-46.1 13.7-23 14.2-52 14.5-54.6 14.5z" fill="#3f0f33"/></g></g></g><g><g><g><path d="m294.7 410.7c-4.8 0-9.9-.5-13.4-1.7-3.1-1-5.1-2.5-6.1-4.5-1.1-2.2-1.1-4.7.1-7 2.5-5 9.8-8.3 14.3-9.1 3.2-.6 10.9-10.6 14-17.3 1.8-4-4.2-15.9-17.8-22.3-15.6-7.4-21.1-22.6-21.4-23.2-.6-1.6.3-3.4 1.9-4s3.4.3 4 1.9c.1.3 5 13.4 18.1 19.6 16.1 7.7 24.4 22.8 20.8 30.6-2.6 5.6-11.6 19.5-18.5 20.8-3.4.6-8.6 3.3-9.8 5.8-.3.6-.2 1-.1 1.4 1.7 3 20.5 3.5 24.7 1.4 3.8-2.8 23.5-37.9 26.8-45.8l.3-.6c2-4.8 2.4-5.7-9.9-14.1-8.7-6-11.3-15-12-21.4-.8-7.8.9-16.1 4-19.3 1.2-1.3 3.2-1.3 4.4-.1 1.3 1.2 1.3 3.2.1 4.4-1 1-3.1 6.8-2.3 14.4.5 5.2 2.6 12.3 9.3 16.9 14.5 10 15.6 13.5 12.1 21.7l-.3.6c-1.9 4.6-23.6 45.8-29.7 48.9-2.4 1.3-7.9 2-13.6 2z" fill="#3f0f33"/></g></g></g><g><g><g><path d="m245.4 291c-.9 0-1.8-.4-2.4-1.1-1.1-1.3-1-3.3.3-4.4 7.4-6.4 26-25.7 23.3-38.7-.3-1.7.7-3.4 2.4-3.7 1.7-.4 3.4.7 3.7 2.4 4 19.2-24.2 43.7-25.4 44.7-.4.6-1.2.8-1.9.8z" fill="#3f0f33"/></g></g></g></g></svg>