<svg id="Layer_1" enable-background="new 0 0 512 512" height="512" viewBox="0 0 512 512" width="512" xmlns="http://www.w3.org/2000/svg"><g><g><g><g><path d="m421.2 333.1c-.6-11.6 5.8-26.6 2.9-51-2.4-20.2-6.4-39.3-16.7-65.2s15.5-31.9 0-57.9c0 0-2 13.1-6.6 16.8 0 0-2.5-28.2-26.4-33.9s-39.7 3.7-39.7 3.7 4.9 5.9 5 10.5c-7.5-2.5-18.8-2.3-32.8 9.5-.9.6-1.7 1.3-2.4 2.1-.4.5-.8.9-1.2 1.3-5.6.2-10.3.5-13.6.8-20.3 1.7-22.9-2.1-22.9-2.1l.8 1.5c-1.1-.5-2.2-1-3.1-1.5-4.5-14.9-14.7-9-35.9-44.6-28.4-47.7-83.3-25.4-83.3-25.4s-8.4 1.5-22 3c-7.5.8-21.3 13.8-27.4 25.7s-18.2 9.7-15.6 27c2.1 13.9-26.8 71.1 13.6 68.6l3 1.5c1.2 3 2.7 6 4.6 9.3 0 0 2.4-8.1 4.9-14.3l2.3-2.9c-.2 10.3 5.6 15.1 9.7 17.2s-6.6 14.2-5.7 33.9c.8 19.7 6.7 27.8 6.7 27.8l6.5-15.1s2.9 23 20.9 40 1.1 38.9 2.7 49.2-5.3 15.8-3.9 20.2c1.5 4.5 40.6 5.8 62 0h.4c-.5 1.6-.6 2.8-.1 3.5 1.7 2.3 62 5.2 66.6-3.5 3.5-6.5 6.6-30.6 4.3-53.5l.8-1.4c3 .1 5.9.1 8.6 0h.7l5.6 12.1c1.4 4.2 3.3 8.9 6 12.9v.1l-.2-.1c-10.1 1.8-17.1 25.1-11.8 28s65.2-.5 65.2-.5l1.5-.5c10.7 7.3 68.8-.1 72.1-5 3.7-5.5-5.6-36.2-6.1-47.8z" fill="#f5e0cf"/></g></g></g><g><g><g><path d="m291.8 325.8s.4 22.3 6.3 28.2-14.5 12-8 30.8c0 0 63.9 3.5 63.9 1.4s.7-27.4 0-27.4c-.7-.1 0-2.4 0-2.4s-14.5-26.8-26.6-32.2c-12.1-5.5-35.6 1.6-35.6 1.6z" fill="#c6a99d"/></g></g></g><g><g><g><path d="m372.9 299.5s13.3 10.6 15 26.3l-7.5-1.4s8.2 13.5 7.5 17.1-28.8-.6-33.9 19.9c-5.2 20.5-47.6-24.3-47.6-24.3l14.1-23.7s23.4.1 27.1 0c3.6-.1 25.3-13.9 25.3-13.9z" fill="#c6a99d"/></g></g></g><g><g><g><path d="m311.7 307.7c12-11.2 15.7-26.3 15.7-26.3-18.9 15.7-49.9 24.7-70.3 29.2-20.2 4.5-41.6 1.8-59.4-8.8-1.1-.6-2.1-1.3-3.2-2 0 0-4.1 10-2.2 18.5-8.8-3.6-17.6-7.6-18.5-9 0 0 3.9 21.1 19.2 26 0 0-24.3-1.7-25.9-1.6v39.5l9.4-11.8-6.3 33.1 34.8-5.9 2.6-3.4 5.6-23.9-2.1-29.9c2.5-.1 2.1-1.8 2.1-1.8s23.3 10.1 33 10.1l-9.7-8.4s20.2 1.3 24.4 14.3c4.2 13.1-10.8 46.8-10.8 46.8s21.5-1.4 24.3-3.9 2.9-10.2 2.9-10.2l1.4-43.3s11.6.5 31.8-4.6 32.8-17.1 32.8-17.1l11.8-20.4c.2.2-17.9 8.3-43.4 14.8z" fill="#c6a99d"/></g></g></g><g><g><g><path d="m143.2 188.6s-10.4 22.8-6.5 28.3c0 0 3.3-8.5 6.5-9 0 0-6.1 26.4 8.6 26.1 14.7-.2 29.1-5 29.1-5l-31.4-44.6z" fill="#c6a99d"/></g></g></g><g><g><g><path d="m93.9 215.1s-11.1-.6-13.4-10.5 7.7-33.4 7.7-33.4l9.6 22c-.1 0-8.8 14.5-3.9 21.9z" fill="#c6a99d"/></g></g></g><g><g><g><path d="m102.7 221.9c0-1.2-7.6-33.4 30.1-46.2l10.4 9.8s-20.3 20.1-20.6 29.6c-.2 9.5-2 18.4-2 18.4s-10.7-5.9-10.2-14.4c.4-8.6-7.7 2.8-7.7 2.8z" fill="#c6a99d"/></g></g></g><g><g><g><path d="m183.9 230.2s1.2-23-7.9-32.9c-9-10-9-10-9-10s18.6 9.4 22.3 17.3c3.7 8 4.6 15.4 4.6 15.4l11.1 15s12.5-25.9-14-44.5-32.6-15.2-32.6-15.2l-10 9z" fill="#c6a99d"/></g></g></g><g><g><g><path d="m110 178.5s-21.1-8.1-18.7-27.4c0 0-7.8 9.1-2.4 26.5s5.4 17.4 5.4 17.4z" fill="#c6a99d"/></g></g></g><g><g><g><path d="m181.7 175.1s24.2-10.9 15.8-26.8-8.4-15.9-8.4-15.9 12.6 4.3 15.3 15.9c0 0 5.2-5.6-2.2-14 0 0 12.1 1.1 19.4 19.4s13.8 31.7 18.3 32.5l-3.3-13.2s11.3 11 17.4 11.3 11.5-4.2 11.5-4.2-1.6 13.5-4.2 18.2-14.7 19.3-20.3 18.5-16.3-15.5-16.3-15.5l-8.1 3.7c-.1.1-23.1-28.4-34.9-29.9z" fill="#c6a99d"/></g></g></g><g><g><g><path d="m210.9 221.9s2.4 30.7-8.7 40.8c0 0 9.8 0 18-12.6s4.4-21.1 4.4-21.1 7.2 17.3.9 26.6c0 0 8 0 15.5-16.8 7.6-16.8 2.6-31.9 2.6-31.9l-15.6-6.8-7.8 4.9-2.2 10.1-9-5.9z" fill="#c6a99d"/></g></g></g><g><g><g><path d="m203.7 231.4s-3.9 32.6-22.7 42.1l3.1-15.4s-10.1 17.3-21.8 23.3c0 0 17.6-41.5 11.6-46.4l8-3.6 2.6 1.2 9.4-12.6z" fill="#c6a99d"/></g></g></g><g><g><g><path d="m256.1 201.4s37.3 21.3 12.3 66.2c0 0 27.7-24.7 20.4-50.5 0 0 14.7 5.2 15.7 18 0 0 16.6-17.5-1.7-34.9s-19-11.5-19-11.5 18.5-2.5 27.6 4.5c0 0-4.2-18.4-24.4-22-20.2-3.5-22.5-3.5-22.5-3.5s4 28.2-8.4 33.7z" fill="#c6a99d"/></g></g></g><g><g><g><path d="m404.2 209.2s10.5-28.2-1.6-40.5l-1.9 7.1s-27.2-29-50.4-25.1l9.4 23.4c.1 0 34.6 8.4 44.5 35.1z" fill="#c6a99d"/></g></g></g><g><g><g><path d="m116.2 103.6s23.8.6 29.5 14.6c0 0 19.8-26.9 38.9-24.6l-34.2 2.4z" fill="#c6a99d"/></g></g></g><g><g><g><path d="m149.5 165.7s-20.4 1.7-16.8 10.1 15.6 11.1 15.6 11.1 13.2-9.8 11.1-13.7c-1.9-4-9.9-7.5-9.9-7.5z" fill="#5b4d60"/></g></g></g><g><g><g><path d="m143.2 166.7s-3.9 1.3-2.6 7.4 5.4 10.3 5.4 10.3-12.9-9.5-13.3-11.8 10.5-5.9 10.5-5.9z" fill="#fff"/></g></g></g><g><g><g><g><path d="m239.4 220.2c-1.7 0-3.1-.4-4.2-.9-12.7-5.6-22.8-30.9-21.9-46.8.1-1.7 1.5-3.1 3.3-3 1.7.1 3.1 1.6 3 3.3-.8 13.3 8.2 36.3 18.1 40.7 2.6 1.1 6.2-1 8.1-2.3 9.6-6.7 18.3-22.1 17.8-28.6-1.3-17.6-4.1-19.9-10.9-25.4-5.9-4.8-14.7-12.1-26.9-32.5-26.7-44.8-78.9-24.3-79.4-24.1-.2.1-.4.1-.6.2-.3.1-8.7 1.5-22.2 3-7.2.8-23.5 17.1-27 29-3.9 13.3-6.2 44.7 3.2 59.7.9 1.5.5 3.4-1 4.3s-3.4.5-4.3-1c-11.1-17.7-8.1-51-3.9-64.9 4-13.6 22.2-32.4 32.4-33.5 11.9-1.3 19.9-2.6 21.5-2.9 4.8-1.8 58.6-20.6 86.8 26.8 11.6 19.5 19.6 26.1 25.5 30.9 8 6.6 11.7 10.4 13.1 29.8.7 9.3-9.6 26.6-20.4 34.2-4.1 3.1-7.5 4-10.1 4z" fill="#3f0f33"/></g></g></g><g><g><g><path d="m91.5 225c-7.8 0-13.6-2.3-17.4-6.8-8.9-10.7-3.9-30.8.1-47 1.8-7.4 3.6-14.4 3.1-17.5-2.9-19.3 16.4-29.8 17.2-30.2 1.5-.8 3.4-.2 4.2 1.3s.2 3.4-1.3 4.2c-.7.4-16.2 8.9-14 23.7.7 4.4-1 11.3-3.2 20-3.5 14-8.2 33.2-1.3 41.5 2.9 3.5 7.7 4.9 14.8 4.5 1.7-.1 3.2 1.2 3.3 2.9s-1.2 3.2-2.9 3.3c-.9.1-1.7.1-2.6.1z" fill="#3f0f33"/></g></g></g><g><g><g><path d="m101.6 235.7c-1.1 0-2.1-.6-2.7-1.5-8.5-14.3-10.3-27.4-5.6-39 9.1-22.1 39.1-30.2 40.4-30.5 1.7-.4 3.4.6 3.8 2.2.4 1.7-.6 3.4-2.2 3.8-.3.1-28.3 7.6-36.2 26.8-3.3 8-2.7 17 1.8 26.9 1.6-4.6 3.6-10.3 5.3-13.2.9-1.5 2.8-2 4.3-1.1s2 2.8 1.1 4.3c-2.2 3.8-5.8 15-7 19-.4 1.2-1.4 2.1-2.6 2.2-.2.1-.3.1-.4.1z" fill="#3f0f33"/></g></g></g><g><g><g><path d="m145.5 189.4c-1.7 0-3.7-.9-6-2.6-3.4-2.5-10.2-9.4-9.8-14.6.1-1.7 1-3.4 2.4-5.2 4.9-5.8 15.5-6.2 22.4-3.1 4 1.8 6.1 3.4 7.1 7.8 2 8.7-10 15.6-14.4 17.3-.5.3-1.1.4-1.7.4zm-.5-21.1c-3.3 0-6.6.9-8.2 2.8-.9 1-1 1.6-1 1.6 0 2.3 6.6 9.6 9.4 10.3 3.7-1.6 11-6.5 10.2-10-.4-1.7-.5-2.1-3.5-3.5-1.9-.7-4.4-1.2-6.9-1.2z" fill="#3f0f33"/></g></g></g><g><g><g><path d="m122.4 237.2c-.2 0-.4 0-.6-.1-.4-.1-9.6-2.1-14-11.1-3.8-7.9-2.6-18.3 3.6-31 .8-1.6 2.6-2.2 4.2-1.4s2.2 2.6 1.4 4.2c-5.2 10.7-6.5 19.4-3.6 25.4 1.3 2.8 3.3 4.6 5.2 5.8-1.1-23.6 21.6-42 22.7-42.8 1.4-1.1 3.3-.9 4.4.5s.9 3.3-.5 4.4c-.2.2-24.5 19.8-19.7 42.3.2 1-.1 2.1-.8 2.9-.7.6-1.5.9-2.3.9z" fill="#3f0f33"/></g></g></g><g><g><g><path d="m205.7 237.2c-.9 0-1.8-.4-2.5-1.2l-13.5-17.2c-1.1-1.4-.8-3.3.5-4.4 1.4-1.1 3.3-.8 4.4.5l11.3 14.4c5.4-7.7-2.9-19.6-3.3-20.1-.8-1.1-.8-2.7.1-3.8s2.4-1.5 3.7-.9c3 1.2 5.8 2.9 8.3 4.4-12.8-33.4-56.2-37-56.7-37.1-1.7-.1-3-1.6-2.9-3.4.1-1.7 1.7-3 3.4-2.9.6 0 55.9 4.6 64.8 50.7.3 1.3-.4 2.7-1.5 3.3-1.2.7-2.6.5-3.6-.4 0 0-2.3-2-5.6-4.2 2.4 7.2 2.5 15.7-4.9 21.5-.6.6-1.3.8-2 .8z" fill="#3f0f33"/></g></g></g><g><g><g><path d="m182.5 237.2c-.5 0-.9-.1-1.4-.3-.9-.4-1.6-1.3-1.8-2.4-1.8-11.5-23.8-36.8-32.1-45.6-1.2-1.3-1.1-3.2.1-4.4 1.3-1.2 3.2-1.1 4.4.1s25.7 27.2 32.3 43.8c1.4-1.7 3-4.2 3.5-7.5 1.2-7.1-2.6-16-10.8-25.6-1.1-1.3-1-3.3.3-4.4s3.3-1 4.4.3c9.7 11.3 13.8 21.6 12.2 30.8-1.7 9.9-9.4 14.5-9.7 14.7-.3.4-.8.5-1.4.5z" fill="#3f0f33"/></g></g></g><g><g><g><path d="m155.5 238.2c-6.2 0-12.3-.4-17.2-1-15.7-1.9-19.2-12.8-19.4-13.2-.5-1.7.4-3.4 2.1-3.9 1.6-.5 3.4.4 3.9 2 .1.4 2.7 7.5 14.2 8.9 14.4 1.8 34.8 1.1 41-2.7 1.5-.9 3.4-.4 4.3 1.1s.4 3.4-1.1 4.3c-5.4 3.3-16.8 4.5-27.8 4.5z" fill="#3f0f33"/></g></g></g><g><g><g><circle cx="119.4" cy="159" fill="#3f0f33" r="10.7"/></g></g></g><g><g><g><circle cx="177.9" cy="159" fill="#3f0f33" r="10.7"/></g></g></g><g><g><g><path d="m228.7 148.7c-1.4 0-2.7-1-3.1-2.5-1-4.4-9.6-13.1-14.9-17.6-1-.8-1.3-2.1-1-3.3.4-1.2 1.5-2.1 2.7-2.2 12.2-1 25.6 10.7 26.2 11.2 1.3 1.1 1.4 3.1.3 4.4s-3.1 1.4-4.4.3c-.1-.1-5.4-4.7-11.7-7.5 4 4.2 8 9.3 8.9 13.4.4 1.7-.7 3.4-2.4 3.7-.2.1-.4.1-.6.1z" fill="#3f0f33"/></g></g></g><g><g><g><path d="m216.8 207.8c-1.4 0-2.7-1-3.1-2.5-.4-1.7.7-3.4 2.4-3.7 1.1-.3 3.3-1.2 3.7-2.3.5-1.7 2.3-2.6 3.9-2.1 1.7.5 2.6 2.3 2.1 3.9-1.5 5-7.6 6.5-8.3 6.6-.2 0-.4.1-.7.1z" fill="#3f0f33"/></g></g></g><g><g><g><path d="m191 340.3c-.1 0-.1 0-.2 0-44.8-2.7-60.5-34.8-65.7-51.2l-2.8 6.5c-.4 1-1.4 1.8-2.5 1.9s-2.2-.4-2.9-1.3c-.3-.4-6.4-9.1-7.3-29.5-.9-20.2 5.8-34.7 6-35.3.7-1.6 2.6-2.3 4.2-1.5 1.6.7 2.3 2.6 1.5 4.2-.1.1-6.3 13.8-5.5 32.4.4 9.4 2 16 3.4 20.3l3.7-8.6c.6-1.3 1.9-2.1 3.3-1.9s2.5 1.3 2.7 2.7c.3 2.1 7.3 51.9 62.1 55.2 1.7.1 3.1 1.6 2.9 3.3.1 1.5-1.3 2.8-2.9 2.8z" fill="#3f0f33"/></g></g></g><g><g><g><path d="m218.2 329c-31.7 0-46.1-16.8-46.7-17.6-1.1-1.3-.9-3.3.4-4.4s3.3-.9 4.4.4c.7.8 17 19.4 53.9 14.5 1.7-.2 3.3 1 3.5 2.7s-1 3.3-2.7 3.5c-4.5.6-8.8.9-12.8.9z" fill="#3f0f33"/></g></g></g><g><g><g><path d="m374.7 391.8c-2.8 0-5.3-.1-7.6-.2-9.2-.7-14.3-2.6-16-6.2-5.3-11.2-.9-32.6 11.1-39.9 1.5-.9 3.4-.4 4.3 1 .9 1.5.4 3.4-1 4.3-8.9 5.4-12.7 23.4-8.6 31.9s.8 1.2 5.9 2c18.1 3 57.4-2.7 62.3-6.1 1.1-3-1.8-17-3.6-25.5-1.6-7.8-3.2-15.2-3.4-20-.2-4.7.5-9.6 1.5-15.4 1.4-9.2 3.2-20.6 1.5-35.4-2.8-23.2-7.8-45.9-23.5-81.1-15.7-35.3-98.1-29.3-107.5-28.5-19.2 1.6-24.4-1.4-25.8-3.4-1-1.4-.6-3.4.8-4.4 1.3-.9 3-.7 4.1.4.5.3 4.7 2.5 20.4 1.1 16-1.4 96.6-6.2 113.8 32.2 16 35.9 21.2 59.1 24 82.9 1.9 15.7 0 27.5-1.5 37.1-.9 5.4-1.6 10.1-1.4 14.1.2 4.2 1.7 11.4 3.3 19 3.7 17.7 5.1 26.5 2.6 30.4-3.8 5.6-35.6 9.7-55.7 9.7zm-105.4-225.9s.1 0 0 0z" fill="#3f0f33"/></g></g></g><g><g><g><path d="m355.3 361.9c-1.4 0-2.7-.9-3-2.3-.1-.2-5.3-19.3-17.9-26.6-4.9-2.9-7.5-4.4-8.7-5.1-.1 0-.2-.1-.3-.2s-.3-.2-.4-.2c-.2-.1-.3-.2-.3-.2-2.2-1.6-1.9-3.2-1.2-4.3 1.1-2 2.7-1.8 4.3-1l.7.4c.4.2.7.4 1.1.6l8 4.7c14.8 8.7 20.5 29.6 20.8 30.4.4 1.7-.6 3.4-2.2 3.8-.3-.1-.6 0-.9 0z" fill="#3f0f33"/></g></g></g><g><g><g><path d="m284.5 337c-1.6 0-3.2 0-4.9-.1s-3.1-1.5-3-3.3c.1-1.7 1.6-3.1 3.3-3 59.5 2.2 72.4-38 72.5-38.4.5-1.7 2.2-2.6 3.9-2.1s2.6 2.3 2.1 3.9c-.2.5-13.8 43-73.9 43z" fill="#3f0f33"/></g></g></g><g><g><g><path d="m238.1 397.6c-14.1 0-30.6-.8-32.6-3.6-1.9-2.6-.7-5.8.9-10 1.2-3 2.6-6.8 3.2-10.9 1.2-8.9 0-46.9 0-47.3-.1-1.7 1.3-3.2 3-3.2s3.2 1.3 3.2 3c.1 1.6 1.3 38.9 0 48.3-.7 4.9-2.3 9-3.6 12.3-.4 1.1-1 2.5-1.3 3.5 10.6 2.3 57.2 2.4 60.9-2.7 4.2-7.9 8.2-47-.2-72.8-.5-1.6.4-3.4 2-4 1.6-.5 3.4.4 4 2 8.9 27.2 5.1 67.8-.2 77.7-1.4 2.6-5.1 5.7-21.9 7-3.6.5-10.2.7-17.4.7zm-28.5-8.1" fill="#3f0f33"/></g></g></g><g><g><g><path d="m170.5 395.7c-14.1 0-26.5-1.7-27.9-6-1-3.1.2-5.8 1.5-8.8 1.4-3.2 3-6.9 2.2-11.9-1.6-10.4-2.7-48-2.7-49.6 0-1.7 1.3-3.2 3.1-3.2 1.7-.1 3.2 1.3 3.2 3.1 0 .4 1.1 38.8 2.7 48.8 1.1 6.8-1.1 11.8-2.7 15.4-.6 1.4-1.3 2.9-1.3 3.8 5.5 2.5 37.8 4.1 58.2-1.5 1.7-.5 3.4.5 3.9 2.2s-.5 3.4-2.2 3.9c-8.6 2.2-24.1 3.8-38 3.8z" fill="#3f0f33"/></g></g></g><g><g><g><path d="m302.7 364.6c-.9 0-1.8-.4-2.4-1.2-9.1-11.1-11.5-28.7-11.6-29.4-.2-1.7 1-3.3 2.7-3.5s3.3 1 3.5 2.7c0 .2 2.3 16.6 10.3 26.3 1.1 1.3.9 3.3-.4 4.4-.7.5-1.4.7-2.1.7z" fill="#3f0f33"/></g></g></g><g><g><g><path d="m306.6 391c-9.6 0-17.1-.4-19.2-1.5s-4.3-4.1-3.1-11.5c1.4-8.3 7.2-20.8 15.9-22.3 1.7-.3 3.3.8 3.6 2.5s-.8 3.3-2.5 3.6c-3.1.5-6.6 4.7-9 10.7-2.4 6.1-2.3 10.4-1.8 11.4 4.6 1.4 35.5.7 63.4-.9 1.8-.1 3.2 1.2 3.3 3 .1 1.7-1.2 3.2-3 3.3-11.3.6-32.1 1.7-47.6 1.7z" fill="#3f0f33"/></g></g></g><g><g><g><path d="m407.4 220c-.5 0-.9-.1-1.4-.3-1.6-.8-2.2-2.6-1.5-4.2.1-.3 11.6-24.7 3.8-47.1-1.2 3.8-3.1 7.7-5.7 9.8-.9.7-2.1.9-3.2.4s-1.8-1.5-1.9-2.6-2.6-26.1-24-31.1c-16.4-3.9-28.7-.4-34.2 1.9 1.6 2.5 3.3 6 3.4 9.2 0 1.7-1.3 3.2-3.1 3.2 0 0 0 0-.1 0-1.7 0-3.1-1.4-3.1-3.1-.1-2.5-2.7-6.6-4.3-8.6-.6-.7-.8-1.6-.7-2.5.2-.9.7-1.7 1.5-2.2.7-.4 17.1-9.9 42-4 17.4 4.1 24.4 18.8 27.1 28.3 1-2.8 1.7-6.1 2.1-8.6.2-1.3 1.2-2.3 2.5-2.6s2.6.3 3.3 1.5c16.1 27.1.8 59.5.1 60.9-.3 1.1-1.5 1.7-2.6 1.7z" fill="#3f0f33"/></g></g></g><g><g><g><path d="m304.4 170.8c-.9 0-1.7-.3-2.3-1-1.2-1.3-1.1-3.3.2-4.4 10.7-9.7 21.2-14.3 31.3-13.6 12 .8 18.8 8.8 19.1 9.2 1.1 1.3.9 3.3-.4 4.4s-3.3.9-4.4-.4c-.1-.1-5.6-6.4-14.9-6.9-8.4-.5-17.3 3.5-26.6 12-.5.4-1.2.7-2 .7z" fill="#3f0f33"/></g></g></g><g><g><g><path d="m222.8 177.9c-.6 0-1.3-.2-1.8-.6l-10.1-7.1c-1.4-1-1.8-3-.8-4.4s3-1.8 4.4-.8l10.1 7.1c1.4 1 1.8 3 .8 4.4-.6.9-1.6 1.4-2.6 1.4z" fill="#3f0f33"/></g></g></g><g><g><g><path d="m342.2 316.6c-.1 0-.2 0-.3 0-1.7 0-3.1-1.4-3.1-3.2 0-1.7 1.4-3.1 3.1-3.1h.3c28.5 0 42.7-37.5 42.8-37.9.6-1.6 2.4-2.5 4-1.9s2.5 2.4 1.9 4c-.7 1.8-15.9 42.1-48.7 42.1z" fill="#3f0f33"/></g></g></g><g><g><g><path d="m277.2 236.7c-.1 0-.2 0-.3 0-1.7-.2-3-1.7-2.8-3.4 2.1-21.8-14.6-25.4-15.3-25.5-1.7-.3-2.8-2-2.5-3.7s2-2.8 3.7-2.5c.2 0 23 4.7 20.4 32.3-.3 1.5-1.6 2.8-3.2 2.8z" fill="#3f0f33"/></g></g></g></g></g></svg>