<svg id="Layer_1" enable-background="new 0 0 512 512" height="512" viewBox="0 0 512 512" width="512" xmlns="http://www.w3.org/2000/svg"><g><g><g><g><g><path d="m435.7 346.1c0-.8 0-1.7 0-2.5z" fill="#fff"/></g></g></g><g><g><g><path d="m478.6 280.3c-8.7-34.4-48.9-31.9-66.3-26.9-13.4 3.8-24.9 4.2-29.5 4.2h-2.1c-1.6-11.8-5.4-23.5-12.4-34-30.4-45.2-100.8-34.8-116.4-50.2l4.5 6.8-4.9-3.1c1.8-8.5-3.3-27.6-2.2-37.9s-2.2-9.9-9.9-33.2c-7.7-23.2-23.2-23.2-36.5-38.3s-46.1-13.4-46.1-13.4-32.8-1.7-46.1 13.4-28.6 15.1-36.4 38.3-11.1 22.8-9.9 33.2c1.1 10.3-4.1 29.4-2.2 37.9 1.8 8.5-4.1 15.1 1.8 31 3.4 9.2 11.2 17.3 18.3 22.1 5.2 3.4 10 5.1 12.6 4 6.3-2.5 9.6-10.3 15.8-13.6l2.6 15.3c.1 8.2.9 18.7 3.1 29.6v-.1s-4.1 34.7 8.8 65.1c.9 2.1 1.7 4.1 2.5 6.1 2.1 7.5 4.7 14.8 7.8 21 5.2 15.9 7.6 28.5 9 42.4 2.1 20.8 0 31-2.4 35.8s-6.1 10.5-5.3 15.9 38.7 1.5 38.7 1.5l-2.6-8.2 1.5-4.8.9.5.2-3.7 1.1-3.5-.9-2.3.3-6.4c.3 5.2.6 8.6.6 8.6l1.8-62.3c11.2 10 20.5 16.2 20.5 16.2-4.3 17.2-9.5 32.2-13.3 35.4-8.7 7.2-12.8 22.1-10.1 27 2.7 5 45.8 3.7 50.6 0s.8-18.8 0-24.6c-.5-3.7 10.1-34.8 18.7-59.5 0 0 6.9 1.7 17.3-.7l-6.3.3c2-.1 4.2-.2 6.3-.3 1.6-.1 2.7.5 3.4 1.4h-.1s.7 1.9 2 4.6c1 3.6 2.2 8 7.3 10.1 3 2.9 6.9 5.4 11.6 6.4 14.9 3.1 19.2 32.9 15.2 38.2s-12.2 8.7-13.7 19.7c0 0 21.5 3.5 30.2 0 7.8-3.1 18.9-46.3 19.6-62.1l4.2-2.3c4.4 2 7.6 3.9 8.6 6.4 4.3 10.3 7.4 35.7 3.1 40.7s-12.4 9.3-12.4 20.4c0 0 37.8 6.8 40.9 0s2.5-62.7-3.1-66.7-14.2-27.3-12.4-37c1-5.1 9.8-25.8 13.6-50.9.1 1 .8 2.3 3 3.7 1.5 1.1 3.8 2.1 7.4 2.7h.2c2.2.5 4.8 1 8 1.3.9.1 1.7.2 2.6.4 13.9 2.8 33 10.6 34.4 41v.6c0-.1 0-.2 0-.2.1 1.2.1 2.5.1 3.7 0-.3 0-.6 0-1v1.6c-2.9 9-6 15.4-6 15.4s64.2-37.7 35.2-92c8.4 4.4 13.6 9.3 13.6 9.3zm-279.8 107.1-2.5-2.6 2.6 2c0 .2 0 .4-.1.6zm47.1-21.8c.4 0 1 0 1.6-.1z" fill="#fff"/></g></g></g></g><g><g><g><path d="m155.5 101.7s-15.3 2.2-14.3 7.5 14.3 12.2 14.3 12.2 14.8-5.5 12.8-11.8-12.8-7.9-12.8-7.9z" fill="#5b4d60"/></g></g></g><g><g><g><path d="m374.2 234.1s-5.6 45.5-22.5 71.7c-17 26.2 21.9 65.4 21.9 65.4s-12.9-12.5-7-26.4c5.9-13.8 16.6-47.2 16.6-47.2s57 3.5 52.6 46c0 0 21.7-40.6-11.1-51.2s-43.7-19.2-43.7-19.2-1-28.6-6.8-39.1z" fill="#e08c5c"/></g></g></g><g><g><g><path d="m118.5 214.3s6.3 61.1 23.5 66c0 0-12.4-23.7-5.3-46.2 0 0 25.7 56.5 59.6 65.3 0 0 3.1 16.9 5.5 20.9 6.7 11.3-.8 63.4-5.5 64.5-4.6 1.1-18-13.6-18-13.6l-2.4 53.7s-21.6-53.3-27.6-58.6c-6-5.4-12.9-8.7-12.9-8.7s-20.2-39-19.7-52 .6-40.1.6-40.1l-3.1-51.1h5.3z" fill="#d1c5c1"/></g></g></g><g><g><g><path d="m125.2 156.7s.5 20.5 11.5 23.4c11.1 2.9 32 0 32 0s-13.2 10.9-22.2 12.6c0 0 12.3 7.4 26.6 0 0 0 21.7-16.2 24.5-22s-2.5-23.4-2.5-23.4l-18.4 9.4s-9.3-24.7-18.8-25.8c-9.6-1.1-18.7 13.9-18.7 13.9s-6.3 16.5-14 11.9z" fill="#d1c5c1"/></g></g></g><g><g><g><path d="m144.7 54.7s-14.6 18.3-8 25.1 21.3 15.7 14.6 21.6-33.4 1.4-32.8 45.9c0 0-6.6 25.8 1.3 35.5 8 9.7 12.7 20.3-6.1 35.8 0 0-11.7 19.1-20.7 15.9s-23.6-8-27.7-23.2c-4-15.2-3.6-30.8-2.9-31.5s-.2-13.6-.5-19 4-19.9 4-19.9-3.3-5.1-.9-10.9c2.3-5.8 18.5-41.5 18.5-41.5s17.4-10.9 22.3-15.8 13.3-11.5 15.9-12.6c2.7-1.2 23-5.4 23-5.4z" fill="#e08c5c"/></g></g></g><g><g><g><path d="m337.5 197.9c-29.1-9.7-66.1-16.7-66.1-16.7l-20.4-9.9c.2-3.8.4-7.9.5-10.4.2-5.4-4-19.9-4-19.9s3.3-5.1.9-10.9c-2.3-5.8-18.5-41.5-18.5-41.5s-17.4-10.9-22.3-15.8-13.3-11.5-15.9-12.6-22.9-5.3-22.9-5.3 14.6 18.3 8 25.1c-6.6 6.7-21.3 15.7-14.6 21.6s33.4 1.4 32.8 45.9c0 0 6.6 25.8-1.3 35.5-8 9.7-12.7 20.3 6.1 35.8 0 0 11.7 19.1 20.7 15.9 4.9-1.8 11.6-4 17.3-8.3 6.3 10.4 18.3 33.3 16.4 54.1-2.6 28 17.1 35 38.8 9.1 21.7-26 16.9-30.7 37.5-35 20.8-4.6 36.2-47 7-56.7z" fill="#e08c5c"/></g></g></g><g><g><g><path d="m256.6 319.6s15.8 4.7 27.2-2.5c0 0 .4 33.6 11.8 39.4s21.3 13.2 27.2 16.8c5.9 3.7 29 4.9 34.1 14s12.8 28.8 8.4 37.5-19.9 11.3-19.9 11.3 8.5-7.2 9.4-11.3-4.2-41.2-13.4-41.9-8.2 60.1-23.6 62.3c-15.3 2.3-30.2 0-30.2 0s1.6-12 8.6-16.4 5.9-8.8 6.2-12.5c.4-3.7-1.5-24.2-13.6-27.2-12.1-2.9-23.6-26.1-23.6-26.1l-20.6 2.5c.1.1 13.5-31 12-45.9z" fill="#d1c5c1"/></g></g></g><g><g><g><path d="m104.3 98.6s4.9 39.3 9.1 46.1 4.2 6.8 4.2 6.8-3.4 14.4-1.3 21.7 11.4 17.2 8.9 25.7c-2.6 8.5-16.1 22.6-16.1 22.6s11-17.2-1.5-36-15-41.6-13.2-55.8l7.2 13.1z" fill="#bf6749"/></g></g></g><g><g><g><path d="m87.5 133.8s-7.5 21.8-3.9 34.8 10.7 31.1 10.2 41.6c-.5 10.6-10.2 18.3-10.2 18.3s4.6-28.6.6-32.7c-3.9-4.1-4.8-20.1-4.8-20.1s-7.4 5.7-5.7 20.1-2.7 24.3-2.7 24.3 9.1 20.2 22 14.3 16.6-16.1 16.6-16.1-2.7-21.1-11.3-37.4-13.5-38.9-10.8-47.1z" fill="#bf6749"/></g></g></g><g><g><g><path d="m107.5 84.7s-13.2 8.8-12.2 20.6 7.1 25.5 7.1 25.5z" fill="#bf6749"/></g></g></g><g><g><g><path d="m206.8 98.6s-4.9 39.3-9.1 46.1-4.2 6.8-4.2 6.8 3.4 14.4 1.3 21.7-11.4 17.2-8.9 25.7c2.6 8.5 16.1 22.6 16.1 22.6s-11-17.2 1.5-36 15-41.6 13.2-55.8l-7.2 13.1z" fill="#bf6749"/></g></g></g><g><g><g><path d="m223.6 133.8s7.5 21.8 3.9 34.8-10.7 31.1-10.2 41.6c.5 10.6 10.2 18.3 10.2 18.3s-4.6-28.6-.6-32.7c3.9-4.1 4.8-20.1 4.8-20.1s7.4 5.7 5.7 20.1 2.7 24.3 2.7 24.3-9.1 20.2-22 14.3-16.6-16.1-16.6-16.1 2.7-21.1 11.3-37.4 13.4-38.9 10.8-47.1z" fill="#bf6749"/></g></g></g><g><g><g><path d="m218.9 105.3c1-11.8-12.2-20.6-12.2-20.6l5.2 46.1z" fill="#bf6749"/></g></g></g><g><g><g><path d="m432.1 357.6s37.1-72.1 3.6-90.3c0 0 18.8-3.7 30.3 5.8 11.4 9.6 12.1 73.5-33.9 84.5z" fill="#d1c5c1"/></g></g></g><g><g><g><path d="m435.6 334.6s-3.1-35-27.8-42.3-24.7-7.3-24.7-7.3l-.1 12.5s9.7 4.4 21.7 5c12 .7 31.3 28.4 30.9 32.1z" fill="#bf6749"/></g></g></g><g><g><g><path d="m265.3 181.1s16.4 27.5 7.1 42.4-20.4 34.3-20.4 34.3-8.4-20.3-14-31.6c0 0 12.3-9.7 13.2-22.6s.4-26.5.4-26.5z" fill="#bf6749"/></g></g></g><g><g><g><path d="m149.7 103.7s11.3 2.5 12.1 6.6c.8 4-6 9.8-6 9.8s12.5-4.8 12.6-10.4c0-5.6-12.9-8-18.7-6z" fill="#fff"/></g></g></g><g><g><g><g><path d="m93.1 237.6c-2 0-4.3-.6-6.8-1.7-9-4-20.6-14.5-25.2-26.8-3.9-10.6-3-17.5-2.2-23 .4-3.2.8-5.7.2-8.4-1.1-5-.1-12.4.9-20.3.9-6.6 1.7-13.4 1.2-17.9-.8-7.1.5-10 3.2-16.4 1.7-3.9 3.9-9.2 6.9-18.1 5.3-15.6 14.1-21.6 22.7-27.4 4.8-3.3 9.8-6.7 14.5-11.9 14.1-16.1 47.2-14.5 48.6-14.4 1.7.1 3.1 1.6 3 3.3s-1.5 3.1-3.3 3c-.3 0-31.4-1.5-43.5 12.3-5.2 5.9-10.5 9.5-15.7 13-8.4 5.7-15.6 10.6-20.2 24.2-3 9.1-5.4 14.6-7.1 18.6-2.6 6.1-3.3 7.8-2.7 13.3.6 5.3-.4 12.5-1.3 19.4-.9 7-1.9 14.3-1 18.2.8 3.8.4 7.1-.1 10.6-.7 5.1-1.5 10.9 1.9 20 3.9 10.6 14.2 19.8 21.8 23.2 2.9 1.3 4.5 1.3 5 1.1 2.6-1.1 4.8-3.5 7.1-6.1 2.4-2.7 5-5.5 8.4-7.4 5.5-2.9 15-14.3 13.1-23.3-.6-3-3.3-7.1-6.5-12-7.2-11-17-26-16.8-47.5.4-34.7 2.2-46.3 7.7-51.6 1.3-1.2 3.2-1.1 4.4.1 1.2 1.3 1.1 3.2-.1 4.4-4.4 4.2-5.5 20.5-5.8 47.1-.2 19.6 9 33.6 15.7 43.9 3.7 5.6 6.5 10 7.4 14.1 2.6 12.7-9.3 26.4-16.3 30.1-2.5 1.3-4.5 3.6-6.7 6-2.7 3-5.5 6.1-9.4 7.7-.9.5-1.9.6-3 .6z" fill="#3f0f33"/></g></g></g><g><g><g><path d="m109.1 224.8c-.2 0-.5 0-.7-.1-1.7-.4-2.7-2.1-2.3-3.8 1.8-7.6-7.1-32.5-16.8-53.2-8.2-17.6-3.6-37.7-3.4-38.5.4-1.7 2.1-2.7 3.8-2.3s2.7 2.1 2.3 3.8c0 .2-4.4 18.8 2.9 34.4 3.4 7.3 20.3 44.3 17.2 57.3-.3 1.4-1.6 2.4-3 2.4z" fill="#3f0f33"/></g></g></g><g><g><g><path d="m82.3 233.3c-.8 0-1.7-.3-2.3-1-1.2-1.2-1.1-3.2.1-4.4.3-.3 5.4-5.6 4.2-18.1-.6-6.4-2.7-11.8-4.5-16.6-2.2-5.6-4.2-10.9-3.4-16.6.3-1.7 1.9-2.9 3.6-2.6s2.9 1.8 2.6 3.6c-.6 4.1 1 8.2 3 13.4 2 5.1 4.2 11 4.9 18.3 1.5 15.7-5.8 22.9-6.1 23.2-.5.5-1.3.8-2.1.8z" fill="#3f0f33"/></g></g></g><g><g><g><path d="m220.6 237.6c-1.1 0-2.1-.2-3-.6-4-1.6-6.7-4.7-9.4-7.7-2.2-2.4-4.2-4.7-6.7-6-7.1-3.7-18.9-17.4-16.3-30.1.8-4.2 3.7-8.6 7.4-14.1 6.7-10.3 16-24.4 15.7-43.9-.3-26.7-1.4-42.9-5.8-47.1-1.3-1.2-1.3-3.2-.1-4.4 1.2-1.3 3.2-1.3 4.4-.1 5.6 5.3 7.3 16.9 7.7 51.6.3 21.5-9.6 36.5-16.8 47.5-3.2 4.8-5.9 9-6.5 12-1.8 9 7.6 20.4 13.1 23.3 3.5 1.8 6 4.7 8.4 7.4 2.3 2.6 4.5 5 7.1 6.1.5.2 2.1.2 5-1.1 7.6-3.4 17.9-12.7 21.8-23.2 3.4-9.1 2.6-14.9 1.9-20-.5-3.5-1-6.8-.1-10.6.9-3.9-.1-11.2-1-18.2-.9-6.9-1.8-14.1-1.3-19.4.6-5.5-.1-7.2-2.7-13.3-1.7-4-4.1-9.5-7.1-18.6-4.6-13.6-11.8-18.6-20.2-24.2-5.2-3.5-10.5-7.1-15.7-13-12-13.9-43.1-12.4-43.4-12.4-1.7.1-3.2-1.2-3.3-3s1.2-3.2 3-3.3c1.4-.1 34.5-1.6 48.6 14.4 4.6 5.3 9.6 8.7 14.5 11.9 8.6 5.8 17.4 11.8 22.6 27.5 2.9 8.8 5.2 14.2 6.9 18.1 2.7 6.4 4 9.3 3.2 16.4-.5 4.5.4 11.3 1.2 17.9 1 7.9 2 15.4.9 20.3-.6 2.7-.2 5.2.2 8.4.8 5.5 1.8 12.5-2.2 23-4.6 12.3-16.1 22.8-25.2 26.8-2.5 1.2-4.8 1.7-6.8 1.7z" fill="#3f0f33"/></g></g></g><g><g><g><path d="m204.6 224.8c-1.4 0-2.7-1-3.1-2.4-3.1-13 13.8-50.1 17.2-57.3 7.3-15.6 3-34.2 2.9-34.4-.4-1.7.6-3.4 2.3-3.8s3.4.6 3.8 2.3c.2.8 4.9 20.9-3.4 38.5-9.7 20.7-18.6 45.6-16.8 53.2.4 1.7-.6 3.4-2.3 3.8-.1.1-.4.1-.6.1z" fill="#3f0f33"/></g></g></g><g><g><g><path d="m231.3 233.3c-.8 0-1.5-.3-2.1-.9-.3-.3-7.7-7.5-6.2-23.2.7-7.3 2.9-13.1 4.9-18.3s3.6-9.4 3-13.4c-.3-1.7.9-3.3 2.6-3.6 1.7-.2 3.3.9 3.6 2.6.8 5.7-1.2 11-3.4 16.6-1.8 4.8-3.9 10.2-4.5 16.6-1.2 12.5 4 17.8 4.3 18.1 1.2 1.2 1.2 3.2 0 4.4-.5.8-1.4 1.1-2.2 1.1z" fill="#3f0f33"/></g></g></g><g><g><g><path d="m154.9 124.6c-2.7 0-5.3-1-7.5-2.9l-8.9-8c-.7-.6-1-1.4-1-2.3 0-7.4 7.6-13.2 17.4-13.2 9.3 0 16.9 6.2 16.9 13.8 0 .9-.4 1.8-1.1 2.3l-8.4 7.4c-2.1 2-4.7 2.9-7.4 2.9zm-10.9-14.4 7.6 6.9c2 1.8 4.7 1.8 6.7 0l7.2-6.4c-.9-3.5-5.3-6.2-10.5-6.2-5.5 0-10.1 2.5-11 5.7z" fill="#3f0f33"/></g></g></g><g><g><g><circle cx="125.2" cy="97.1" fill="#3f0f33" r="6.7"/></g></g></g><g><g><g><circle cx="182.1" cy="98.6" fill="#3f0f33" r="6.7"/></g></g></g><g><g><g><path d="m128.4 159.2c-.4 0-.8 0-1.3-.1-6.5-.6-11.6-5.7-11.8-11.7-.1-1.7 1.3-3.2 3-3.3s3.2 1.3 3.3 3c.1 3.2 3.2 5.4 6.2 5.7 3.7.4 6.6-2.1 7.8-6.9 3-12.3 11.8-16.9 16.2-18.4v-6c0-1.7 1.4-3.1 3.1-3.1s3.1 1.4 3.1 3.1v8.4c0 1.5-1.1 2.8-2.6 3.1-.4.1-10.8 2.2-13.8 14.5-2 8.7-8.1 11.7-13.2 11.7z" fill="#3f0f33"/></g></g></g><g><g><g><path d="m181.4 159.2c-5.1 0-11.1-3-13.2-11.7-3-12.4-13.7-14.4-13.8-14.5-1.7-.3-2.8-1.9-2.5-3.6s1.9-2.8 3.6-2.5c.6.1 14.8 2.8 18.8 19.1 1.2 4.7 4 7.2 7.8 6.9 2.9-.3 6-2.5 6.2-5.7.1-1.7 1.6-3.1 3.3-3s3.1 1.5 3 3.3c-.2 6-5.3 11.1-11.8 11.7-.6-.1-1 0-1.4 0z" fill="#3f0f33"/></g></g></g><g><g><g><path d="m149.3 168.1c-9.8 0-16.6-1.8-20.4-5.5-2.8-2.7-2.9-5.5-2.9-6l6.3.2s0-.1 0-.2c.2 1.8 4.6 6.2 22.4 5.1 1.8-.1 3.2 1.2 3.3 2.9s-1.2 3.2-2.9 3.3c-2 .1-4 .2-5.8.2z" fill="#3f0f33"/></g></g></g><g><g><g><path d="m160.5 168.1c-1.8 0-3.8-.1-5.8-.2-1.7-.1-3-1.6-2.9-3.3s1.5-3 3.3-2.9c17.7 1.1 22.2-3.3 22.4-5.1l3.1.1 3.1-.1c0 .5-.1 3.3-2.9 6-3.7 3.7-10.5 5.5-20.3 5.5z" fill="#3f0f33"/></g></g></g><g><g><g><path d="m148.4 323.4c-.6 0-1.2-.2-1.8-.6-43.8-30.5-36-101.8-35.7-104.9.2-1.7 1.8-3 3.5-2.8s3 1.8 2.8 3.5c-.1.7-7.7 70.7 33 99 1.4 1 1.8 2.9.8 4.4-.7.9-1.6 1.4-2.6 1.4z" fill="#3f0f33"/></g></g></g><g><g><g><path d="m204.6 360.8c-.6 0-1.2-.2-1.7-.5-53.6-35.5-57.5-66.2-57.6-67.5-.2-1.7 1.1-3.3 2.8-3.5s3.3 1.1 3.5 2.8c0 .3 4.1 29.4 54.9 63 1.4 1 1.8 2.9.9 4.3-.8.9-1.8 1.4-2.8 1.4z" fill="#3f0f33"/></g></g></g><g><g><g><path d="m197.9 456.1c-7.5 0-14.6-.4-18.6-1.3-3.6-.8-5.7-1.9-6.6-3.6-3.5-6.5 1.2-22.9 10.9-30.9 6.7-5.5 24.2-74.8 18.2-89.2-6.5-15.5-8-56.1-8-57.8-.1-1.7 1.3-3.2 3-3.2h.1c1.7 0 3.1 1.3 3.1 3 0 .4 1.5 41.2 7.5 55.6 6.9 16.5-9.9 88.1-20 96.5-7.6 6.3-11 19.1-9.5 22.8 5 2.9 41.2 2.4 46.1-.7 2.4-1.8.3-13.2-.5-17.5-.3-1.6-.6-3-.7-4.1-.5-4.1 6.4-25.1 21.2-67.8 3.9-11.1 6.9-19.9 7.8-23 3-10.2 1.4-49-2.5-58.6-.6-1.6.1-3.4 1.7-4.1 1.6-.6 3.4.1 4.1 1.7 4.7 11.6 5.8 52.1 2.7 62.7-1 3.2-4 12.1-7.9 23.3-7.3 21.1-21 60.4-20.9 65 .1.9.4 2.2.6 3.7 1.5 8.2 3.6 19.4-1.8 23.7-3.4 2.6-17.4 3.8-30 3.8z" fill="#3f0f33"/></g></g></g><g><g><g><path d="m368.9 454.8c-8.5 0-19-1.5-28.4-3.1-1.5-.3-2.6-1.6-2.6-3.1 0-10 5.8-15.5 10.1-19.4 1.1-1.1 2.2-2.1 3.1-3.1 2.7-3.1 1-26.4-3.6-37.4-1.1-2.6-7.7-5.2-14.8-8-15.1-5.9-35.8-14.1-47.7-35.6-18.8-34 21.5-83 23.3-85.1 1.1-1.3 3.1-1.5 4.4-.4s1.5 3.1.4 4.4c-.4.5-39.3 47.8-22.6 78 10.8 19.5 30.3 27.2 44.5 32.8 9.4 3.7 16.1 6.3 18.2 11.4 3.9 9.2 8.7 37 2.6 44-1.1 1.2-2.3 2.3-3.5 3.5-3.5 3.2-7.1 6.6-7.9 12.3 16.7 2.8 32.6 3.3 34.8 1.1 2.7-6 1.8-57.2-2.3-62.8-6.6-5-15.6-29.1-13.5-40.1.3-1.7 1.2-4.3 2.5-8.3 6.8-20.1 24.7-73.5-.2-110.7-18.7-27.8-53-33.7-80.5-38.5-16.3-2.8-29.2-5-35.5-11.3-1.2-1.2-1.2-3.2 0-4.4s3.2-1.2 4.4 0c4.9 4.9 17.5 7 32.1 9.6 27.2 4.7 64.5 11.2 84.7 41.1 26.7 39.7 8 95.2 1 116.2-1.2 3.5-2.1 6.2-2.3 7.5-1.7 8.8 6.7 30.8 11.1 33.9 7.8 5.5 7.2 63.8 4.1 70.5-1.7 3.7-7.9 5-15.9 5z" fill="#3f0f33"/></g></g></g><g><g><g><path d="m478.6 283.4c-.8 0-1.6-.3-2.2-.9-.2-.2-18.5-17.3-42.6-14.1-1.7.2-3.3-1-3.5-2.7s1-3.3 2.7-3.5c16.4-2.2 30.2 3.7 38.6 8.9-2.8-4.8-6.8-8.7-11.7-11.6-15.2-8.8-36.5-6.2-46.7-3.3-17.7 5-32 4.3-32.6 4.3-1.7-.1-3.1-1.6-3-3.3s1.6-3.1 3.3-3c.1 0 13.9.7 30.5-4 13.8-4 35.6-5.3 51.6 3.9 9.5 5.5 15.8 14 18.6 25.3.3 1.4-.3 2.8-1.5 3.5-.4.4-1 .5-1.5.5z" fill="#3f0f33"/></g></g></g><g><g><g><path d="m429.7 366.2c-.8 0-1.5-.3-2.1-.8-1-.9-1.3-2.4-.7-3.7.2-.3 16.3-33.9 8.7-54.1-2.2-5.9-6.2-9.9-12-12.3-1.6-.7-2.4-2.5-1.7-4.1s2.5-2.4 4.1-1.7c7.5 3.1 12.7 8.4 15.5 15.9 5.9 15.5-.1 36.7-4.7 49.1 16-12.2 46.5-42.4 25.4-81.9-.8-1.5-.2-3.4 1.3-4.2s3.4-.2 4.2 1.3c30.1 56.3-35.7 95.8-36.4 96.2-.5.2-1.1.3-1.6.3z" fill="#3f0f33"/></g></g></g><g><g><g><path d="m435.7 350.8c-1.8 0-3.2-1.5-3.1-3.2.4-26.6-10.5-40.2-34.3-42.8-11.8-1.3-18.6-4-20.7-8.3-1.1-2.2-.7-4.5-.1-5.7.9-1.5 2.8-2 4.3-1.2 1.4.8 1.9 2.5 1.3 3.9.2.4 2.1 3.4 15.9 5 26.9 3 40.3 19.5 39.8 49.2 0 1.8-1.4 3.1-3.1 3.1z" fill="#3f0f33"/></g></g></g><g><g><g><path d="m151.8 457.7c-17.4 0-17.9-3.8-18.2-5.6-.8-5.6 2-10.8 4.4-15.5.4-.8.8-1.5 1.2-2.3 1.7-3.4 4.3-12.4 2.1-34.1-2-19.6-5.8-37.1-19-68.5-13-30.8-9.1-65.2-9-66.7.2-1.7 1.8-3 3.5-2.7 1.7.2 3 1.8 2.7 3.5 0 .3-3.8 34.2 8.5 63.5 13.5 32 17.5 50.6 19.5 70.3 1.8 17.5.9 30.5-2.7 37.5-.4.8-.8 1.6-1.3 2.4-1.9 3.5-4 7.4-3.9 10.8 3.9 1.6 20.9 1.1 35.3-.4 1.7-.2 3.3 1.1 3.4 2.8.2 1.7-1.1 3.3-2.8 3.4-10.1 1.1-17.8 1.6-23.7 1.6z" fill="#3f0f33"/></g></g></g><g><g><g><path d="m198.8 390.5c-.6 0-1.2-.2-1.7-.5-1.6-1-38.4-25.9-54.3-57-.8-1.5-.2-3.4 1.4-4.2 1.5-.8 3.4-.2 4.2 1.4 15.2 29.7 51.8 54.4 52.2 54.7 1.4 1 1.8 2.9.9 4.4-.7.7-1.7 1.2-2.7 1.2z" fill="#3f0f33"/></g></g></g><g><g><g><path d="m176.5 436.6c-1.6 0-3-1.2-3.1-2.9-.2-1.9-3.8-47.5 2-63.6.6-1.6 2.4-2.5 4-1.9s2.5 2.4 1.9 4c-5.4 14.8-1.7 60.5-1.6 61 .1 1.7-1.1 3.2-2.9 3.4-.1 0-.2 0-.3 0z" fill="#3f0f33"/></g></g></g><g><g><g><path d="m251.1 369.4c-4.3 0-7-.6-7.2-.7-1.7-.4-2.7-2.1-2.3-3.8s2.1-2.7 3.8-2.3c.2 0 12.4 2.9 28.3-5.5 15.3-8 28.6-1.1 33.5 3.7 1.2 1.2 1.3 3.2.1 4.4s-3.2 1.3-4.4.1c-.4-.4-11.2-10.5-26.2-2.6-10.5 5.5-19.6 6.7-25.6 6.7z" fill="#3f0f33"/></g></g></g><g><g><g><path d="m306 450c-8.6 0-17.3-1.4-18.8-1.6-1.7-.3-2.8-1.8-2.6-3.5 1.2-8.8 6.3-13.4 10.3-17.1 1.5-1.4 3-2.7 4-4 1.2-1.6 1.5-11-2.2-20.7-1.6-4.1-5.1-11.3-11.1-12.5-16.5-3.4-23-22.4-23.3-23.2-.5-1.6.3-3.4 2-4 1.6-.5 3.4.3 4 2 .1.2 5.6 16.4 18.6 19.1 6.7 1.4 12.3 7.3 15.8 16.6 3.4 9.1 4.8 22 1.3 26.6-1.4 1.8-3 3.3-4.8 4.9-3.2 2.9-6.2 5.6-7.7 10.2 7.2.9 19.7 1.9 25.2-.3 5.8-2.5 19.6-51.7 17.6-62.7-.3-1.7.8-3.3 2.5-3.7 1.7-.3 3.3.8 3.7 2.5 2 10.6-10.5 65.2-21.4 69.6-3.4 1.3-8.2 1.8-13.1 1.8z" fill="#3f0f33"/></g></g></g></g></g></svg>